<svg xmlns="http://www.w3.org/2000/svg" viewBox="0 0 726.93 433.81"><defs><style>.cls-1{fill:#f89521;}.cls-2{fill:#fff;}</style></defs><title>Active-halopesa</title><g id="Layer_2" data-name="Layer 2"><g id="Layer_1-2" data-name="Layer 1"><rect id="Rectangle_78" data-name="Rectangle 78" class="cls-1" width="726.93" height="433.81" rx="50.25"/><g id="Group_156" data-name="Group 156"><path id="Path_334" data-name="Path 334" class="cls-2" d="M399.3,206.48v-5.86H398a37.48,37.48,0,0,0-9.12,1.95l-3.91,2c-.66,0-.66.66-.66,1.31v94.45c0,.66,0,1.31-.65,1.31-3.91,3.91-7.81,7.81-12.38,11.73a.63.63,0,0,0-.65.62v-112a13.94,13.94,0,0,1,11.07-13.68,4,4,0,0,0,2.61-.65H649.4a17.18,17.18,0,0,1,7.82,2,14,14,0,0,1,7.16,12.38v66.44A15.82,15.82,0,0,1,655.26,282a14.37,14.37,0,0,1-5.21.66H404.49c-1.31,0-2.61,0-3.26,1.3l-.65.66h0V266.42a2,2,0,0,0,1.3.65,29.66,29.66,0,0,0,19.54,5.21,34.26,34.26,0,0,0,24.11-11.73,39.53,39.53,0,0,0,9.12-18.88,40.88,40.88,0,0,0-3.91-24.75,33.27,33.27,0,0,0-48.2-12.38c-2,2-2.61,2-3.26,2C400,207.14,400,206.48,399.3,206.48Zm252.09,67.74V205.84c0-.66,0-1.31-.65-1.31-1.31-.65-2-1.31-3.26-1.95a23,23,0,0,0-9.12-2h-2v5.86h-.66a.64.64,0,0,1-.65-.62v0a31.35,31.35,0,0,0-21.49-5.21,31,31,0,0,0-16.28,5.86,37.11,37.11,0,0,0-15,38.43,36.35,36.35,0,0,0,12.38,21.5A33.07,33.07,0,0,0,635.11,269c.65,0,.65-.66,1.3-.66v6.52a116.86,116.86,0,0,1,15-.66Zm-134.84-7.17h0v-.65a23.7,23.7,0,0,0-10.42-9.12c-.65,0-1.31-.66-1.95,0a25.7,25.7,0,0,1-16.94,1.3,19.35,19.35,0,0,1-13.67-13.67v-.66H527V243a21.57,21.57,0,0,0,0-9.12,32,32,0,0,0-5.21-15.64,34.75,34.75,0,0,0-32.57-16.93,24.51,24.51,0,0,0-13.68,4.55,37.18,37.18,0,0,0-17.59,39.08,33.39,33.39,0,0,0,6.52,15.64,31.88,31.88,0,0,0,28,14.33h3.91a43.46,43.46,0,0,0,20.2-7.82Zm9.77-7.81h0a2.26,2.26,0,0,0,.66,1.3,26.68,26.68,0,0,0,13.67,11.73,38.76,38.76,0,0,0,22.8,1.31,31,31,0,0,0,14.33-7.82,17.84,17.84,0,0,0,2.6-19.54,27.79,27.79,0,0,0-7.16-7.81,30.59,30.59,0,0,0-14.33-5.86,37.68,37.68,0,0,1-9.13-2.61c-1.3-.65-3.25-1.31-3.91-2.6a5,5,0,0,1-.65-6.52,9.47,9.47,0,0,1,5.86-3.91,20.16,20.16,0,0,1,12.38.65,8,8,0,0,1,5.86,5.21h0A34.94,34.94,0,0,0,583,217.56c0-.65-.65-1.3-.65-1.95a26.76,26.76,0,0,0-10.42-10.42,28.79,28.79,0,0,0-14.33-3.26,51,51,0,0,0-14.33,2,25,25,0,0,0-11.07,7.16,16.62,16.62,0,0,0-1.95,19.54,38.08,38.08,0,0,0,6.51,7.81,42.13,42.13,0,0,0,15.64,6.52,25.5,25.5,0,0,1,9.77,3.91,11.41,11.41,0,0,1,3.26,2.6,5.52,5.52,0,0,1,1.31,4.56,13.72,13.72,0,0,1-2.61,3.91,5.88,5.88,0,0,1-4.55,2,23.91,23.91,0,0,1-11.73-.65,10.17,10.17,0,0,1-5.21-3.91c0-.66-.65-.66-.65-1.31a14.39,14.39,0,0,0-15.66,3.27Z"/><path id="Path_335" data-name="Path 335" class="cls-2" d="M137.45,274.87H121.16V235.8a23.25,23.25,0,0,0-7.81-17.59,18.81,18.81,0,0,0-24.75,0,19.21,19.21,0,0,0-7.16,14.33v41a138.16,138.16,0,0,1-16.28,0V166.1c0-.66,0-1.31.65-1.31a11.57,11.57,0,0,1,6.52-2.6c2.6-.66,5.21-.66,7.16-1.31h2v41.68c.65,0,.65-.65,1.31-.65a31.61,31.61,0,0,1,13.67-5.21,34.14,34.14,0,0,1,24.11,5.21,37.63,37.63,0,0,1,13,13.68,31.2,31.2,0,0,1,4.56,13c0,2.6.65,4.56.65,7.17v35.83C137.45,273.58,137.45,274.23,137.45,274.87Z"/><path id="Path_336" data-name="Path 336" class="cls-2" d="M220.17,274.87H203.89v-6.51a2.06,2.06,0,0,1-1.31.65,34.43,34.43,0,0,1-20.85,5.21,35,35,0,0,1-24.1-12.38,34,34,0,0,1-9.12-19.54,36.78,36.78,0,0,1,9.77-33.21A33.08,33.08,0,0,1,177.82,198a35,35,0,0,1,25.4,5.21l.66.66h.65V198h1.95a55.12,55.12,0,0,1,9.78,2.61,14.31,14.31,0,0,1,3.25,1.95c.66,0,.66.65.66,1.31v71ZM163.5,235.8v1.95a25.68,25.68,0,0,0,7.82,15.63,18.09,18.09,0,0,0,24.74,0,22.9,22.9,0,0,0,7.82-18.88,19.85,19.85,0,0,0-7.16-15.64,18.47,18.47,0,0,0-26.06,0,21.35,21.35,0,0,0-7.16,16.94Z"/><path id="Path_337" data-name="Path 337" class="cls-2" d="M314,265.76a41.66,41.66,0,0,1-26.06-8.47,37.35,37.35,0,0,1-7.16-7.16,9.17,9.17,0,0,1-1.95-5.87,22.29,22.29,0,0,1,.66-6.51,58.12,58.12,0,0,1,3.25-9.78,37.75,37.75,0,0,1,11.73-15,47.12,47.12,0,0,1,12.38-7.17,17.31,17.31,0,0,1,15,.65c.65.66,1.95,1.31,2.61,2a77.79,77.79,0,0,1,9.77,11.72,39.58,39.58,0,0,1,5.21,16.94,44.91,44.91,0,0,1-1.31,16.28,10.06,10.06,0,0,1-5.21,7.17,40.55,40.55,0,0,1-12.38,4.55A33.16,33.16,0,0,1,314,265.76Z"/><path id="Path_338" data-name="Path 338" class="cls-2" d="M248.83,274.88H232.55V168.06a3.34,3.34,0,0,1,1.3-2.61,31.58,31.58,0,0,1,4.56-1.95l7.81-1.95h2.61Z"/><path id="Path_339" data-name="Path 339" class="cls-2" d="M399.3,237.75a22.19,22.19,0,0,1,8.46-18.24,18.56,18.56,0,0,1,22.15,0,23.74,23.74,0,0,1,8.46,16.93,22.8,22.8,0,0,1-3.25,13A17.19,17.19,0,0,1,424,258.58a17.88,17.88,0,0,1-20.19-6.51,22.19,22.19,0,0,1-4.55-12.38C400,239.05,399.3,238.4,399.3,237.75Z"/><path id="Path_340" data-name="Path 340" class="cls-2" d="M325.69,272.28h0a52.28,52.28,0,0,1-17.59,7.81,40.16,40.16,0,0,1-30-4.55A49.16,49.16,0,0,1,254,243a37.19,37.19,0,0,1,5.86-27.35,69.05,69.05,0,0,1,12.38-15c2.6-1.95,5.21-4.56,7.81-6.52l.66-.65-.66.65a61.59,61.59,0,0,0-11.72,16.28,40.16,40.16,0,0,0-4.56,21.5,35.63,35.63,0,0,0,3.26,14.33,47.26,47.26,0,0,0,15.64,20.2,36.72,36.72,0,0,0,19.54,7.81,50.52,50.52,0,0,0,22.14-1.31,2.06,2.06,0,0,1,1.31-.65Z"/><path id="Path_341" data-name="Path 341" class="cls-2" d="M286,283.34a41.73,41.73,0,0,1,4.56,1.31,50.84,50.84,0,0,0,16.94,1.3,40.93,40.93,0,0,0,33.86-20.84,50.26,50.26,0,0,0,6.52-16.28,45.69,45.69,0,0,0-2.6-24.75,52.2,52.2,0,0,0-11.73-17.59l-.64-.66h.65a63,63,0,0,1,17.59,14.33,36.72,36.72,0,0,1,7.81,19.54A50.34,50.34,0,0,1,353.7,269a38.64,38.64,0,0,1-22.8,20.19,35.09,35.09,0,0,1-16.28,2A77.62,77.62,0,0,1,287.91,284c-1.3,0-1.3,0-2-.66Z"/><path id="Path_342" data-name="Path 342" class="cls-2" d="M271,233.19v-3.26a49.79,49.79,0,0,1,1.95-13.67,41.69,41.69,0,0,1,23.45-26.71,72.41,72.41,0,0,1,19.54-5.21,32.35,32.35,0,0,1,11.07,1.3,35.4,35.4,0,0,1,18.89,9.78,51.86,51.86,0,0,1,9.77,13.68,89.21,89.21,0,0,1,5.21,17.58c.66,2.61.66,5.21,1.31,7.17v1.31c0-.65,0-.65-.65-1.31A70,70,0,0,0,353,215a45.18,45.18,0,0,0-23.45-17.59,37.93,37.93,0,0,0-15-1.31,50.62,50.62,0,0,0-14.33,2.61,47,47,0,0,0-28,32.57c-.65,1.3-.65,1.95-1.31,1.95Z"/><path id="Path_343" data-name="Path 343" class="cls-2" d="M636.39,237.1A23.07,23.07,0,0,1,629.87,254a17.92,17.92,0,0,1-25.34.09c-.25-.24-.48-.49-.71-.75a26,26,0,0,1-6.52-15,22.76,22.76,0,0,1,5.21-15.64,20,20,0,0,1,9.78-6.51,18.14,18.14,0,0,1,17.58,5.21A21.16,21.16,0,0,1,636.39,237.1Z"/><path id="Path_344" data-name="Path 344" class="cls-2" d="M472.9,231.24a19.63,19.63,0,0,1,18.24-15.64,18.74,18.74,0,0,1,13,4.56,21.87,21.87,0,0,1,6.52,10.42A372.06,372.06,0,0,1,472.9,231.24Z"/></g></g></g></svg>