<svg xmlns="http://www.w3.org/2000/svg" viewBox="0 0 726.93 433.81"><defs><style>.cls-1{fill:#ec2227;}.cls-2{fill:#fff;}.cls-3{isolation:isolate;}.cls-4{fill:#ffc518;}</style></defs><title>Active-Airtelmoney</title><g id="Layer_2" data-name="Layer 2"><g id="Layer_1-2" data-name="Layer 1"><rect id="Rectangle_77" data-name="Rectangle 77" class="cls-1" width="726.93" height="433.81" rx="50.25"/><g id="Group_160" data-name="Group 160"><g id="Group_158" data-name="Group 158"><path id="Path_361" data-name="Path 361" class="cls-2" d="M147.22,121.16a72.58,72.58,0,0,1,11.72,2,37.11,37.11,0,0,1,29.32,27.35,43.51,43.51,0,0,1-4.56,31.27,79.68,79.68,0,0,1-24.75,30A136.14,136.14,0,0,1,110.75,239a42,42,0,0,1-13,2,13.44,13.44,0,0,1-14.47-12.33,13.59,13.59,0,0,1,.14-3.31,35.17,35.17,0,0,1,24.75-29.31,15,15,0,0,1,9.12,1.3,7.22,7.22,0,0,1,2.6,12.38,110.83,110.83,0,0,1-9.77,8.47,73.42,73.42,0,0,0-7.16,7.17,5.69,5.69,0,0,0-.65,4.55,5.31,5.31,0,0,0,4.55.66,57.27,57.27,0,0,0,9.78-3.26,107.9,107.9,0,0,0,44.29-37.78,51.32,51.32,0,0,0,5.87-13.68c2.6-11.72-5.21-18.88-16.94-16.93a98.41,98.41,0,0,0-24.1,9.77L98.37,184.34a36.45,36.45,0,0,1-23.45,4.55,14.13,14.13,0,0,1-13.18-15,14.28,14.28,0,0,1,.8-3.83,44,44,0,0,1,16.93-23.45,128.63,128.63,0,0,1,52.11-24.75c3.91-.65,7.82-1.31,11.07-2A5.52,5.52,0,0,0,147.22,121.16Z"/><path id="Path_362" data-name="Path 362" class="cls-2" d="M257.94,185.64h0c1.31-11.73-3.91-16.29-15-14.33a57,57,0,0,0-15,4.55,11,11,0,0,0-3.26,1.31,70.36,70.36,0,0,1-5.2-12.38A69,69,0,0,1,241.65,157a35.39,35.39,0,0,1,20.19,1.3,24.44,24.44,0,0,1,17.59,22.8v46.24a5,5,0,0,1-1.31,3.26,49.07,49.07,0,0,1-26.05,11.07,36.36,36.36,0,0,1-22.15-3.26,27.89,27.89,0,0,1-10.41-41A27.51,27.51,0,0,1,241,186.93a161.09,161.09,0,0,1,17.58,0A2,2,0,0,1,257.94,185.64Zm.65,13.67a96,96,0,0,0-14.33,1.95,12.47,12.47,0,0,0-8.46,13,11.22,11.22,0,0,0,7.81,12.38,20,20,0,0,0,13.68-1.31c.65,0,1.3-1.31,1.3-2Z"/><path id="Path_363" data-name="Path 363" class="cls-2" d="M497.65,201.27H452.7a30.76,30.76,0,0,0,3.92,20.2,14.53,14.53,0,0,0,11.07,5.86,37.35,37.35,0,0,0,24.1-7.17l5.86,11.72A50.78,50.78,0,0,1,453.36,239a27.37,27.37,0,0,1-17.59-16.28,54.88,54.88,0,0,1,2.6-52.11,32.61,32.61,0,0,1,45.1-9.57c.84.55,1.66,1.13,2.45,1.76a25.27,25.27,0,0,1,7.82,12.38A70.57,70.57,0,0,1,497.65,201.27Zm-22.15-13A19.08,19.08,0,0,0,471,173.92a8.82,8.82,0,0,0-10.42-.65c-5.87,3.25-6.52,9.12-7.16,15Z"/><path id="Path_364" data-name="Path 364" class="cls-2" d="M409.71,157h11.08c1.95,0,2.6.65,2.6,2.6v13H409.71v43c0,7.82,3.26,11.08,11.08,11.08,2.6,0,3.25.65,2.6,3.25v7.82c0,.65-.65,1.95-1.31,1.95a30.32,30.32,0,0,1-26.7-5.86,22.59,22.59,0,0,1-7.16-17.59v-78.8c7.16-1.31,13.67-1.95,20.84-3.26C409.71,142,409.71,149.16,409.71,157Z"/><path id="Path_365" data-name="Path 365" class="cls-2" d="M510.68,138.09c7.16-1.31,13.67-2.6,20.84-3.26v78.82c0,9.12.66,13.68,13,14.33v12.38a24,24,0,0,1-33.22-22.14c-.65-15,0-29.32,0-44.3V142A8.19,8.19,0,0,1,510.68,138.09Z"/><path id="Path_366" data-name="Path 366" class="cls-2" d="M353.7,240.35H332.86V175.22a7,7,0,0,1,1.95-4.56,47.1,47.1,0,0,1,43.64-13c.65,0,1.95.65,2.6.65s.66.65,2,.65c-2,3.92-3.26,7.82-5.21,11.73,0,.65-1.95.65-3.26.65a31,31,0,0,0-16.94,2.61c-2.6,1.3-3.25,2.6-3.25,5.86v56.67A8.23,8.23,0,0,0,353.7,240.35Z"/><path id="Path_367" data-name="Path 367" class="cls-2" d="M295.08,160.89c6.51-1.31,13.67-1.95,20.19-3.26v82.72H295.08Z"/><path id="Path_368" data-name="Path 368" class="cls-2" d="M318.53,137.44a12.67,12.67,0,0,1-12.3,13h-.73a13.06,13.06,0,0,1-13-13,12.83,12.83,0,0,1,12.61-13c.35,0,.71,0,1.07,0a12.14,12.14,0,0,1,12.39,11.9C318.56,136.69,318.55,137.06,318.53,137.44Z"/></g><g id="Group_159" data-name="Group 159"><g id="money" class="cls-3"><g class="cls-3"><path class="cls-4" d="M440.48,266.6q9,0,10.71,9.33h.25A21.24,21.24,0,0,1,458,269a14.84,14.84,0,0,1,8.08-2.41c3.71,0,6.53,1.16,8.48,3.48s2.93,5.55,2.93,9.69a35.23,35.23,0,0,1-.94,7.36l-5.44,26.05H458.8l5.64-26.7a21.52,21.52,0,0,0,.66-4.87q0-5-4-5-3.76,0-6.81,4.58t-4.85,13l-3.92,19H433.2l5.6-26.7a21.52,21.52,0,0,0,.66-4.87q0-5-4-5-3.76,0-6.83,4.66c-2.05,3.11-3.65,7.44-4.83,13l-4,18.93H407.48l9.69-45.72h9.4l-.85,8.47H426Q431.93,266.6,440.48,266.6Z"/><path class="cls-4" d="M527.05,284.72A38.22,38.22,0,0,1,524.17,300a23.16,23.16,0,0,1-8.32,10.33A22.63,22.63,0,0,1,502.92,314q-8,0-12.73-4.81t-4.77-12.78a39,39,0,0,1,2.93-15.52,23.58,23.58,0,0,1,8.44-10.55,22.51,22.51,0,0,1,12.92-3.74q8,0,12.68,4.83T527.05,284.72Zm-12.39,0q0-8.06-5.85-8.06a7.49,7.49,0,0,0-5.5,2.5,18.25,18.25,0,0,0-4,7.32,32.35,32.35,0,0,0-1.54,9.93q0,7.57,6.14,7.57a7.55,7.55,0,0,0,5.52-2.52,16.86,16.86,0,0,0,3.82-7A33.3,33.3,0,0,0,514.66,284.72Z"/><path class="cls-4" d="M570.69,313.18H558.38l5.6-26.7a21.45,21.45,0,0,0,.65-4.87q0-5-4.41-5-3.76,0-6.83,4.66t-4.83,13l-4,18.93h-12.3l9.69-45.72h9.4l-.86,8.47h.25q6-9.33,14.52-9.33,5.64,0,8.73,3.42t3.09,9.75a36.63,36.63,0,0,1-.94,7.36Z"/><path class="cls-4" d="M603.08,314q-8.6,0-13.34-4.62T585,296.33a35,35,0,0,1,3.37-15.44,25.28,25.28,0,0,1,9.14-10.63,23.86,23.86,0,0,1,13-3.66q7.23,0,11.29,3.33a11.2,11.2,0,0,1,4,9.14q0,7.65-6.82,11.8T599.56,295h-2.09l-.08.86v.82a7.39,7.39,0,0,0,8.14,8,24.92,24.92,0,0,0,6.46-.78,42.56,42.56,0,0,0,7-2.74v9.28A35.08,35.08,0,0,1,603.08,314Zm6.7-38.52a9.45,9.45,0,0,0-6.79,3.27,15.88,15.88,0,0,0-4.17,8h1.84q6.35,0,9.88-2c2.36-1.32,3.54-3.12,3.54-5.38C614.08,276.77,612.64,275.48,609.78,275.48Z"/><path class="cls-4" d="M632.15,267.46h12.07l2.29,21.18a107.71,107.71,0,0,1,.57,12h.24q.82-2.08,1.8-4.89a62.28,62.28,0,0,1,2.66-6.28l10.63-22h13.38L648,319.72q-7.25,13.57-19.75,13.58a19.37,19.37,0,0,1-6-.78v-9.81a26.38,26.38,0,0,0,4.75.53,9.71,9.71,0,0,0,6-2,18.29,18.29,0,0,0,4.8-6.1l1.07-2Z"/></g></g></g></g></g></g></svg>