<svg xmlns="http://www.w3.org/2000/svg" viewBox="0 0 726.93 433.81"><defs><style>.cls-1{fill:#00a7bd;}.cls-2{fill:#f7c217;}.cls-3{fill:#fdfeff;}</style></defs><title>Active-Azampesa</title><g id="Layer_2" data-name="Layer 2"><g id="Layer_1-2" data-name="Layer 1"><rect id="Rectangle_79" data-name="Rectangle 79" class="cls-1" width="726.93" height="433.81" rx="50.25"/><path class="cls-2" d="M326,271.59c10.61-2.35,21.22-4.36,31.51-7.66,16.76-5.37,32.88-12,47.12-22.74,19.1-14.41,14.89-35.86,3-48.09-8.64-8.91-19.36-14.29-30.84-18.38a184.15,184.15,0,0,0-37.35-8.81c-.36,0-.71-.2-1.05-.88H624.22c9.64,0,13.46,3.79,13.46,13.32V257.9c0,9.68-3.95,13.69-13.54,13.69H326ZM436.2,216.77v18c0,7.3,0,7.2,7.28,7.14,2.09,0,2.42-.79,2.36-2.59-.12-3.25.1-6.53-.08-9.78-.11-2,.65-2.43,2.51-2.42a91.71,91.71,0,0,0,12.62-.28c15.07-2,17.91-15.24,14.3-25.09-2.6-7.1-8.74-9.63-15.82-9.86-6.73-.22-13.48,0-20.21-.13-2.29-.06-3.07.46-3,2.91C436.32,202,436.21,209.4,436.2,216.77Zm147.35,20.94c-.82,4,1,4.43,3.52,4.16a20.86,20.86,0,0,1,3.79,0c1.52.11,2-.51,2-2-.15-8.1-.09-16.2-.37-24.29-.22-6.24-3.48-10.15-9.6-11.68a28.37,28.37,0,0,0-19.07,1.95c-4,1.81-3.76,1.71-1.94,5.75,1.16,2.57,2.28,2.43,4.44,1.32a16.35,16.35,0,0,1,12.52-1.5,6,6,0,0,1,4.34,4.52c.55,2,.15,2.87-2.15,2.83a119.56,119.56,0,0,0-12,.28c-6.95.57-11.28,5-11.33,11.2s4.2,10.81,10.88,11.76A18.2,18.2,0,0,0,583.55,237.71ZM504.18,226h12.31c.93,0,1.93.18,2-1.29.29-6.69-1.09-15-8-19.07-7.64-4.48-19.06-2.9-25,3.49s-6.68,17.61-1.76,24.93c5.65,8.41,19.35,10.79,28.57,5,4.48-2.82,4.46-3.08.86-7-1.22-1.33-2-1.66-3.54-.37a13,13,0,0,1-10.07,2.76,10.26,10.26,0,0,1-8.59-6.09c-.78-1.57-.59-2.46,1.55-2.38C496.39,226.11,500.29,226,504.18,226Zm34.73-22.94c-1.16.06-2.32.07-3.47.17-6,.54-10.67,4.4-11.3,9.25-.82,6.31,1.5,9.89,8.14,12.37,2.65,1,5.4,1.72,8,2.73,1.89.74,3.79,1.77,3.38,4.3s-2.55,2.87-4.58,3a18.61,18.61,0,0,1-11.64-3.21c-2-1.32-2.89-1-3.5,1.16a5.21,5.21,0,0,1-.88,1.66c-1.37,1.83-.62,2.91,1.1,4a25.25,25.25,0,0,0,19.42,3c4.38-1,8-3.35,9-8.2,1.33-6.4-1.41-10.89-8.08-13.33-3-1.08-6-1.86-9-3-1.54-.6-3.13-1.6-2.74-3.71s2.12-2.49,3.82-2.7a14.66,14.66,0,0,1,8.85,1.74c2.92,1.61,4.54,1.23,5.43-2a2.38,2.38,0,0,1,.46-.82c1.46-1.89.63-2.9-1.26-3.74A26.49,26.49,0,0,0,538.91,203.07Z"/><path class="cls-3" d="M242.82,271.09a10,10,0,0,1,5.33-1.36c10.59-.73,21.21-1.19,31.8-2.05,22.63-1.84,44.89-5.37,65.46-15.76,6-3,11.84-6.44,16.16-11.82,5-6.21,4.95-12.5-.15-18.61-4.56-5.46-10.61-8.89-16.95-11.76C328.73,202.62,312,199,295.06,196.37c-32.8-5.11-65.8-5.4-98.84-3.81-22.6,1.09-45.09,3.21-66.95,9.51-11.87,3.43-23.28,7.86-33.39,15.16a32.68,32.68,0,0,0-7.18,6.59c-1.57,2.1-2.11,1.11-2.92-.45a18.09,18.09,0,0,1,.13-17.81c4-7.45,10.69-12,17.73-16.12,17.73-10.33,37.06-16.29,57-20.25,39.06-7.74,78.51-8.78,118.14-6.58,16.81.94,33.58,2.33,50.25,4.67,20,2.8,39.78,6.8,58.09,15.91a59.37,59.37,0,0,1,17.71,12.94c11.09,12.14,12,29.5-3.6,41.44-12.33,9.41-26.35,15.22-40.88,19.91-24.85,8-50.56,11.4-76.5,13.46a338.13,338.13,0,0,1-35.3,1.19A13.26,13.26,0,0,1,242.82,271.09Z"/><path class="cls-3" d="M268,216.41c1.7-2.13,3-4,4.54-5.65,4.59-4.75,8.82-3.8,11.2,2.42.3.76.57,1.54,1,2.77,1.44-1.85,2.59-3.51,3.94-5,1.81-2,3.93-3.77,6.83-3s4.3,3.24,5,6a29.55,29.55,0,0,1,.79,7.51c0,8.2-.06,16.41,0,24.61,0,2.59-.18,5.37,2.44,7.11.65.43.56,1.08.46,1.69-.14.84-.88.76-1.49.77q-6.3,0-12.62,0c-.6,0-1.35.13-1.48-.75-.09-.72-.16-1.42.64-1.93,1.72-1.1,2-2.9,2-4.72,0-8.62,0-17.24,0-25.87a8.58,8.58,0,0,0-.2-1.88c-.2-.94-.57-1.9-1.59-2.17a2.28,2.28,0,0,0-2.55,1.45,15.18,15.18,0,0,0-2.06,7.21c-.08,7.05-.07,14.1-.07,21.14,0,1.83.34,3.6,1.92,4.8a1.77,1.77,0,0,1,.64,2c-.2,1.06-1.11.77-1.78.77-3.89,0-7.79,0-11.68,0-.68,0-1.56.32-1.94-.59a1.66,1.66,0,0,1,.74-2.15c1.69-1.23,2-3.16,2-5.06q.07-12.63,0-25.25a7.87,7.87,0,0,0-.54-2.75c-.83-2.09-2.15-2.15-3.55-.55a10.07,10.07,0,0,0-2.23,6.13,229.53,229.53,0,0,0-.11,23,5.41,5.41,0,0,0,1.92,4.47,1.75,1.75,0,0,1,.69,1.93c-.18,1.07-1.09.8-1.76.8-4,0-8,0-12,0-.6,0-1.34.16-1.6-.64a1.58,1.58,0,0,1,.51-2c2-1.52,2.12-3.81,2.14-6q.07-14.52,0-29c0-2.11-.33-4.11-2-5.76-1.52-1.48-1.14-2.58,1.13-2.76,1.26-.1,2.5-.37,3.75-.51,6-.71,6-.7,6.63,5.35C267.74,214.89,267.83,215.46,268,216.41Z"/><path class="cls-3" d="M161.68,226.09c.26-5.21.52-10.42.79-15.94,1.83,1,3.46.46,5.17-.3a30.79,30.79,0,0,1,5.08-1.66c7-1.74,11.78,1.3,13.11,8.36.74,4,.4,8,.43,12,.05,6,0,12,0,18,0,2.42,0,4.87,2.29,6.54a1.6,1.6,0,0,1,.41,2c-.3.76-1,.57-1.63.58-1.37,0-2.73,0-4.1,0-5.4,0-5.4,0-6.84-5.33-1.43,1.92-2.69,3.84-4.73,5-4.84,2.88-9.38,1.32-11.37-4-4-10.59,1.15-21.18,12.4-25.64,4.17-1.66,4.34-2,3.51-6.38-.72-3.87-3.87-5.33-7.31-3.39-3,1.68-4.17,4.6-5.33,7.55-.37.93-.71,1.87-1.07,2.81Zm14.59,9.61c.07-.88.13-1.4.16-1.92.06-1.11.74-2.66-.35-3.17-1.32-.62-2.55.58-3.45,1.58a13.87,13.87,0,0,0-3.31,12c.22,1.38.82,2.84,2.29,3.06s2.35-1.11,2.93-2.39A24.31,24.31,0,0,0,176.27,235.7Z"/><path class="cls-3" d="M224.85,226.15c.3-5.26.6-10.52.92-16.15,1.54,1.05,2.92.77,4.41.16,2.9-1.19,5.81-2.44,9.06-2.42,5.07,0,8.3,2.57,9.53,7.46.84,3.3.74,6.67.75,10,0,6.73-.08,13.45,0,20.18,0,2.78-.16,5.62,2.35,7.85,1.07.95.84,2.37-1.18,2.37h-4.1c-5.24,0-5.24,0-6.91-5-1.65,1.35-2.53,3.31-4.3,4.45-5.09,3.31-9.64,1.91-11.84-3.76-4-10.34,1.25-21.51,12.49-25.46,3.48-1.22,4-3,3.5-6-.73-4.62-4.67-6.2-8.32-3.26a15,15,0,0,0-4.47,7.09c-.3.87-.62,1.74-.93,2.6Zm14.81,8.06c-.41-1,1-3.08-.5-3.64s-3,1.13-4,2.46A13.71,13.71,0,0,0,232.46,244c.24,1.44.75,3.08,2.47,3.25,1.56.16,2.32-1.23,2.87-2.51C239.19,241.49,239.28,238,239.66,234.21Z"/><path class="cls-3" d="M219.11,239.43c-.9,5.72-1.8,11.44-2.67,17-8.07-1.79-16.23-.17-24.63-1,2.32-6.78,4.59-13.41,6.85-20,2-6,3.93-12,6.09-17.87.75-2.05.1-2.37-1.67-2.33-3.1.08-4.64,2.19-5.93,4.53a43.38,43.38,0,0,0-1.87,4.44l-.83-.2c.61-5.31,1.23-10.61,1.91-16.49,1.48,1.73,3,1.57,4.55,1.57,5,0,9.89.11,14.83-.05,2.54-.08,3,.47,2.15,3-4.07,11.59-7.88,23.27-11.92,34.87-.72,2.08-.47,2.7,1.8,2.7,4.31,0,7.16-2,8.89-6.61l1.41-3.74Z"/><path class="cls-2" d="M446,209.3c0-2.92-1.15-6.85.3-8.51,1.71-2,5.72-.49,8.73-.6a22.8,22.8,0,0,1,5,.33c4.83.93,7.32,4,7.3,8.79s-2.53,7.93-7.31,8.82c-4.27.79-8.6.24-12.91.36-1.45,0-1.35-1-1.35-1.93v-7.25Z"/><path class="cls-2" d="M573.55,235a8.82,8.82,0,0,1-4.54-1.1,4.64,4.64,0,0,1-2.36-4.79,3.92,3.92,0,0,1,3.73-3.68c3.88-.27,7.78-.21,11.67-.29,1.13,0,1.33.63,1.41,1.61.26,3.08-1.56,5.75-5,7.23A14.09,14.09,0,0,1,573.55,235Z"/><path class="cls-2" d="M499.86,219.65c-2.62,0-5.25-.07-7.88,0-1.83.06-2.1-.46-1.5-2.19a9.81,9.81,0,0,1,9.77-7c4.53,0,7.9,2.38,9.14,6.33.58,1.82.59,3-2,2.85S502.39,219.65,499.86,219.65Z"/></g></g></svg>