<svg xmlns="http://www.w3.org/2000/svg" viewBox="0 0 726.93 433.81"><defs><style>.cls-1{fill:#1c76bc;}.cls-2{fill:#ffc518;}.cls-3{fill:#fff;}</style></defs><title>Active-tigopesa</title><g id="Layer_2" data-name="Layer 2"><g id="Layer_1-2" data-name="Layer 1"><rect id="Rectangle_76" data-name="Rectangle 76" class="cls-1" width="726.93" height="433.81" rx="50.25"/><g id="Group_157" data-name="Group 157"><path id="Path_345" data-name="Path 345" class="cls-2" d="M664.39,184.33c-.66,1.31-.66,1.95-1.31,3.26a205.64,205.64,0,0,1-84,86,9,9,0,0,1-11.72-1.31c-9.78-8.47-20.19-16.93-30-25.4-4.55-3.91-4.55-4.56.65-7.82a232.42,232.42,0,0,0,70.36-67.73c3.25-5.21,7.17-9.78,9.77-15,2-3.25,3.26-3.91,6.52-1.3,12.37,8.46,24.74,17.58,37.12,26a14.16,14.16,0,0,1,3.26,2A2,2,0,0,1,664.39,184.33Z"/><path id="Path_346" data-name="Path 346" class="cls-2" d="M299,240.35a113.38,113.38,0,0,1-3.26,14.33c-1.95,9.12-1.95,9.78-13,7.82a12.61,12.61,0,0,1,.65-5.21c4.56-24.11,9.12-48.2,13-73a4.31,4.31,0,0,1,4.56-3.91,22,22,0,0,1,6.52.65,12.63,12.63,0,0,0,.65,5.21,123.14,123.14,0,0,1,13.68-5.86,17.21,17.21,0,0,1,21.74,11c.15.47.29.94.4,1.42,5.86,18.24-7.16,46.24-30,48.2A60.06,60.06,0,0,1,299,240.35Zm11.72-9.12c2-.65,4.56-.65,5.87-1.31A30.61,30.61,0,0,0,332.19,198a9.72,9.72,0,0,0-15.63-6.52,21.64,21.64,0,0,0-9.12,11.07A154.09,154.09,0,0,0,301.57,226c0,1.31,1.31,3.26,2.61,3.26A7.84,7.84,0,0,0,310.69,231.23Z"/><path id="Path_347" data-name="Path 347" class="cls-3" d="M267.05,211c0,22.14-17.59,35.83-37.13,30a27.15,27.15,0,0,1-19.53-25.4A31.62,31.62,0,0,1,226,183.68C246.21,173.26,267.05,187.59,267.05,211Zm-15.63.65a22.29,22.29,0,0,0-.66-6.51,12.07,12.07,0,0,0-12.38-11.08c-6.51,0-10.42,3.26-11.72,11.08a39.16,39.16,0,0,0,.65,15,10.67,10.67,0,0,0,11.07,8.47c7.83,0,13-5.87,13-16.95Z"/><path id="Path_348" data-name="Path 348" class="cls-2" d="M495.69,239.7v-7.16a82.43,82.43,0,0,1-15,7.81,17,17,0,0,1-21.37-11,16.38,16.38,0,0,1-.77-4A41.87,41.87,0,0,1,512,180.43c3.91,1.3,3.26,3.25,2.6,5.86-2,12.38-4.55,24.75-6.51,37.78a55.92,55.92,0,0,0-.66,10.42c0,4.55-1.3,5.86-5.86,5.21Zm5.21-48.85a2.44,2.44,0,0,0-2-.66,22.63,22.63,0,0,0-22.14,10.42,27,27,0,0,0-5.21,26.06,6.71,6.71,0,0,0,8.52,4.15l.6-.24a13.61,13.61,0,0,0,6.52-3.91C498.29,216.93,498.94,203.22,500.9,190.85Z"/><path id="Path_349" data-name="Path 349" class="cls-3" d="M188.89,212.34h8.47c4.56.65,6.52,2.6,6.52,7.17v5.86c0,11.72-3.91,15.63-15,18.24a31.82,31.82,0,1,1-7.13-62.54,55.13,55.13,0,0,1,10.42.66,12.47,12.47,0,0,1,11.21,13.61,12.66,12.66,0,0,1-.79,3.32,127,127,0,0,0-15-3.91,18.43,18.43,0,0,0-22.14,23.45,16.18,16.18,0,0,0,19.07,12.65c.38-.08.75-.17,1.12-.27a13.22,13.22,0,0,0,3.91-4.56C189.55,221.46,188.89,216.9,188.89,212.34Z"/><path id="Path_350" data-name="Path 350" class="cls-2" d="M394.07,228c3.26,7.16,2.6,9.78-5.21,11.73a46.06,46.06,0,0,1-16.28,1.3,19.2,19.2,0,0,1-18.89-18.24,40.37,40.37,0,0,1,20.2-41,21.86,21.86,0,0,1,16.93-2,15.19,15.19,0,0,1,12.38,13.68,14.15,14.15,0,0,1-9.12,16.28,150.65,150.65,0,0,1-23.45,5.21c-5.21.65-6.52,1.31-5.21,6.52a12,12,0,0,0,12.38,9.77A120.14,120.14,0,0,0,394.07,228Zm-25.4-22.14a160.67,160.67,0,0,0,18.88-4.56c3.26-.65,4.56-3.91,3.92-7.81A6.29,6.29,0,0,0,385,188.9C377.14,188.89,371.27,194.76,368.67,205.83Z"/><path id="Path_351" data-name="Path 351" class="cls-3" d="M108.78,181.73c1.3,9.77-1.31,13.67-9.78,13.67H89.23v24.75c0,5.21,3.26,7.81,8.47,7.81a64.44,64.44,0,0,0,11.07-1.3c1.31,9.77-2,14.33-11.73,15A20.6,20.6,0,0,1,73.59,220.8V183.68a13.51,13.51,0,0,1,12.58-14.39,13.87,13.87,0,0,1,2.41.06v13C95.75,181.73,102.26,181.73,108.78,181.73Z"/><path id="Path_352" data-name="Path 352" class="cls-3" d="M165.44,252.08c28.66,27.35,51.46,27.35,78.82,0a27.63,27.63,0,0,1-5.21,21.5,46,46,0,0,1-64.86,4.07c-1-.88-2-1.8-2.88-2.77A25.77,25.77,0,0,1,165.44,252.08Z"/><path id="Path_353" data-name="Path 353" class="cls-2" d="M412.31,228.62c4.56.65,8.47,1.95,13,2.6a8.05,8.05,0,0,0,9.13-5.86,8.71,8.71,0,0,0-3.92-9.77l-5.86-3.92A16.85,16.85,0,0,1,426,182.36a26.29,26.29,0,0,1,22.14-1.3c3.91,1.3,3.26,3.91,1.95,6.51-.65,2-1.3,5.21-5.21,3.91a17.06,17.06,0,0,0-9.77-1.3,9.39,9.39,0,0,0-5.86,5.21c-.66,2,1.3,5.2,2.6,7.16s3.91,2.61,5.86,3.92a18.43,18.43,0,0,1,9.13,18.88A18.67,18.67,0,0,1,431.19,241a52.9,52.9,0,0,1-14.33,0C408.4,239,407.1,235.79,412.31,228.62Z"/><path id="Path_354" data-name="Path 354" class="cls-2" d="M555.61,218.2c5.21-9.77,9.77-18.89,13.68-28,4.55-11.07,8.46-22.14,12.38-33.21,1.3-3.26,2.6-4.56,5.86-2.61a151.07,151.07,0,0,0,18.24,6.52A246.16,246.16,0,0,1,555.61,218.2Z"/><path id="Path_355" data-name="Path 355" class="cls-3" d="M145.24,229.27c1.31,9.77-2,13-11.07,11.73a15.15,15.15,0,0,1-15-15c-.66-14.33,0-28.66,0-42.33,9.12-2.61,15,1.3,15,10.42v22.14C134.18,228,134.18,228,145.24,229.27Z"/><path id="Path_356" data-name="Path 356" class="cls-3" d="M265.11,173.91a34.81,34.81,0,0,0-52.11,0A15.42,15.42,0,0,1,219.51,157a33.9,33.9,0,0,1,35.83-2.61A16.76,16.76,0,0,1,265.11,173.91Z"/><path id="Path_357" data-name="Path 357" class="cls-2" d="M541.93,224.71c2-6.51,4.56-13.67,6.52-20.19,3.26-14.33,6.52-28.66,8.47-42.33.65-3.92,2-5.21,5.86-3.92,3.26.66,5.86,1.31,9.77,2A202.17,202.17,0,0,1,541.93,224.71Z"/><path id="Path_358" data-name="Path 358" class="cls-3" d="M135.49,168.7a8.81,8.81,0,1,1-9.13-8.47h0A9.23,9.23,0,0,1,135.49,168.7Z"/><path id="Path_359" data-name="Path 359" class="cls-2" d="M530.86,250.12a269.45,269.45,0,0,0,22.8,17.58.64.64,0,0,1-.62.66h0c-7.82-3.91-16.29-7.16-24.11-11.73C523.68,254,528.9,252.72,530.86,250.12Z"/><path id="Path_360" data-name="Path 360" class="cls-2" d="M552.36,275.52c-9.77-2.61-19.54-5.86-29.31-8.47a7.82,7.82,0,0,1-3.26-3.26c1.31,0,3.26-.65,4.56,0,9.12,3.91,18.88,7.82,28,11.73Z"/></g></g></g></svg>