<svg xmlns="http://www.w3.org/2000/svg" viewBox="0 0 745.39 435.51"><defs><style>.cls-1{fill:#193733;}.cls-2{isolation:isolate;}.cls-3{fill:#fff;}</style></defs><title>Active-Bank</title><g id="Layer_2" data-name="Layer 2"><g id="Layer_1-2" data-name="Layer 1"><rect id="Rectangle_85" data-name="Rectangle 85" class="cls-1" width="745.39" height="435.51" rx="50.25"/><g id="Pay_to_Bank" data-name="Pay to Bank" class="cls-2"><g class="cls-2"><path class="cls-3" d="M241.81,271.91v-104h22.48q15,0,22.86,4.58a26.63,26.63,0,0,1,9.52,9.6A27.35,27.35,0,0,1,300.48,196c0,8-3.58,14.94-10.82,20.81a26.35,26.35,0,0,1,9,6.4,29.13,29.13,0,0,1,6.93,19.28,26.83,26.83,0,0,1-7.47,19.12,30,30,0,0,1-11.81,7.85,51,51,0,0,1-16.92,2.44ZM255.6,212.7H266c6.17,0,10.59-.76,13.41-2.36,5.26-3,7.85-7.62,7.85-14,0-5.71-2.74-10.82-7-13.26-3.05-1.75-7.77-2.59-14.25-2.59H255.6Zm0,46.41h12.88c6.7,0,11.73-.92,15-2.82A15.45,15.45,0,0,0,291.87,242,16.52,16.52,0,0,0,284,227.71c-3.58-2.05-9.22-3.05-16.91-3.05H255.6Z"/><path class="cls-3" d="M387.74,271.91H374.41v-7.54a53.93,53.93,0,0,1-11.51,7.39,27.31,27.31,0,0,1-11,2.13,33.93,33.93,0,0,1-17.22-4.65,35.79,35.79,0,0,1-13.19-13.18,37.42,37.42,0,0,1-4.95-18.82c0-11.13,4-20.27,12-27.44a34.13,34.13,0,0,1,23.32-9.06,28.72,28.72,0,0,1,11,2,51.69,51.69,0,0,1,11.51,7.47v-7.54h13.33Zm-46.86-55.86c-7.24,4.35-10.82,11.36-10.82,21.19,0,8.15,2.51,14.48,7.62,19a21.35,21.35,0,0,0,14.78,5.56,20.78,20.78,0,0,0,16.16-6.93c4-4.42,6-10.36,6-17.91,0-8-2.52-14.17-7.55-18.67a22.51,22.51,0,0,0-26.21-2.21Z"/><path class="cls-3" d="M406.34,202.72h13.34v6.4a25,25,0,0,1,19.2-8.38,27.87,27.87,0,0,1,19.05,7c6.63,5.79,9.3,13.49,9.3,26.82v37.34H453.89V235.79c0-7.09-.91-12.34-2.74-15.7-2.51-4.57-7-6.86-13.64-6.86s-12.5,3-15,7.62c-1.91,3.36-2.82,8.84-2.82,16.46v34.6H406.34Z"/><path class="cls-3" d="M518.37,231.14l31.77,40.77H533.69L509.3,240.06l-10.13,10.06v21.79H485.83v-104h13.34V233.2l30.63-30.48h17.3Z"/></g></g></g></g></svg>