<svg xmlns="http://www.w3.org/2000/svg" viewBox="0 0 726.93 433.81"><defs><style>.cls-1{fill:#e32227;}.cls-2{fill:#eceaeb;}.cls-3{fill:#55ac4b;}</style></defs><title>Active-m-pesa</title><g id="Layer_2" data-name="Layer 2"><g id="Layer_1-2" data-name="Layer 1"><rect id="Rectangle_75" data-name="Rectangle 75" class="cls-1" width="726.93" height="433.81" rx="50.25"/><path class="cls-2" d="M318.42,158.6c0-19.23.18-38.46,0-57.69C318.38,91.17,325,84,335,84.23c16.8.44,33.63.47,50.43,0,10.74-.3,16.88,7.88,16.61,16.6-.21,6.88,0,13.77,0,21.13l-9-4.1c-1.41-.64-1.2-1.91-1.2-3.1,0-4.84-.14-9.68.06-14.51.1-2.36-.73-2.75-2.86-2.74q-28.86.12-57.7,0c-2,0-2.69.39-2.68,2.54.12,16.08.11,32.17.14,48.25q.09,13.13.17,26.27c-.08,10.15-.12,20.3-.29,30.45-.05,2.72,1.76,2.06,3.19,2.06q24.68,0,49.36,0c2.55,0,5.1-.15,7.62,0s3.09-.61,3.05-3c-.15-8.46,0-16.93-.11-25.4,0-1.88.45-2.71,2.29-3.2,2.51-.67,4.92-1.71,7.49-2.63.75,1.09.44,2.18.44,3.18q0,25,0,50.09c0,9.56-6.16,16-15.69,16q-26.13.16-52.27,0c-9.31-.06-15.44-6.46-15.48-15.82q-.11-26.67-.16-53.34Q318.4,165.81,318.42,158.6Zm35.51,64c0,6.53,0,6.53,6.36,6.53,6.84,0,6.88,0,6.83-6.83-.06-7.19,1.14-6.4-6.62-6.44C353.93,215.78,353.93,215.8,353.93,222.55ZM379.48,226c2.44.16,4.56.57,4.4-3.18-.14-3-.67-4.3-4-4.1-2.62.16-4.25.25-4.11,3.64C375.91,225.26,376.46,226.78,379.48,226Zm-38.19,0c2.61.44,4.25.12,4.1-3.34-.13-2.88-.72-3.92-3.82-3.95s-4.07.8-4.07,4S338.61,226.54,341.29,226Z"/><path class="cls-3" d="M328.89,174.58q-.08-13.14-.17-26.27c2.1-1.3,3-3.67,5.12-5.38a57.52,57.52,0,0,0,7.75,9.14,36.68,36.68,0,0,0,3.3,2.82c3,2.11,5.58,2.33,8.86-.48a107.48,107.48,0,0,0,26.36-34.06c1.11-2.21,1.89-2.71,4.21-1.57Q407.11,130,430,140.85c2.4,1.14,3.06,1.76,1.21,4.23-10.83,14.48-25.63,22.66-42.74,27C368.84,177.14,348.89,176.87,328.89,174.58Z"/><path class="cls-2" d="M206.63,306.12c0-6.9.05-13.79,0-20.68a3.33,3.33,0,0,1,2.15-3.57c10.39-5.23,21-5.35,31.74-1.51a9,9,0,0,0,6.17-.09c11-3.44,21.53-3.11,30.61,5.17,4.13,3.76,5.28,8.86,5.41,14.1.22,9.31,0,18.62.13,27.93,0,1.9-.53,2.56-2.45,2.47-3.85-.17-8.76,1.26-11.26-.61s-.65-7-.72-10.68c-.13-6,0-12.09-.05-18.14a11,11,0,0,0-16.29-9.7c-1.13.6-1.18,1.49-1.17,2.69.11,11,0,22,.22,33,.06,3-1,3.67-3.64,3.44a42.81,42.81,0,0,0-7.25,0c-2.29.19-2.82-.67-2.81-2.86.05-9.18.07-18.38-.21-27.56-.22-7.26-7.7-11.79-14.56-9.23-1.88.7-1.76,2-1.76,3.43,0,10.88-.09,21.77.07,32.65,0,2.83-.67,3.86-3.57,3.58a56.62,56.62,0,0,0-8.34,0c-1.92.11-2.46-.5-2.43-2.42C206.7,320.39,206.63,313.25,206.63,306.12Z"/><path class="cls-2" d="M320.05,314.53c0-10.52.05-21-.05-31.57,0-2.13.41-3.24,2.77-3.57,9.92-1.4,19.81-2.82,29.76-.3a23.39,23.39,0,0,1,17.53,22.07c.29,7.42-.63,14.4-5.53,20.32-6,7.29-13.95,10-23.15,8.67-7.29-1.08-7.26-1.32-7.26,6.13,0,3.51-.08,7,0,10.53.06,1.9-.28,2.91-2.53,2.77a74.18,74.18,0,0,0-9.07,0c-2.19.12-2.57-.81-2.55-2.75C320.09,336.06,320.05,325.3,320.05,314.53Zm14.07-11.47q0,5.61,0,11.22c0,1.08-.06,2.08,1,2.87,4.52,3.24,13.25,2.21,16.88-2.08,4.08-4.82,4.68-14.32,1.23-19.61-3.25-5-10.69-7.34-17.42-5.73-1.63.39-1.78,1.15-1.76,2.48C334.16,295.83,334.12,299.45,334.12,303.06Z"/><path class="cls-2" d="M507.08,325.44c-12.19,8-25.85,5.95-32.95-5.23-8.9-14-3.84-37.91,18.33-41.88,8.76-1.57,17.18.13,25.56,2.54,2,.56,2.32,1.52,2.31,3.32q-.09,21.21,0,42.42c0,2-.53,2.78-2.61,2.6a32,32,0,0,0-5.79,0C509.14,329.46,507,329.07,507.08,325.44Zm-.69-22.83c0-3.14-.11-6.29,0-9.42.09-1.76-.48-2.75-2.18-3-8.56-1.34-16.43.06-19.26,11.29-1.94,7.72,2.55,15.81,9.53,17.34,6.4,1.4,11.87-2.89,11.87-9.31Z"/><path class="cls-2" d="M389.24,308.85c1,7.31,4.95,10.54,12.88,10.84,6.33.23,12.43-1.16,18.53-2.55a3,3,0,0,1,.22.71c.33,9.16.3,9.07-9,11.39a37.7,37.7,0,0,1-19.92-.31c-8.71-2.54-14.52-8.24-16.2-17.52-1.65-9.07-1.31-17.82,4.93-25.24,6.75-8.05,15.71-10.16,25.48-7.57,9.55,2.54,14.53,9.52,16.21,19.15a72.72,72.72,0,0,1,.65,7.9c.16,2.5-.77,3.29-3.32,3.25C409.57,308.76,399.41,308.85,389.24,308.85Zm10.26-10.19c2.89,0,5.78-.09,8.66,0,1.86.08,1.95-.86,1.65-2.21-.88-3.91-5.42-7.13-10.12-7.2s-8.93,2.75-10,6.7c-.5,1.89-.1,2.9,2.2,2.72C394.44,298.51,397,298.66,399.5,298.66Z"/><path class="cls-2" d="M428.83,317.21c5.61,1.22,10.93,2.91,16.54,2.48a37.19,37.19,0,0,0,5.35-.83,4.12,4.12,0,0,0,3.35-3.37c.35-1.9-.77-3.24-2.2-4.27-2.7-1.94-6-2.16-9.1-3.1-1.26-.39-2.57-.65-3.82-1.08-7.66-2.62-11.3-7.36-10.88-14.14a15.76,15.76,0,0,1,12.79-14.55c7.15-1.51,14.11-.39,21.06,1.38,1.37.34,1.84.89,1.75,2.17,0,.24,0,.48,0,.73,0,2.53.89,5.84-.36,7.4-1.5,1.87-4.5-.49-6.87-.81a72.45,72.45,0,0,0-10.81-.72c-2.63.05-4.52,1.2-5.08,3.69s1.05,4.18,3.25,4.94c3.26,1.14,6.62,2,10,2.93,9.8,2.65,13.41,7.2,12.79,16.2-.45,6.63-6.77,12.41-14.68,13.65a40.56,40.56,0,0,1-19.83-2c-2.36-.82-3.65-1.71-3.26-4.43A47.67,47.67,0,0,0,428.83,317.21Z"/><path class="cls-2" d="M301.39,296.4c3.75,0,7.49.08,11.24,0,1.74-.05,2.32.5,2.24,2.25-.18,3.48,1.09,7.9-.59,10.19s-6.31.59-9.64.68c-4.71.13-9.43,0-14.14.07-1.86,0-2.61-.49-2.5-2.44a80,80,0,0,0,0-8.34c-.11-2,.7-2.46,2.52-2.4C294.14,296.47,297.76,296.4,301.39,296.4Z"/><path class="cls-3" d="M318.42,158.6q0,7.22-.07,14.42a170.33,170.33,0,0,1-25.65-5.54C302.61,167.56,310.67,163.54,318.42,158.6Z"/></g></g></svg>