<svg xmlns="http://www.w3.org/2000/svg" viewBox="0 0 463.72 463.72"><defs><style>.cls-1{fill:#3db54a;}</style></defs><title>Call-Support</title><g id="Layer_2" data-name="Layer 2"><g id="Layer_1-2" data-name="Layer 1"><path class="cls-1" d="M0,54.62A54.53,54.53,0,0,1,54.47,0H127.6a54.32,54.32,0,0,1,54.12,48.18,265.23,265.23,0,0,0,9.89,47.72,54.42,54.42,0,0,1-13.45,54.54l-29.63,29.63A341.68,341.68,0,0,0,283.64,315.19l29.64-29.63a54.39,54.39,0,0,1,54.54-13.45,266.12,266.12,0,0,0,47.72,9.9,54.31,54.31,0,0,1,48.18,54.1v73.14a54.54,54.54,0,0,1-59.62,54.24,443.69,443.69,0,0,1-150.59-41.34,447,447,0,0,1-124.17-87.76A446.76,446.76,0,0,1,41.57,210.21,443.69,443.69,0,0,1,.23,59.62C.07,58,0,56.28,0,54.62ZM157.8,112a18.86,18.86,0,0,0-.83-5.52,300.66,300.66,0,0,1-11.25-54.27,18.13,18.13,0,0,0-18.12-16H54.47A18,18,0,0,0,41,42.16a18.22,18.22,0,0,0-4.72,14.13c18.12,196.92,174.21,353,371.12,371.12a18.22,18.22,0,0,0,14.13-4.72,18,18,0,0,0,5.93-13.44V336.11a18.13,18.13,0,0,0-16-18.11,301.5,301.5,0,0,1-54.27-11.24,18.26,18.26,0,0,0-18.33,4.41l-48.24,48.25L279,353.62A377.63,377.63,0,0,1,110.11,184.73l-5.81-11.66,48.25-48.25A18.05,18.05,0,0,0,157.8,112Z"/></g></g></svg>