<svg xmlns="http://www.w3.org/2000/svg" viewBox="0 0 332.62 317.73"><defs><style>.cls-1{fill:#193733;}.cls-2{fill:#bad136;}</style></defs><title>check</title><g id="Layer_2" data-name="Layer 2"><g id="Layer_1-2" data-name="Layer 1"><path id="Path_332" data-name="Path 332" class="cls-1" d="M128.38,317.73H116.7A117.05,117.05,0,0,1,0,201V189.33A117,117,0,0,1,116.7,72.63h11.67a117.06,117.06,0,0,1,116.71,116.7V201A117.06,117.06,0,0,1,128.38,317.73Z"/><path id="Path_333" data-name="Path 333" class="cls-2" d="M40.85,166c5.83-23.34,29.17-35,46.68-23.34C99.2,148.49,105,160.16,116.7,166c5.84,5.83,5.84,11.67,11.67,17.5,11.67-17.5,23.34-29.17,35-46.68,23.34-23.34,46.68-52.53,70-75.87a709,709,0,0,1,81.7-58.36c5.84,0,11.67-5.83,17.51,0L315.11,20.1a1024.7,1024.7,0,0,0-140,175.07c-11.67,23.35-29.17,46.69-40.84,70-5.84,11.67-11.67,11.67-11.67,0A346.41,346.41,0,0,0,99.2,218.52c-5.83-11.67-11.67-29.17-23.34-40.84S52.52,160.16,40.85,166Z"/></g></g></svg>