<svg xmlns="http://www.w3.org/2000/svg" viewBox="0 0 295.32 315.36"><defs><style>.cls-1{fill:#3db54a;}</style></defs><title>client-notification</title><g id="Layer_2" data-name="Layer 2"><g id="Layer_1-2" data-name="Layer 1"><path class="cls-1" d="M273.71,212a32.09,32.09,0,0,0-16.12-20.31c-10.53-5.78-15.84-14.07-16.3-25.25-.19-5.68-.84-11.55-1.4-17.14-.19-1.58-.28-3.07-.47-4.65l-17.6-2.33c.28,2.79.56,5.49.84,8.2.84,9.5,1.67,18.44,3.26,27.48,1.86,11.27,8.29,20.12,18.54,25.61s14.72,13.42,14.06,25.06c-.56,11.27-6.42,17.05-17.42,17.05H67.18c-11.27,0-22.64,0-33.91-.09-8.76-.1-15.09-5.31-15.74-13.14-1-11.64-.65-20.49,13.13-28.32,12.21-7,19.19-18.16,20.59-33.25l1.4-15.37c2-22.27,4-44.44,6.33-66.52,3.26-30.46,28.51-58.87,58.79-66.14a83.58,83.58,0,0,1,37.53-.46l7.27-15.93C138.82.31,116,2.73,94.57,13.63,64.76,28.72,47.25,52.38,42.49,83.87c-3.26,22-5.12,44.53-6.89,66.33l-1.49,17.42c-.93,10.8-5.68,18.44-14.62,23.28a38.6,38.6,0,0,0-7.92,5.78C3.37,204.41-.26,214.47,0,228.26c.38,20.68,14.26,34.56,34.66,34.56h62.6l-.19,3.63c-.56,15.56,2.24,25.71,9.41,34,8.39,9.78,18.91,14.81,31.49,14.9h.37c10,0,19.1-3.63,27.11-10.9,9.78-8.85,14-20.87,13.23-37.91l-.19-3.73h63.07c10.8,0,19.65-3.91,26.27-11.74C276.22,241.12,278.09,228.73,273.71,212ZM151,294.12a22.74,22.74,0,0,1-25.34.65c-11.83-7.17-12.11-19.09-11.08-28.6l.37-3.07h45.74l.37,3C162.29,274.47,162.48,286.48,151,294.12Z"/><path class="cls-1" d="M295.32,52.57a53.84,53.84,0,0,1-14.44,35.68c-9.22,9.78-22.64,16.39-39.22,16.39-28.32,0-50.86-23.19-51.24-52.72a50.8,50.8,0,0,1,15.28-36.8C215.48,5.62,228.71,0,241.38,0h1.68c13.32-.47,26.27,4.84,36.33,14.72A52.87,52.87,0,0,1,295.32,52.57Z"/></g></g></svg>