<svg xmlns="http://www.w3.org/2000/svg" viewBox="0 0 270.6 340.67"><defs><style>.cls-1{fill:#3db54a;}.cls-2{fill:#231f20;}</style></defs><title>client-pendingpayment</title><g id="Layer_2" data-name="Layer 2"><g id="Layer_1-2" data-name="Layer 1"><path class="cls-1" d="M99.48,175.91A57.37,57.37,0,0,0,58.63,159h-.31A58.58,58.58,0,0,0,0,216.76a56.64,56.64,0,0,0,16.64,40.86,58.55,58.55,0,0,0,42.08,17.46,57.71,57.71,0,0,0,57.4-57.7A58.84,58.84,0,0,0,99.48,175.91ZM90,248.53A43.47,43.47,0,0,1,58.63,261.7h-.1c-24.62,0-44.84-19.81-45.14-44.22-.21-24.21,20.11-44.94,44.52-45.25h.51a43.67,43.67,0,0,1,31,12.77,44.12,44.12,0,0,1,13.38,31.66v.41A44.61,44.61,0,0,1,90,248.53Z"/><path class="cls-1" d="M232.36,130.56a12.76,12.76,0,0,1-8.48,4.19c-15.53.31-31.36.31-46.68.31L161,135H98.77c-6.23,0-8.68-1.33-9.5-5.52a6,6,0,0,1,.92-5.11c1.33-1.53,3.78-2.45,6.84-2.55,9.09-.1,18.28-.1,27.37-.1h31.15c22.47,0,44.94,0,67.41.2a14.35,14.35,0,0,1,9.09,3.37C232.76,126.07,233,129.75,232.36,130.56Z"/><path class="cls-1" d="M233,165.39c0,2.25-.41,3.78-1.43,4.8-1.33,1.43-3.88,2-7.46,2h-.2c-6.84,0-13.69-.1-20.53-.1-4.29,0-8.48.1-12.77.1H164.23c-11-.1-22.16-.1-33.29,0h-.21c-7,0-8.58-2.45-8.58-6.33-.1-2.24.41-3.88,1.43-4.9,1.43-1.43,3.89-2.14,7.56-2.14q46.43.15,92.84,0h.1C231.74,158.86,232.87,162.12,233,165.39Z"/><path class="cls-1" d="M233,202.67a6.87,6.87,0,0,1-1.53,5.11c-1.64,1.73-4.5,2.14-6.54,2.14-26.86.21-53.72.1-80.58,0-2.15,0-5.11-.41-6.85-2.14-1.12-1.13-1.53-2.66-1.53-4.8.1-3.88,1.64-6.34,8.58-6.34h.31c9.39.11,18.89,0,28.19,0H196.4c9.4,0,18.8.11,28.19-.1C231.54,196.54,232.76,199.4,233,202.67Z"/><path class="cls-1" d="M232.87,240.77c0,3.06-1,6.23-7.87,6.23H173.32q-14.55-.17-29.1,0H144c-6.94,0-8-3.38-8.07-6.23a6.46,6.46,0,0,1,1.53-5c1.64-1.74,4.6-2.14,6.64-2.14q40.29-.17,80.59,0c2,0,4.9.3,6.63,2C232.46,236.78,233,238.52,232.87,240.77Z"/><path class="cls-2" d="M270.45,287.24V134.34C270.66,180.41,270.66,230.45,270.45,287.24Z"/><path class="cls-1" d="M270.45,287.24l-.1,37.07a20.29,20.29,0,0,1-4,11.74c-2.35,3-4.4,4.4-6.34,4.6s-4.59-1.33-8-4.49c-1.23-1-2.35-2.15-3.58-3.17l-2.86-2.45L244,331.76c-12.87,9.91-13,9.91-24.92.21l-1.53-1.23L216,331.87c-13.68,9.7-13.68,9.7-24.61.41L190,331.05l-1.53.92c-1.53.92-3.07,2.14-4.6,3.27-2.86,2.24-5.92,4.49-8.37,4.49h-.1c-2.56,0-5.52-2-8.69-4.19-1.63-1.12-3.26-2.24-4.9-3.26l-1.53-.82-1.33,1c-12.56,9.29-12.56,9.29-23.59-.1L134,331.25l-1.53.92c-1.63.92-3.17,2.05-4.8,3.17-3,2.25-6,4.39-8.48,4.49h-.1c-2.45,0-5.51-2.14-8.58-4.39-1.63-1.12-3.27-2.25-4.9-3.16l-1.53-.82-1.33,1c-11.85,9.4-11.85,9.4-24.31-.72l-1.73-1.43-1.64,1.43a18.66,18.66,0,0,0-1.33,1.43A10.69,10.69,0,0,1,71.5,335L68,336.77c-2.65,1.43-5.92,3.17-7.55,2.65a12.05,12.05,0,0,1-9-11.64V323c0-8.37,0-16.75.1-25.12,0-1.94.41-4.7,1.94-6.23,1.13-1,2.35-1.54,4.8-1.54,3,.11,6.54,1,6.44,8v23.7l4.39-4.19c2.86-2.86,5.51-4.29,7.76-4.29H77c3.27,0,6.13,3.06,9.09,6.23l2.76,2.76,1.63,1.53,1.74-1.43c12.66-10.52,12.66-10.52,25.33-.31l1.63,1.33,1.64-1.33c11.74-10,11.74-10.11,24.92.1l1.73,1.33,3.07-2.86c10.52-9.6,10.52-9.6,22.36,1l1.43,1.23,1.64-1c1.53-.92,3-2.15,4.49-3.27,3-2.25,5.93-4.6,8.48-4.6s5.41,2.05,8.58,4.4c1.63,1.12,3.27,2.24,4.9,3.26l1.43.82,1.33-1c13-9.5,13-9.6,24.2.92l1.74,1.53,1.63-1.43c1.23-1,2.46-2.14,3.58-3.27,5.41-5.21,9-8.68,16.54-1.94l4.29,3.88V245.57c0-63.73-.1-127.47.11-191.2,0-1.32,0-2.65.1-4V13.52H93.15c-19.51,0-28.29,8.78-28.29,28.29V73c0,20.33,0,40.75-.21,61.08a15.6,15.6,0,0,1-3.37,9.09c-.81.81-4.69.92-5.61.3a12.23,12.23,0,0,1-4-7.76c-.3-15-.2-30.33-.2-45.24V63.87c0-8.47,0-16.85.1-25.22C51.79,15.77,67.21.35,89.78.24,147.69,0,208.46-.06,270.45,0v92c-.1,1.23-.1,2.45-.1,3.78l.1,38.4v.1C270.66,180.41,270.66,230.45,270.45,287.24Z"/><path class="cls-1" d="M102.24,92.27a6.59,6.59,0,1,1-6.54-6.64A6.58,6.58,0,0,1,102.24,92.27Z"/><path class="cls-1" d="M130.12,92.27a6.59,6.59,0,1,1-6.54-6.64A6.58,6.58,0,0,1,130.12,92.27Z"/><path class="cls-1" d="M158,92.27a6.59,6.59,0,1,1-6.53-6.64A6.58,6.58,0,0,1,158,92.27Z"/><path class="cls-1" d="M81.92,237.7a3.24,3.24,0,0,1-.92,2.35,3.33,3.33,0,0,1-4.6.1l-20.53-19.5a3.14,3.14,0,0,1-1-2.35V186a3.3,3.3,0,0,1,3.27-3.27A3.37,3.37,0,0,1,61.39,186v30.85l19.5,18.58A3.27,3.27,0,0,1,81.92,237.7Z"/></g></g></svg>