<svg xmlns="http://www.w3.org/2000/svg" viewBox="0 0 317.26 346.72"><defs><style>.cls-1{fill:#3db54a;}</style></defs><title>client-support</title><g id="Layer_2" data-name="Layer 2"><g id="Layer_1-2" data-name="Layer 1"><path class="cls-1" d="M220.9,86.42C210.62,93.33,199.16,96,187.45,97.9c-9,1.46-18,2.7-27,4.27a99.83,99.83,0,0,0-28.86,9.43,86.72,86.72,0,0,0-27.14,22.51c-2.49,3-6.54,3.37-9.16.76a6,6,0,0,1-.42-8.12c10.53-13,23.3-23.12,38.89-29.49a131.08,131.08,0,0,1,28.69-7.75c9-1.48,18.11-2.74,27.14-4.26a68.25,68.25,0,0,0,19.85-6.12A39.21,39.21,0,0,0,222.18,69,6.06,6.06,0,0,1,233,72.74c0,24.68.38,49.36-.13,74-.57,27.14-13,47.94-35.8,62.57-.37.23-.85.33-.62,1a57.49,57.49,0,0,0,8.47,17.29,4.73,4.73,0,0,0,4.33,2.12c6.28-.09,12.58-.16,18.85.2a78.85,78.85,0,0,1,35.21,10.9,100,100,0,0,1,33.6,32.18,121.7,121.7,0,0,1,19.23,52.53c.6,4.77.84,9.59,1.1,14.4.22,4.15-2.4,6.73-6.56,6.73H6.63c-4.23,0-6.73-2.57-6.63-6.79A128.27,128.27,0,0,1,9.77,293c7.56-18.08,18.66-33.55,34.31-45.53C56.47,238,70.35,232,85.93,230.25c4.11-.45,8.27-.42,12.42-.51,3.74-.08,7.49,0,11.23,0a1.91,1.91,0,0,0,1.63-.75c3.94-4.54,6.48-9.86,8.52-15.45.42-1.16,1.28-2.5,1-3.48s-1.82-1.38-2.81-2A74.11,74.11,0,0,1,92,178.68a6,6,0,0,1,1.79-7.78,6,6,0,0,1,7.72.61,7.82,7.82,0,0,1,1.41,2c6,11.69,14.51,21,26.2,27,18.4,9.42,37.32,10.3,56.1,1.34,19.64-9.37,31.15-25.2,34.93-46.59a58.35,58.35,0,0,0,.74-9.89c.07-19.23,0-38.45,0-57.68Zm-.59,248.18v-1.22q0-11.49,0-23a6.05,6.05,0,1,1,12.09-.19c0,7.73,0,15.45,0,23.18v1.19h72.52c0-.5,0-.93-.08-1.36-.24-2.23-.43-4.46-.73-6.68a111.22,111.22,0,0,0-15.28-43.79c-7.93-13-18.14-23.7-31.38-31.37A67.51,67.51,0,0,0,226.18,242c-6.51-.27-13.05-.31-19.56-.08A9.77,9.77,0,0,1,198,238l-.2-.22c-5.29-5.72-8.75-12.51-11.44-19.74-.36-1-.7-1.93-1.07-3a73.5,73.5,0,0,1-26.67,4.94A74.92,74.92,0,0,1,132,215.21c-.64,1.72-1.21,3.35-1.86,5-3,7.42-6.85,14.28-12.78,19.8a6.49,6.49,0,0,1-4.62,1.84c-5.82,0-11.64,0-17.46,0A69.1,69.1,0,0,0,62,250.19c-13.64,7.33-24.23,17.92-32.5,30.89A112,112,0,0,0,12.8,329.27c-.19,1.75-.32,3.5-.48,5.32H84.86v-1.23c0-7.69,0-15.38,0-23.07a6,6,0,1,1,12.08,0c0,7.69,0,15.38,0,23.07,0,.39,0,.78.06,1.19Z"/><path class="cls-1" d="M78.41,154.2a57.55,57.55,0,0,1,0,6.7,18.4,18.4,0,0,1-36.54-.56c-.08-.83-.12-1.67-.12-2.5q0-20.31,0-40.63A18.4,18.4,0,0,1,53.44,99.78a1.2,1.2,0,0,0,.86-1.25,104.55,104.55,0,0,1,57.07-87.21,102.92,102.92,0,0,1,54.85-11,104.71,104.71,0,0,1,90.17,67.23A103.39,103.39,0,0,1,263,98.57a1.21,1.21,0,0,0,.9,1.22,18.39,18.39,0,0,1,11.7,17.36q0,20.61,0,41.23a18.43,18.43,0,0,1-36.85.08q0-20.76,0-41.53a18.34,18.34,0,0,1,11.24-17,1.3,1.3,0,0,0,1-1.53c-1.84-24-11.41-44.42-28.81-61a89.19,89.19,0,0,0-47.18-23.87c-23.93-4.14-46.32.24-66.65,13.57C86.86,41.17,73.47,60.93,68.1,86c-.87,4.11-1.15,8.34-1.73,12.51a1.12,1.12,0,0,0,.83,1.41A18.35,18.35,0,0,1,78.57,117q0,10.62,0,21.26a1.43,1.43,0,0,0,.6,1.35c14.36,10.29,29.68,18.73,46.51,24.22,4,1.3,8.13,2.2,12.19,3.29a1.15,1.15,0,0,0,1.57-.67c2.69-4.86,6.84-7.69,12.4-8a116.94,116.94,0,0,1,13.63,0c7.8.5,13.47,6.33,14.15,14.13a15.27,15.27,0,0,1-13.31,16.73,31.64,31.64,0,0,1-3.9.12c-3.21,0-6.42.06-9.63,0a14.77,14.77,0,0,1-13.68-8.72,2.33,2.33,0,0,0-1.88-1.45A141.74,141.74,0,0,1,101.37,167a192.56,192.56,0,0,1-21.69-12.34l-.91-.58ZM66.5,137.7q0-10.23,0-20.46a6.36,6.36,0,1,0-12.7-.11q0,20.6,0,41.2a7.32,7.32,0,0,0,1,3.49,6.15,6.15,0,0,0,7.06,2.68,6.37,6.37,0,0,0,4.58-6.15Q66.52,148,66.5,137.7Zm197,0h0V121.92c0-1.84.07-3.69-.06-5.52a6.33,6.33,0,0,0-12.64.47q0,20.81,0,41.61a5.9,5.9,0,0,0,1.95,4.47,6.34,6.34,0,0,0,10.74-4.64C263.51,151.43,263.48,144.54,263.48,137.66Zm-104.8,39.71h5.51a3.11,3.11,0,0,0,3.37-3.27c.06-2.22-1.1-3.6-3.21-3.63-3.81-.05-7.61-.05-11.42,0-2.12,0-3.25,1.38-3.2,3.62a3.08,3.08,0,0,0,3.35,3.28Z"/></g></g></svg>