<svg xmlns="http://www.w3.org/2000/svg" viewBox="0 0 243.49 334.49"><defs><style>.cls-1{fill:#3db54a;}</style></defs><title>client-booked</title><g id="Layer_2" data-name="Layer 2"><g id="Layer_1-2" data-name="Layer 1"><path class="cls-1" d="M.28,174.64C.28,145.43.88,116.19,0,87c-.4-13.45,9.87-23,22.17-22.3,6.13.38,12.3.13,18.45,0,5.39-.07,5.26-.12,4.8-5.42C42.89,30.13,60.16,3.43,92.89.25c32-3.11,55.66,23.31,55.63,48.76,0,.31,0,.62,0,.92q.43,7.23.86,14.46l14.71.37c4.29.1,8.66-.29,12.87.37,11.16,1.74,17.16,8.94,17.44,20.23.06,2.46,0,4.92,0,7.38,0,32.3.14,64.6-.13,96.89,0,6.33,1.71,10.8,6.42,15.19,11,10.26,21.5,21.12,32.06,31.87,5,5.08,8.64,10.82,10,18.18,2.06,10.85-.53,20.32-7.85,28q-21,22-43,43.08c-13.53,13-35,10-45-1-7-7.72-14.7-14.88-22.14-22.23a20.21,20.21,0,0,1-6.15-11.06c-1-5.91-1.13-5.95-7.24-6q-23.07,0-46.14,0c-14.45,0-28.91,0-43.36,0-5,0-9.81-.77-13.88-4-5.39-4.23-7.95-9.56-7.89-16.7C.42,234.93.28,204.79.28,174.64Zm181.21-36.32c0-17.23.06-34.46,0-51.69,0-6.77-2.11-9-8.61-9.12-8-.18-16,0-24-.08-2.59,0-4,.91-4.43,3.53a16.44,16.44,0,0,1-1,2.57c-7.55,22.53-21.85,40.29-39.53,55.6-5,4.33-8,4.32-13,.28a117,117,0,0,1-9.68-8.52C67.51,117,56.45,101.23,50.49,82.38c-1.12-3.52-2.61-5.08-6.38-5-7.38.22-14.77-.06-22.15.11-6.66.14-8.8,2.11-9.71,8.55a46.21,46.21,0,0,0-.17,6.45q0,17.53,0,35.07,0,66,0,132C12.12,271.17,14,273,25.42,273q46.14,0,92.29,0a35,35,0,0,0,5.52-.09c1.41-.23,3.81-1,3.84-1.69a6.66,6.66,0,0,0-1.68-4.56C119,260,112.57,253.35,105.86,247c-7.62-7.17-7.56-20,0-27.18,8-7.6,18.73-7.83,27.18,0,2.48,2.29,4.74,4.83,7.26,7.09.78.71,2.84,1.41,3,1.2,3.14-4.53,10.07-4.28,12.25-10.3,1.86-5.13,7.29-6.92,11.24-10.12,3.64-3,4.66-9.92,9.8-11.31s4.91-4.51,4.91-8.23Q181.47,163.23,181.49,138.32ZM170,321.4c6.4.64,11.11-2.49,15.4-6.81,12.54-12.66,25-25.46,37.81-37.79,9.77-9.38,10.77-21.64-.3-32-11.47-10.68-22.25-22.09-33.35-33.16-1.3-1.3-2.5-2.86-4.07-3.68a4.19,4.19,0,0,0-3.85.3,3.93,3.93,0,0,0-.44,3.78c1,1.81,2.87,3.15,4.26,4.79a38.28,38.28,0,0,1,3.84,5.06c1.75,2.92.19,5.33-1.85,7.28a5.12,5.12,0,0,1-6.78.53,50.55,50.55,0,0,1-5.46-4.91c-4-3.72-6.28-4.55-7.63-2.49-2.16,3.3.89,4.92,2.63,6.87,1.43,1.6,3.08,3,4.47,4.64a6.12,6.12,0,0,1,.5,7.69c-1.73,2.69-4.75,2.93-7.44,2-1.9-.68-3.5-2.33-5.13-3.67-1.9-1.55-3.54-3.45-5.6-4.7-.57-.34-3.18,1.08-3.19,1.74a8.34,8.34,0,0,0,1.47,4.91c1.63,2.2,3.93,3.89,5.67,6,2.57,3.17,2.41,5.48-.13,8.18s-4.87,3-8.2.73a38.84,38.84,0,0,1-5.53-4.82c-7.42-7.35-14.72-14.83-22.22-22.11-3.6-3.48-7.07-3.76-9.75-1.34-2.91,2.64-2.8,6.86.53,10.6,2.24,2.53,4.74,4.82,7.13,7.21,10.87,10.87,21.79,21.69,32.55,32.66,3.14,3.19,3.09,7.49.45,9.76-2.34,2-6,1.67-9.13-1-2.31-2-4.34-4.37-6.7-6.32a3.66,3.66,0,0,0-3.24-.51c-5.81,3.08-6.94,8.91-2.4,13.66,7,7.33,14.22,14.47,21.53,21.5C159.66,319.7,164.3,322,170,321.4ZM57.9,54.84a58,58,0,0,0,.39,5.9c3.7,25.7,16.44,46.49,35.11,64,3.78,3.53,4.17,3.55,8.26-.41,11.57-11.21,21.26-23.86,27.52-38.79,5.5-13.1,8.49-26.67,6.18-41.08-2.67-16.58-17.93-30.33-34.9-31.56C76.3,11.14,57.65,30.11,57.9,54.84Z"/><path class="cls-1" d="M70.82,181.64c0,5.82.09,11.65,0,17.48-.14,6.54-1.17,7.77-7.3,7.87q-15.16.25-30.35,0c-5.59-.1-6.86-1.47-6.91-7.27q-.18-17.94,0-35.88c.07-6.23,1.24-7.33,7.7-7.42q14.73-.19,29.44,0c6.24.09,7.27,1.25,7.42,7.73C70.92,170,70.82,175.81,70.82,181.64Zm-12.71.6c-.45-16.92,3.28-13.69-14.86-14.11-3.14-.08-4.47,1.19-4.43,4.3.08,5.54,0,11.08,0,16.61.09,6.06.16,6.06,6.11,6.22C58.11,195.62,58.11,195.62,58.11,182.24Z"/><path class="cls-1" d="M47.74,227c-4.62,0-9.24.11-13.85,0-5.52-.16-7.39-1.68-7.66-5.83-.28-4.34,2.13-6.73,7.71-6.93,6.46-.23,12.92-.06,19.39-.05,3.69,0,7.4-.22,11.07.11,3.93.35,6.35,3.09,6.39,6.54,0,3.75-2,5.95-6.44,6.12C58.82,227.12,53.28,227,47.74,227Z"/><path class="cls-1" d="M48.9,234.13c5.22,0,10.45-.15,15.66.05,4.16.16,5.92,1.86,6.21,5.28A6.36,6.36,0,0,1,66,246.37a16.71,16.71,0,0,1-4.54.4q-12.89.06-25.79,0a17.15,17.15,0,0,1-4.54-.38,6.27,6.27,0,0,1-4.86-6.86c.25-3.46,2-5.2,6.1-5.34C37.85,234,43.38,234.14,48.9,234.13Z"/><path class="cls-1" d="M78,52.3c-.72-11.16,10.13-19.71,18.8-19.73,8.49,0,19.2,7,19.87,19,.58,10.29-9.43,20-20,19.88C86.75,71.27,78.12,62.42,78,52.3Zm25.83,0a6.82,6.82,0,0,0-6-6.7c-3.83-.29-6.65,1.93-7,5.47s2.82,7.42,6.26,7.54C99.94,58.74,103.63,55.27,103.82,52.33Z"/></g></g></svg>