<svg xmlns="http://www.w3.org/2000/svg" viewBox="0 0 203.84 356.79"><defs><style>.cls-1{fill:#3db54a;}</style></defs><title>client-resale</title><g id="Layer_2" data-name="Layer 2"><g id="Layer_1-2" data-name="Layer 1"><path class="cls-1" d="M56,73a54,54,0,0,1-4.7-27.23C53.5,21.65,73.91,1.51,97.79.1c26.14-1.55,48.7,15.11,53.86,39.73a48.86,48.86,0,0,1-2.49,29.63c-1.27,3-.53,4.39,1.8,6.23,16.31,12.9,32.46,26,48.77,38.87a9.72,9.72,0,0,1,4.11,8.43q-.12,112.71-.06,225.41c0,6.7-1.68,8.39-8.31,8.39H8.33c-6.43,0-8.21-1.73-8.22-8.12Q.08,236,0,123.26a10.15,10.15,0,0,1,4.25-8.77C20.57,101.61,36.76,88.57,53,75.57,54,74.79,54.92,74,56,73Zm46.06-20.48c-.73.49-1.17.74-1.56,1Q57.48,88,14.51,122.5a6.43,6.43,0,0,0-2,4.46q-.17,106.61-.19,213.21c0,3.59,1.12,4.43,4.56,4.43q85.17-.18,170.34-.07c3.28,0,4.36-.74,4.35-4.21q-.15-106.41,0-212.83a6.6,6.6,0,0,0-2.84-5.76c-12-9.48-23.93-19.09-35.89-28.65-3.86-3.08-7.74-6.15-12.27-9.75a33.42,33.42,0,0,1-2.66,3.51,49.84,49.84,0,0,1-23.31,13.28c-6.2,1.6-6.21,1.56-6.46,7.79-.15,4-2.45,6.38-6.07,6.41a5.8,5.8,0,0,1-6.15-6q-.24-13,0-26c.07-3.65,2.75-5.85,6.28-5.76s5.75,2.39,5.91,6.15c.08,1.85,0,3.7,0,5.9,9.55-1.56,16.72-5.92,23.07-12.83ZM66.55,64.62c1.13-.86,2.23-1.67,3.29-2.52q13.3-10.62,26.58-21.26c4.47-3.57,6.58-3.57,11.13.06q13.31,10.6,26.58,21.25c1.06.85,2.17,1.64,3.32,2.5,6.9-14.29,1.53-33.71-12-44.19a38.2,38.2,0,0,0-48.35,1C64.56,32.1,59.64,51.66,66.55,64.62Z"/><path class="cls-1" d="M102.07,305.89a76.49,76.49,0,0,1-76.53-75.95c-.15-42.2,33.76-76.69,75.53-76.81,42.84-.13,77.16,33.53,77.29,75.81A76.43,76.43,0,0,1,102.07,305.89Zm63.78-76.33a63.9,63.9,0,1,0-64.12,63.83A64,64,0,0,0,165.85,229.56Z"/><path class="cls-1" d="M76.71,251.05c-.08-5.67,2-8.31,5.58-8.64S88.44,244.48,89,249c.94,7.69,6.3,12.63,13.43,12.4a12.87,12.87,0,0,0,1.65-25.56c-2.38-.38-4.84-.32-7.2-.79C86,232.9,77.76,223.89,76.78,213.28,75.69,201.5,81.6,191.2,92.29,187c2.73-1.09,3.85-2.41,3.51-5.27a14,14,0,0,1,.16-4.57c.72-3.34,3-5,6.36-4.8s5.91,2.06,5.54,5.13c-.75,6.24,2.18,8.79,7.35,11.49,7.84,4.1,11.71,11.47,12,20.44.14,4.25-2.12,6.89-5.79,7.1s-6-2.19-6.52-6.45c-.9-7.49-5.74-12.38-12.49-12.61a12.87,12.87,0,0,0-2,25.65,65.27,65.27,0,0,1,7.94,1c10.43,2.63,18.14,11.79,18.81,22.1.77,11.63-5,21.59-15.4,25.64-3.18,1.24-4.05,2.89-3.7,5.9a15.13,15.13,0,0,1,0,3.43c-.38,3.46-2.53,5.2-5.82,5.5-3,.28-6.53-2-6.14-5,.88-6.66-2.59-9.19-7.87-12C80.67,265.61,77.18,258.3,76.71,251.05Z"/></g></g></svg>