<svg xmlns="http://www.w3.org/2000/svg" viewBox="0 0 291.63 291.6"><defs><style>.cls-1{fill:#3db54a;}</style></defs><title>client-settings</title><g id="Layer_2" data-name="Layer 2"><g id="Layer_1-2" data-name="Layer 1"><path class="cls-1" d="M277.22,116l-5.44-.94c-3.34-.53-6.8-1-10.14-1.89s-6-4.28-6.7-5.33c-7.63-11.19-6.38-22.07,3.87-32.53,1.78-1.78,2.83-4.5,4.08-7.64.53-1.36,1.05-2.61,1.68-4-.63-1.15-1.15-2.3-1.68-3.45-1.57-3.14-2.93-6.18-4.91-8.48-4.29-5-9.31-9.83-14.13-14.43L240.4,34c-6.9-6.69-14.54-7.32-22.7-2l-1,.63a35.74,35.74,0,0,0-4.29,3.14c-8.06,7.84-15.9,8.79-24.06,2.82a6.58,6.58,0,0,0-1.88-.73,12.4,12.4,0,0,1-3.56-1.36c-1.78-1.25-4.18-3.35-4.81-5.86-.84-3.66-1.46-7.32-2.09-11.08-.32-1.78-.63-3.67-.94-5.44C173.46,6.08,167.39.54,159.75.22c-9.62-.31-19.35-.31-29,.11-7.32.21-13.29,5.23-15,12.86a45.47,45.47,0,0,0-1.36,7.54C114,28.26,112.05,38.4,99,40.6a2.79,2.79,0,0,0-1.26.63,7.39,7.39,0,0,1-3.34,1.25c-2.41.21-5.55.32-7.85-1.15-2.51-1.57-5-3.35-7.43-5.12-2-1.47-3.87-2.83-5.85-4.08-7.53-5-15.38-4.4-21.86,1.88s-12.56,12.24-18.2,18.2C27,58.59,26.28,66.54,31.2,74c1.36,2.09,2.72,4.08,4.18,6.07,1.88,2.51,3.66,5,5.34,7.74a10.4,10.4,0,0,1,1.15,8c-.42,1.15-.73,2.4-1,3.66-1.36,4.7-2.82,9.62-6.38,12.55-3.35,2.61-8.06,3.14-12.45,3.66a40,40,0,0,0-5.12.63l-1.68.31c-.52.11-1,.11-1.46.21-7.95,1.67-13.29,8-13.5,15.69-.31,9.63-.31,19.14,0,28.35a15.29,15.29,0,0,0,11.09,14.43,35.22,35.22,0,0,0,9.31,2c8.16.53,17.89,2.72,19.88,15.48a3,3,0,0,0,.63,1.15,7.6,7.6,0,0,1,1.25,3.35c.31,2.62.42,5.54-.94,7.85-1.57,2.61-3.45,5-5.23,7.53-1.47,2-3,4.08-4.4,6.17-4.49,7.11-4,14.85,1.47,20.61,6.69,7.21,13.49,13.91,20.08,20.08C59,264.56,67,265,73.67,260.58l1.36-.84A43.49,43.49,0,0,0,80.36,256c3.35-3.14,7.85-6.59,13.39-6.59,2.93,0,6.17,1,9.73,3.55.1.21.73.32,1.25.42a9.94,9.94,0,0,1,3.25,1.47c2.19,1.88,4.39,3.87,5.12,6.59.84,3.24,1.47,6.59,2,9.93.31,2,.63,4,1,6.07,1.78,8.79,7.85,13.91,16.74,14q12.87.31,25.73,0c8.89-.11,15.07-5.13,16.84-13.91.74-3.35,1.26-6.59,1.89-9.94.31-2.2.73-4.29,1-6.38.74-3.77,7.22-7.32,11.09-9.1s10.57-4.5,13.81-2.62c.63.42,1.15.84,1.78,1.26l4.08,2.93c2.72,2,5.54,4,8.36,6,7.95,5.33,15.8,4.71,22.7-2,6.49-6.17,12.35-12,17.79-17.78,6.27-6.59,7-14.12,2.09-21.86a42,42,0,0,0-4.4-6.17c-7.63-8.16-8.47-15.9-2.61-23.64a3.45,3.45,0,0,0,.42-1.26,9.41,9.41,0,0,1,1.46-3.35c1.78-2.19,3.87-4.39,6.49-5.12,3.35-.84,6.69-1.47,10-2,2.09-.31,4.29-.73,6.49-1.15,8.57-1.88,13.49-7.74,13.59-16.53.11-8.58.11-17.26,0-25.84C291.45,123.65,286.43,117.8,277.22,116Zm.11,22.59c.1,6.07.1,12-.11,18-.1,2.82-3.66,4.91-5.54,5.33-6.28,1.26-13,2.3-19.88,3.24-4.81.63-7.32,2.83-8.89,7.64a176.76,176.76,0,0,1-9.1,22.17c-2.4,4.71-2.19,7.95.63,11.72,3.24,4.39,6.49,9,9.62,13.49l5.34,7.64-21.86,21.34L220.21,244c-4.49-3.14-9-6.28-13.49-9.62-3.66-2.83-6.9-2.93-11.71-.63a163,163,0,0,1-22.08,9.1c-4.81,1.67-7,4.08-7.63,8.47-.84,5.55-1.68,11.19-2.62,16.84L161.22,277H130.57l-.31-2.09c-.42-2.3-.84-4.6-1.26-6.8-.84-5.23-1.78-10.56-2.4-15.9s-3.14-8-8.69-9.62a114.13,114.13,0,0,1-20.29-8.37c-4.92-2.51-8.26-2.41-12.13.63-4.4,3.35-8.9,6.48-13.29,9.52-2,1.36-3.87,2.61-5.75,4l-1.88,1.26L43,228.05l5.12-7.32c3-4.29,6.07-8.69,9.31-13,3-3.87,3.24-7.33.84-12.24a188.08,188.08,0,0,1-9.41-22.6c-1.57-4.08-3.67-6.06-7.43-6.69L25.13,163.4l-10.46-1.77V131.29l8.89-1.57c5.65-1,11.3-2.09,17.05-2.82,4.18-.63,6.49-2.72,8.06-7.22A183,183,0,0,1,57.87,97c2.2-4.6,2-7.74-.73-11.3-3.35-4.49-6.49-9-9.63-13.49l-5.23-7.43L64.15,43.22l7.11,5c4.18,2.93,8.58,6,12.87,9.2,3.87,2.93,7.32,3.14,12.23.73A204,204,0,0,1,119,48.76c4.08-1.57,6.07-3.66,6.69-7.43.95-6,2-12,3-18.2l1.46-8.47H160.7l1.46,8.89c.94,5.54,2,11.09,2.72,16.63.63,4.5,2.72,6.8,7.43,8.37a146.18,146.18,0,0,1,22.28,9.1c5.33,2.72,9.1,2.41,13.49-1,4-3.24,8.27-6.17,12.45-9.1,1.88-1.25,3.66-2.61,5.54-3.87L228,42.27l21.24,21.87-5,7.11c-2.93,4.39-6.07,8.79-9.31,13.07-3.14,4.08-3.45,7.64-.84,12.56a152.72,152.72,0,0,1,9,21.75c1.57,4.92,4,7.12,8.68,7.74,5.23.74,10.46,1.57,15.9,2.52l9.73,1.56Z"/><path class="cls-1" d="M190.09,102A61.48,61.48,0,0,0,146,83.49h-.11A62.54,62.54,0,0,0,83.5,145.41a62.65,62.65,0,0,0,62.24,62.76H146a62.48,62.48,0,0,0,62.24-62A61.43,61.43,0,0,0,190.09,102ZM146,193.74h-.11a48.22,48.22,0,0,1-48-47.7,48.58,48.58,0,0,1,47.91-48.33h.31C172.1,97.92,194,120,194,145.83A48.27,48.27,0,0,1,146,193.74Z"/></g></g></svg>