<svg xmlns="http://www.w3.org/2000/svg" viewBox="0 0 264.88 341.76"><defs><style>.cls-1{fill:#3db54a;}</style></defs><title>client-myplots</title><g id="Layer_2" data-name="Layer 2"><g id="Layer_1-2" data-name="Layer 1"><path class="cls-1" d="M147.5,0c.84,2.59,3.36,2,5.14,2.5,33.25,9.88,53.58,31.55,59.35,65.93,2.75,16.34-1,32.18-6.39,47.58-10.13,29-25.68,55.12-42.71,80.44q-13,19.35-27.8,37.4c-1.67,2-2.9,3-5,.36C102,199,76.81,162,60.56,119.54c-4.62-12.05-8-24.47-8.33-37.51-1-37.43,22.91-69.5,59.08-79.31,2.08-.57,4.88,0,6-2.72ZM72.15,81.65c.17,9.78,3.5,21.68,8,33.28,12.15,31.26,30.29,59.08,49.7,86.17,2.39,3.34,3.68,2,5.45-.46,12.3-17.06,24-34.52,34-53,10.31-19.09,19.73-38.56,22.77-60.41,4.79-34.42-20.64-64.51-56.66-67C101.92,17.81,72.15,45.42,72.15,81.65Z"/><path class="cls-1" d="M132.45,341.76H6.26c-6.94,0-6.94,0-5.5-6.74q15.95-74.32,31.8-148.65c.87-4.11,2.33-5.75,6.73-5.6,9.56.34,19.15.19,28.72.07,3,0,4.31.91,4.16,4-.18,3.91-.2,7.85,0,11.76.18,3.42-1.43,4.36-4.5,4.27-4.24-.12-8.48.11-12.72,0-3.31-.13-5,.87-5.8,4.45Q37.4,261,25.3,316.69c-.9,4.14,1,4.82,4.46,4.8,18.2-.07,36.41,0,54.62,0h148.8c7.27,0,7.31,0,5.82-7-7.66-35.9-15.43-71.78-22.9-107.72-1-4.72-3-6.27-7.57-5.9-3.9.32-7.85-.05-11.77.07-3.06.1-4.34-1.22-4-4.21,0-.15,0-.31,0-.47.27-4.83-2-10.92.92-14.15s9.2-1,14-1.14c6.11-.23,12.26.21,18.36-.14,4-.23,5.4,1.35,6.19,5.08,6.51,31,13.19,62,19.83,93q6.07,28.31,12.16,56.6c1.34,6.27,1.31,6.31-5.06,6.31Z"/><path class="cls-1" d="M132.34,110.4a30.09,30.09,0,1,1,30.22-29.69A30.1,30.1,0,0,1,132.34,110.4Zm-.1-39.86a9.85,9.85,0,0,0-9.77,9.92,10,10,0,1,0,19.9-.37A9.83,9.83,0,0,0,132.24,70.54Z"/></g></g></svg>