<svg xmlns="http://www.w3.org/2000/svg" viewBox="0 0 635.36 598.25"><defs><style>.cls-1{fill:#3db54a;}.cls-2{fill:#0a1f36;}</style></defs><title>Consultancy</title><g id="Layer_2" data-name="Layer 2"><g id="Layer_1-2" data-name="Layer 1"><path class="cls-1" d="M444.25,344.86c9.56-10.12,18.91-20.46,28.74-30.33,17-17,34.29-33.76,51.34-50.73a19,19,0,0,1,14.23-5.88c13.62.08,27.25.06,40.87,0,15.23-.05,24.81-9.57,24.83-24.91.06-49,0-98,.12-147,0-4.33-1.36-5.22-5.38-5.22q-164.83.15-329.66,0c-3.9,0-5.15.91-5,5,.32,9.32.1,18.66.1,28.43A200.31,200.31,0,0,0,236,108.19c-1.69-.2-2.94-.59-2.91-2.84.21-18.93-.94-38,.73-56.76C236.39,19.9,259.8,0,288.67,0Q434.13,0,579.58,0c14,0,26.47,4.16,37,13.42,11.91,10.46,18.56,23.69,18.6,39.58q.27,91.56,0,183.14c-.09,28.7-24.23,52.62-52.91,53-11,.14-21.95.29-32.91-.07-4.68-.15-7.84,1.48-11.06,4.66q-49.41,48.91-99,97.64c-2.95,2.91-6,5.45-10.28,6.13A15.37,15.37,0,0,1,411,382.65c-.3-6.54-.09-13.1-.09-19.64,0-22.83-.14-45.66.12-68.48.05-4.58-1.36-5.51-5.65-5.46-20.52.22-41.05,0-61.57.18-4.11,0-5.07-.63-3.95-4.93a227,227,0,0,0,4.39-22.89c.41-2.66,1.2-3.55,3.89-3.54,25.84.08,51.67-.08,77.51.11,10.29.08,16.33,6.58,16.36,16.88.05,20.53,0,41.05,0,61.58v6.76ZM360,59.42c10.29-.12,18.61-9.15,18.45-20a18,18,0,0,0-18.43-18c-10.2,0-18.3,8.59-18.3,19.39C341.68,51.43,349.63,59.53,360,59.42Zm-76.8,0c9.76,0,18.7-8.58,18.77-18,.07-10-8.82-19.32-18.65-19.51s-18.93,8.84-18.83,19A18.81,18.81,0,0,0,283.16,59.42Zm171-18.3c-.08-10.17-9-19.25-18.83-19.18s-18.62,9-18.64,18.8c0,10.13,8.95,18.89,19.15,18.69C445.75,59.24,454.28,50.72,454.2,41.12Z"/><path class="cls-2" d="M212.5,489.59c14.12-20,28.11-39.09,41.32-58.71,12-17.85,27.35-24.5,47.87-17.55,22.89,7.75,45.33,16.86,68,25.31,9.61,3.58,19.33,6.86,27.93,12.65,17.6,11.85,27.8,27.6,27.07,49.64-.59,17.84,1.37,35.8-.77,53.54-2.48,20.54-12.84,35.66-33.56,42a40.39,40.39,0,0,1-12,1.66q-165.33,0-330.66.07c-24.16,0-45.6-17.38-47.07-48-.88-18.36-.6-36.8-.19-55.19s10.34-31.78,24.76-42.28c9.56-7,20.68-10.61,31.58-14.72q29.51-11.12,59-22.23c7.8-2.93,16-4.58,24.06-6.34,5.65-1.23,10.75,1.38,15.46,4.33,5,3.14,8.81,7.57,12.21,12.37C182.28,447.11,197.15,468,212.5,489.59Z"/><path class="cls-2" d="M314.05,243.7c-.6,24.76-7.71,51.74-19.53,77.61a123.47,123.47,0,0,1-34.59,44.41c-28.55,23.45-70.76,21.83-98.44-2.82-23.58-21-36-48.07-44.13-77.68-5.66-20.64-8.36-41.81-6.19-63.06,3.28-32.13,20.59-54.91,50.31-67.38,32.21-13.52,65.18-14,97.82-1.7C297.34,167.37,316.06,197.65,314.05,243.7Z"/></g></g></svg>