<svg xmlns="http://www.w3.org/2000/svg" viewBox="0 0 275.53 275.53"><defs><style>.cls-1{fill:#0e8241;}.cls-2{fill:#fff;}</style></defs><title>copy-link</title><g id="Layer_2" data-name="Layer 2"><g id="Layer_1-2" data-name="Layer 1"><rect class="cls-1" width="275.53" height="275.53" rx="17.66"/><path class="cls-2" d="M103.44,100.4V92.07q0-11,0-22c0-3.68,1.66-5.39,5.27-5.39h93.35c4.38,0,5.8,1.41,5.8,5.78V163c0,4.3-1.49,5.78-5.84,5.78q-13.84,0-27.7,0h-2.22v4.53q0,12.9,0,25.79c0,3.68-1.66,5.38-5.3,5.38H73.45c-4.37,0-5.76-1.45-5.76-5.83q0-46.46,0-92.92c0-3.76,1.65-5.36,5.48-5.36l28.45,0Zm59.5,95.12V109.41H76.77v86.11Zm-50.4-95.13h54.08c3.9,0,5.48,1.62,5.48,5.56v53.8h26.66v-86H112.54Z"/><path class="cls-2" d="M127.54,206.44l-54.09,0c-5.4,0-7.7-2.32-7.7-7.76V105.75a7.31,7.31,0,0,1,1.84-5.44,7.1,7.1,0,0,1,5.58-1.86H101.5V70.07a6.54,6.54,0,0,1,7.21-7.33h93.35c5.42,0,7.73,2.31,7.74,7.72V163c0,5.41-2.32,7.72-7.76,7.72H174v28.38c0,4.79-2.51,7.32-7.24,7.32ZM73.14,102.32a4.08,4.08,0,0,0-2.82.73,3.85,3.85,0,0,0-.7,2.69v92.92c0,3.34.54,3.89,3.82,3.89h93.34c2.54,0,3.36-.83,3.36-3.44V166.86H202c3.28,0,3.9-.61,3.9-3.84V70.47c0-3.3-.55-3.84-3.86-3.84H108.7a3.65,3.65,0,0,0-2.59.72,3.78,3.78,0,0,0-.74,2.73v32.27l-32.23,0Zm91.74,95.14h-90v-90h90Zm-86.17-3.88H161V111.35H78.71Zm122-31.88H170.16V106c0-2.88-.73-3.62-3.54-3.62l-56,0V71.77h90.1ZM174,157.82h22.78V75.65H114.47v22.8h52.15c5,0,7.42,2.46,7.42,7.5Z"/></g></g></svg>