<svg xmlns="http://www.w3.org/2000/svg" viewBox="0 0 275.53 275.53"><defs><style>.cls-1{fill:#0e8241;}.cls-2{fill:#fff;}</style></defs><title>facebook</title><g id="Layer_2" data-name="Layer 2"><g id="Layer_1-2" data-name="Layer 1"><rect class="cls-1" width="275.53" height="275.53" rx="17.66"/><path class="cls-2" d="M158.7,62.69c4.26,0,8.54.23,12.79.42,2.77.11,5.54.51,8.14.79l-.19,25.64h-2l-8.44,0c-2.11,0-4.22,0-6.33.09-6.8.22-11.8,2.77-12.14,11.26-.22,6.11-.38,19.61-.38,20.32l13.82,0c3.38,0,6.68,0,9,0h5.49c-1.37,9.85-2.63,19.3-4,28.81H150.11l-.55,71.93H119.74l.55-72H95.89l.22-28.63h24.51v-2.15c.05-5.78,0-11.55.19-17.32a72.55,72.55,0,0,1,.94-11c1.65-8.78,5.72-16.13,13.06-21.4,6.43-4.58,13.75-6.51,21.5-6.68Z"/></g></g></svg>