<svg xmlns="http://www.w3.org/2000/svg" viewBox="0 0 1749.01 1778.04"><defs><style>.cls-1{isolation:isolate;}.cls-2,.cls-26{fill:#dadeea;}.cls-18,.cls-2,.cls-20,.cls-25,.cls-3{opacity:0.36;mix-blend-mode:multiply;}.cls-3{fill:#83bae5;}.cls-4{fill:#4dbd97;}.cls-13,.cls-15,.cls-5,.cls-7,.cls-8,.cls-9{fill:none;stroke-linecap:round;}.cls-5{stroke:#4dbd97;stroke-width:2.01px;}.cls-5,.cls-7,.cls-8,.cls-9{stroke-miterlimit:10;}.cls-6{fill:#36a871;}.cls-7,.cls-8{stroke:#fff;}.cls-7{stroke-width:0.79px;}.cls-8{stroke-width:0.72px;}.cls-9{stroke:#36a871;stroke-width:1.38px;}.cls-10{fill:#276144;}.cls-11{fill:#38b778;}.cls-12{fill:#0b1a30;}.cls-13{stroke:#83bae5;stroke-width:0.85px;}.cls-13,.cls-15{stroke-linejoin:round;}.cls-14{fill:#f3a585;}.cls-15{stroke:#df8c67;stroke-width:0.57px;}.cls-16{fill:#242a2d;}.cls-17,.cls-18{fill:#f05759;}.cls-19,.cls-20{fill:#111c45;}.cls-21{fill:#df8c67;}.cls-22{fill:#e6744c;}.cls-23{fill:#fff;}.cls-24,.cls-25{fill:#1c85c1;}</style></defs><title>FAQs</title><g class="cls-1"><g id="Layer_2" data-name="Layer 2"><g id="Layer_1-2" data-name="Layer 1"><circle class="cls-2" cx="727.26" cy="617.3" r="617.3"/><ellipse class="cls-3" cx="899.17" cy="1721.41" rx="849.84" ry="56.63"/><path class="cls-4" d="M638.88,1174.79s-2.39-49-71.7-75.08C567.18,1099.71,577.91,1165.86,638.88,1174.79Z"/><path class="cls-4" d="M633.37,1261.42s-7.2-63.22-99.12-91.17C534.25,1170.25,553.7,1255,633.37,1261.42Z"/><path class="cls-4" d="M656.35,1386.71s-10.45-73.3-118.29-102.81C538.06,1283.9,563.45,1381.84,656.35,1386.71Z"/><path class="cls-4" d="M731.65,1518.09S690.78,1438.9,556.52,1448C556.52,1448,624.12,1549.29,731.65,1518.09Z"/><path class="cls-4" d="M638.78,1175.72s9.48-48.12,81.86-63.85C720.64,1111.87,700.4,1175.76,638.78,1175.72Z"/><path class="cls-4" d="M631.62,1262.22s16.32-61.49,111.33-75.77C743,1186.45,711.38,1267.46,631.62,1262.22Z"/><path class="cls-4" d="M654.61,1386.15s-9.21-73.47,87.07-130.31C741.68,1255.84,743,1357,654.61,1386.15Z"/><path class="cls-4" d="M725.73,1518.91s-35.94-81.55,55.49-180.29C781.22,1338.62,817.56,1454.85,725.73,1518.91Z"/><path class="cls-5" d="M639.89,1173.29s-67.82,282.45,242.62,484.26"/><path class="cls-4" d="M1151.35,1265.42s9.15-48.19,81.4-64.44C1232.75,1201,1213,1265,1151.35,1265.42Z"/><path class="cls-4" d="M1143.07,1352.79s15.88-61.62,110.78-76.57C1253.85,1276.22,1222.87,1357.45,1143.07,1352.79Z"/><path class="cls-4" d="M1105.53,1470.82s38.15-63.46,149-48.66C1254.5,1422.16,1193,1502.49,1105.53,1470.82Z"/><path class="cls-4" d="M1015.91,1592.59s64.73-61.26,188.45-8.33C1204.36,1584.26,1107.11,1657.55,1015.91,1592.59Z"/><path class="cls-4" d="M1151.32,1266.35s-2.73-49-72.23-74.56C1079.09,1191.79,1090.29,1257.86,1151.32,1266.35Z"/><path class="cls-4" d="M1143.1,1352.55s-7.66-63.17-99.77-90.46C1043.33,1262.09,1063.38,1346.69,1143.1,1352.55Z"/><path class="cls-4" d="M1106.52,1472.57s19.29-71.49-68.2-141.11C1038.32,1331.46,1023.06,1431.47,1106.52,1472.57Z"/><path class="cls-4" d="M1017.71,1594.2s46.89-75.79-30-186.23C987.71,1408,935.63,1518.05,1017.71,1594.2Z"/><path class="cls-5" d="M1150.56,1263.79s9.93,237.3-175.87,362.34"/><path class="cls-6" d="M261.93,1721.42c21-45.45,58.29-178.81.78-206.7-36.06-17.49-46.65,12.46-46.65,12.46S242.12,1381.3,180.34,1381c-36-.19-42.09,41.16-42.09,41.16s-19.57-45.61-43.54-58.87c-52.07-28.82-114.06,1-66,82.47,13,22.1,31.11,38,31.11,38S5.51,1463.31.2,1502.13s97.59,100.49,97.59,100.49-30.79,1.17-32,36.75c-1.64,48.07,97.59,82.05,97.59,82.05Z"/><path class="cls-7" d="M65.45,1398.81c67.49,99,123,128.37,168.08,312.66"/><path class="cls-4" d="M307.71,1721.42c-2.22-67.57,97.52-208,37.11-242-37.89-21.35-48.58,17.24-48.58,17.24s85.34-144.61,3.69-154.3c-28.45-3.38-45,38.21-45,38.21s-.68-74.46-23.47-102.35c-37.18-45.5-115-20.07-96.63,78,10.07,53.8,47,75.09,47,75.09s-37.38-28.53-55.21,8.93c-23.9,50.2,56.21,115,56.21,115s-35.84-26.55-59.53,16.88c-32,58.67,89.69,149.24,89.69,149.24Z"/><path class="cls-7" d="M199.73,1332.23c45.69,116,69.5,243.3,79.36,377.78"/><path class="cls-6" d="M1507.63,1721.42c14.84-54.87-56.71-163-1.13-190.61,34.85-17.33,53.58.4,53.58.4s-41-109,27.07-116.83c23.73-2.74,30.93,18.41,30.93,18.41s9.43-32.27,34.88-52.52c48.24-38.38,111.12-24.15,77.29,55.5-18.56,43.68-33.21,50.09-33.21,50.09s33.54-6.5,40.77,23.92c9.69,40.76-70.62,109-70.62,109s28.86,2.72,32.66,24.31c8.41,47.74-92.82,78.35-92.82,78.35Z"/><path class="cls-8" d="M1708.26,1388.25c-92.41,75-95.84,227.73-142.65,315.91"/><path class="cls-4" d="M1465.85,1721.42c-33.45-55-106.24-216.48-52.88-250.25,33.45-21.17,52.11,15.09,52.11,15.09s-64.1-176.62.67-177c37.77-.22,54.57,49.84,54.57,49.84s12.82-51.81,30.78-82.95c41.34-71.66,138.29-43,104.07,70.7-8.67,28.83-34.73,65.4-34.73,65.4s60.22-3.61,58.62,48.49c-1.52,49.42-85,95.9-85,95.9s55.48-12.36,65.71,30.71c13.83,58.2-108.71,134.06-108.71,134.06Z"/><path class="cls-8" d="M1609,1304.73c-46.62,158-114.91,181.53-115.88,404.65"/><path class="cls-6" d="M899.65,1311.37s3.78-33.46,52.41-48.31C952.06,1263.06,941.82,1307.92,899.65,1311.37Z"/><path class="cls-6" d="M899.63,1371s7.7-43,71.91-58.13C971.54,1312.84,954.51,1370.05,899.63,1371Z"/><path class="cls-6" d="M878.41,1455.81S888.77,1406,964,1390.54C964,1390.54,942.28,1456.54,878.41,1455.81Z"/><path class="cls-6" d="M821.07,1542.54s31.47-52.48,123.06-40.36C944.13,1502.18,893.38,1568.62,821.07,1542.54Z"/><path class="cls-6" d="M899.68,1312s-4.4-33.38-53.3-47.32C846.38,1264.69,857.45,1309.35,899.68,1312Z"/><path class="cls-6" d="M900.8,1371.6s-8.5-42.85-73-56.79C827.83,1314.81,845.92,1371.69,900.8,1371.6Z"/><path class="cls-6" d="M879.63,1455.5s9.52-49.93-54-93.09C825.67,1362.41,820.37,1431.67,879.63,1455.5Z"/><path class="cls-6" d="M825.09,1543.35s28.2-54.3-30.13-125.95C795,1417.4,765,1495.45,825.09,1543.35Z"/><path class="cls-9" d="M899,1310.3s34.12,196.5-187.41,321.19"/><path class="cls-10" d="M905,1721.42H841c-44.48,0-113.72-124.64-113.72-173,0-48,69-175.36,113.72-175.36h64c56.67,0,101.44,17.63,133.07,52.39,30.41,33.47,45.81,74.83,45.81,123,0,48.46-15.59,89.62-46.34,122.35C1005.87,1704.4,961.29,1721.42,905,1721.42ZM735.73,1222.63l1-50c1.71-86.37,13.42-153.79,35.81-206.13,22.61-52.85,65.85-108.32,132.2-169.59l1-.93,153.71-134.08c56-53.81,83.2-108.59,83.2-167.44,0-56-16-97.86-49-128C1060,335.52,1007.57,319.86,938,319.86c-69.16,0-124.47,14.95-164.38,44.43-36.34,26.83-53.26,60.38-53.26,105.59V519H403.2l.72-49.78c1.8-123.61,54.32-224.64,156.1-300.29C657.54,96.4,784.71,59.65,938,59.65c159.56,0,286.91,37.81,378.52,112.4,94.62,77.07,142.59,183.47,142.59,316.26,0,130.61-69.87,258.9-207.66,381.3l-1,.91L1122.89,977.46c-46.92,44.65-69.73,108.8-69.73,196.1v49.07Z"/><path class="cls-11" d="M841,1721.42c-56.51,0-101-17.13-132.21-50.91-30.19-32.67-45.49-73.73-45.49-122,0-48,15.12-89.25,44.92-122.63,31.26-35,75.93-52.73,132.78-52.73,56.67,0,101.44,17.63,133.07,52.39,30.41,33.47,45.81,74.83,45.81,123,0,48.46-15.59,89.62-46.34,122.35C941.89,1704.4,897.31,1721.42,841,1721.42ZM671.75,1222.63l1-50c1.7-86.37,13.41-153.79,35.8-206.13,22.61-52.85,65.86-108.32,132.2-169.59l1-.93L995.49,661.86c56-53.81,83.2-108.59,83.2-167.44,0-56-16-97.86-49-128C996,335.52,943.59,319.86,874,319.86c-69.16,0-124.47,14.95-164.38,44.43-36.34,26.83-53.26,60.38-53.26,105.59V519H339.22l.72-49.78c1.8-123.61,54.32-224.64,156.1-300.29C593.56,96.4,720.73,59.65,874,59.65c159.56,0,286.92,37.81,378.52,112.4,94.62,77.07,142.59,183.47,142.59,316.26,0,130.61-69.87,258.9-207.66,381.3l-1,.91L1058.91,977.46c-46.92,44.65-69.73,108.8-69.73,196.1v49.07Z"/><path class="cls-12" d="M435.52,1653.56c1.59,20.66-5.2,66.77.19,67.86H588.26s1.52-23.23-16.55-28.26c-24.13-6.73-53.51-11.7-64.49-21.34-5.42-4.76-8-18.26-8-18.26Z"/><path class="cls-13" d="M546.42,1686.7S527,1685,520.08,1696"/><path class="cls-13" d="M528.92,1681.53s-19.39-1.76-26.33,9.28"/><path class="cls-12" d="M346.62,1653.56c-1.95,29.67,3.2,65.37-5.16,67.86H240.07A41.75,41.75,0,0,1,252.15,1691c5.54-5.66,18.62-12.13,24.57-18.1,5.4-5.41,6.23-19.33,6.23-19.33Z"/><path class="cls-13" d="M285.58,1690.42s-13-15.26-29.29-2.93"/><path class="cls-13" d="M301.54,1682.68s-19.44-16-34.3-3.49"/><path class="cls-14" d="M546.24,828.48c4.41,27.35,3,56.57,4.35,55.13,3.64-3.93,47.09-25.26,50.58-27.05,15.87-8.16,28.51-7.68,37.33-7.25,2.91.15,11.66-.53,11.66-.53s6.87-1.66,11.66.54,6.22,6,1.74,7.49A93.45,93.45,0,0,1,652,859.3s15.55-.32,27.8-1.29c4.62-.36,5.14,5.9,5.14,5.9s1.94-.29,2.92-.5c6.24-1.38,8.66,8,6.16,8.7a53,53,0,0,1-7,1.59c1.57.61,4.32,5,.39,6.12-4.29,1.26-15.78,3.58-15.78,3.58,2.72,0,5,5.25,3.4,5.82-6.34,2.3-27.85,7.66-30.94,8-2.75.27-16.81.11-23-.87-5-.75-15.47-3.17-15.47-3.17s-70.32,57.38-80.77,54.78c-7.73-2-22.63-11.19-25-25s-19.16-96.14-19.16-96.14C487.11,785.29,539.57,787.08,546.24,828.48Z"/><path class="cls-15" d="M600.34,872.28s-.35,13.4,4,19.5"/><path class="cls-15" d="M641.56,860.73s-6.94,11.57-28.54,10c16.39,3,26.76,19.69,26.76,19.69"/><line class="cls-15" x1="670.13" y1="883.33" x2="646.59" y2="886.71"/><line class="cls-15" x1="683.47" y1="873.32" x2="648.03" y2="877.43"/><line class="cls-15" x1="682.03" y1="863.93" x2="649.87" y2="866.95"/><path class="cls-16" d="M480.89,536.41s6.52,6.81,8.1,21.9-10.18,35.15-10.18,35.15Z"/><path class="cls-17" d="M525.06,1032c4.93,46.79-21.73,627.87-21.73,627.87h-68s-21.31-413.36-18.44-473.68-10.17-117.52-6.34-154.19S516.74,953,525.06,1032Z"/><path class="cls-17" d="M434.12,1033.7c.06,210.09-85.13,626.14-85.13,626.14H278.93s35.31-473.32,36.62-533.86c.94-43.46,5.84-73.7,10.13-110.5C332.92,953.34,434.1,954.59,434.12,1033.7Z"/><path class="cls-18" d="M525.49,1075.84c-3.09-1.72-6.63-3.73-10.21-5.94-10.11-6.14-13.1-4.76-81.85-.49l-2.7.14c-6.77.4-13.44.45-19.92.2-43.38-1.77-78.76-16.93-89.06-21.79,1.28-10.6,2.65-21.24,3.92-32.48,6.29-53.58,82.44-60.06,103.2-10,30.77-23.7,89.94-32.78,96.17,26.5C525.68,1038.15,525.78,1053.61,525.49,1075.84Z"/><path class="cls-19" d="M503.74,697.65c49.85,46.78,47.06,171.26,47.06,171.26s-45.9,30.52-73.21,18.61c0,0-20.65-127.65-9.75-167C474.5,696.45,494.47,689,503.74,697.65Z"/><path class="cls-20" d="M538.33,816c-.67,23.87-.48,46.33-1.85,61.15-15.75,8-41.22,18.11-58.89,10.41,0,0-20.65-127.63-9.76-167,2.94-10.5,8.39-17.86,14.38-22l21.54-.83.1.09C506.25,700.3,540.78,728.54,538.33,816Z"/><path class="cls-19" d="M375.84,678.79s-73.1,12-75.34,25.35,25.59,205.62,25.59,250.75a815.61,815.61,0,0,1-5.27,87.87s58.58,16.41,114.51,15.38,91.63-9.37,91.63-9.37-3.24-55.51-4.36-92.44,7.61-144.66,7.7-184.12c.08-34.33-16-62.36-26.56-74.56C495.05,687.57,449.37,677,449.37,677Z"/><path class="cls-20" d="M341,940c-6.28,11.34-11.23,20.81-15.11,28.66.15-4.52.2-9.13.2-13.74,0-30-12.32-125-19.88-189.21l56.53-32.78C369.69,754.82,369.69,888.09,341,940Z"/><path class="cls-21" d="M382.51,651.83,375.84,679s28.71,47.84,62.6,43.06,10.93-45,10.93-45l1.35-18L388.2,622Z"/><path class="cls-14" d="M484.2,549.35c1.76,9,1,38.36-.74,61-1.71,21.92-7.61,53.7-20.06,56.48s-65.94-7.55-68.44-38.3c-9.11-7.2-43.74-49.6-31.54-70.58C385.09,520.66,478.52,520.42,484.2,549.35Z"/><ellipse class="cls-16" cx="440.52" cy="595.49" rx="3.72" ry="5.56"/><path class="cls-16" d="M477.5,593.93c0,3.07-1.67,5.56-3.72,5.56s-3.72-2.49-3.72-5.56,1.66-5.55,3.72-5.55S477.5,590.87,477.5,593.93Z"/><path class="cls-16" d="M446.77,582a16.53,16.53,0,0,0-2.42-1.11,17.46,17.46,0,0,0-2.52-.78,13.63,13.63,0,0,0-5.2-.28,11.09,11.09,0,0,0-2.53.6l-1.19.53a9.8,9.8,0,0,0-1.13.66,12.81,12.81,0,0,0-2.09,1.59c-.67.58-1.22,1.28-1.87,1.91a26.3,26.3,0,0,1,1.65-2.13,13.85,13.85,0,0,1,2-1.78,11.07,11.07,0,0,1,5-2,13.66,13.66,0,0,1,5.4.44A15.46,15.46,0,0,1,446.77,582Z"/><path class="cls-16" d="M463.27,580.4a15.24,15.24,0,0,1,4.82-2.36,13.48,13.48,0,0,1,5.4-.44,11,11,0,0,1,5,2,13.85,13.85,0,0,1,2,1.78c.61.66,1.11,1.41,1.65,2.12-.65-.62-1.2-1.33-1.87-1.9a12.87,12.87,0,0,0-2.09-1.6,10.63,10.63,0,0,0-1.13-.65l-1.19-.54a12.26,12.26,0,0,0-2.53-.6,13.83,13.83,0,0,0-5.2.29,17.46,17.46,0,0,0-2.52.78A16.53,16.53,0,0,0,463.27,580.4Z"/><path class="cls-22" d="M460.42,602.1a15.64,15.64,0,0,0,1.31,4.73c.62,1.53,1.33,3,2.07,4.49,1.47,2.95,3.05,5.84,4.56,8.78a48.81,48.81,0,0,1,2.1,4.52,7.9,7.9,0,0,1,.62,2.52,2,2,0,0,1-.1.74,3.09,3.09,0,0,1-.38.63,4.87,4.87,0,0,1-1,.9,16.71,16.71,0,0,1-4.61,2,35,35,0,0,1-4.85,1.08v-.07c1.59-.42,3.17-.92,4.71-1.48a17.81,17.81,0,0,0,4.33-2.13c.59-.5,1.23-1,1.14-1.69a8.47,8.47,0,0,0-.56-2.27,48.31,48.31,0,0,0-1.95-4.51c-1.42-3-2.95-5.9-4.36-8.89-.69-1.5-1.36-3-1.94-4.56a16.05,16.05,0,0,1-1.17-4.81Z"/><path class="cls-23" d="M472.26,637.46a41.19,41.19,0,0,0-20.07,4s17.15,2.49,18.71.78S472.26,637.46,472.26,637.46Z"/><path class="cls-16" d="M485.86,557.15c-2.72,5.83-21.31,14.34-55.44,12.46,0,0,17.08-4.68,20.83-18,0,0-13.75,21-40.53,20.51a65.37,65.37,0,0,1-9.2,38.12s-7.7,10.17-6.56,18.35c1.07,7.68-7.06,21.41-12.45,24.53-3.25-24.32-28.72-71.87-23.76-98.66,5-27.09,29.45-27.56,29.45-27.56,11.12-17.69,52.21-24.94,79-10.33C487.05,527.35,490.82,546.52,485.86,557.15Z"/><path class="cls-14" d="M404.31,601.88c-5.71-14-24.95-12.89-25.05-1.06-.17,19.43,11.55,25.19,15.7,27.73S407.75,610.35,404.31,601.88Z"/><path class="cls-14" d="M287.17,829.22c-4.41,27.35-8.11,54.25-9.5,52.81C274,878.1,211,861,207,858.6c-18.44-11-31.35-9.29-39.49-9.29l-11.66-.53s-6.87-1.66-11.66.54-6.22,6-1.73,7.49A93,93,0,0,0,154,859.3S138.45,859,126.2,858c-4.61-.36-5.14,5.9-5.14,5.9s-1.94-.29-2.92-.5c-6.24-1.38-8.65,8-6.16,8.7a53.37,53.37,0,0,0,7,1.59c-1.57.61-4.32,5-.38,6.12,4.28,1.26,15.77,3.58,15.77,3.58-2.72,0-5,5.25-3.4,5.82,6.34,2.3,27.86,7.66,31,8,2.74.27,16.8.11,23-.87,5-.75,15.43-1.18,15.43-1.18s89.27,43.26,100,44.61c9.68,1.22,25.78-2.2,31-16.81,4.71-13.27,24.29-94.06,24.29-94.06C349.1,787.37,293.84,787.83,287.17,829.22Z"/><path class="cls-15" d="M201.55,894.11a33.06,33.06,0,0,0,5.25-13.82"/><path class="cls-15" d="M164.48,860.73s6.94,11.57,28.53,10c-16.39,3-26.75,19.69-26.75,19.69"/><line class="cls-15" x1="135.9" y1="883.33" x2="159.45" y2="886.71"/><line class="cls-15" x1="122.56" y1="873.32" x2="158" y2="877.43"/><line class="cls-15" x1="124.01" y1="863.93" x2="156.16" y2="866.95"/><path class="cls-19" d="M300.37,704c-24.24,48.36-25.08,157.57-25.08,157.57s47.8,24.87,76.23,13.34c0,0,18.43-103.95,11.21-142.06C358.33,709.59,312.17,680.49,300.37,704Z"/><path class="cls-17" d="M1325.36,1653.56c-1.6,20.66,5.19,66.77-.19,67.86H1172.61s-1.52-23.23,16.55-28.26c24.14-6.73,53.52-11.7,64.49-21.34,5.42-4.76,8-18.26,8-18.26Z"/><path class="cls-13" d="M1214.46,1686.7s19.39-1.75,26.33,9.28"/><path class="cls-13" d="M1232,1681.53s19.38-1.76,26.33,9.28"/><path class="cls-17" d="M1414.26,1653.56c2,29.67-3.2,65.37,5.16,67.86h101.39a41.8,41.8,0,0,0-12.08-30.43c-5.54-5.66-18.63-12.13-24.57-18.1-5.4-5.41-6.24-19.33-6.24-19.33Z"/><path class="cls-13" d="M1475.29,1690.42s13-15.26,29.3-2.93"/><path class="cls-13" d="M1459.34,1682.68s19.43-16,34.3-3.49"/><path class="cls-19" d="M1231.1,1030.18c-4.93,46.79,27.89,629.66,27.89,629.66h68s21.31-413.36,18.45-473.68,10.17-117.52,6.33-154.19S1239.41,951.24,1231.1,1030.18Z"/><path class="cls-19" d="M1328.2,1033.7c-.06,210.09,85.14,626.14,85.14,626.14h70.06s-35.31-473.32-36.62-533.86c-1-43.46-5.85-73.7-10.14-110.5C1429.41,953.34,1328.23,954.59,1328.2,1033.7Z"/><path class="cls-20" d="M1440.84,1049.73c-11.78,5.2-46.72,18.79-89.26,18.94-3.92,0-7.95-.1-12-.34-3.68-.2-7.26-.44-10.75-.59-51.33-2.7-79.59-1.52-88.47.93-3.49.93-6.72,3.88-9.37,7.26-.54-23.21-.59-39.4.09-45.73,6.29-59.77,70-49,102.22-24.44a53.87,53.87,0,0,1,23.7-27.13l48.48-3.53c16,6.08,28.75,19.77,31.16,40.38C1438,1027.35,1439.51,1038.54,1440.84,1049.73Z"/><path class="cls-24" d="M1261.76,697.65c-49.85,46.78-47.07,171.26-47.07,171.26s45.91,30.52,73.21,18.61c0,0,20.66-127.65,9.76-167C1291,696.45,1271,689,1261.76,697.65Z"/><path class="cls-24" d="M1401.2,678.79s69.6,22.12,71.83,35.46-36.45,193.33-36.45,238.47,4.93,90,4.93,90-58.58,16.41-114.52,15.38-97.8-11.16-97.8-11.16,3-55.22,4.17-92.15,1.92-143.16,1.83-182.62c-.07-34.33,16.06-62.36,26.57-74.56,8.69-10.08,65.92-20.69,65.92-20.69Z"/><path class="cls-25" d="M1436.57,952.72c0,12.56.39,25.07.93,36.61-11.14-21.94-32.09-42.11-42.74-45.49-13.54-4.32-128-51.08-137-49.22-4.81,1-15-.34-23.36-1.81.2-13.2.3-27.09.44-40.73l59.87-167.72c16.58-4.37,33-7.41,33-7.41-4.9,3.92-11.72,26.25-16.73,37.34s-32.53,127.34-32.53,127.34l93.52,9.27c11.68-89.21,36.86-125.18,36.86-125.18l55.64,47C1453.65,833.28,1436.57,922.74,1436.57,952.72Z"/><path class="cls-21" d="M1394.54,651.83,1401.2,679s-28.71,47.84-62.59,43.06-10.93-45-10.93-45l-1.35-18,62.51-37Z"/><path class="cls-14" d="M1295.29,549.69c-1.76,9-3.46,38-1.7,60.68,1.7,21.92,7.6,53.65,20.05,56.43s65.95-7.5,68.44-38.25c9.11-7.2,43.74-49.6,31.55-70.58C1392,520.66,1301,520.76,1295.29,549.69Z"/><ellipse class="cls-16" cx="1336.52" cy="595.49" rx="3.72" ry="5.56"/><ellipse class="cls-16" cx="1304" cy="593.3" rx="3.72" ry="5.56"/><path class="cls-16" d="M1330,584.21a15.05,15.05,0,0,1,4.65-3.11,13.34,13.34,0,0,1,5.55-1.12,11.7,11.7,0,0,1,5.48,1.45A16.09,16.09,0,0,1,1348,583c.71.61,1.35,1.29,2,2-.78-.53-1.47-1.14-2.25-1.62a15.06,15.06,0,0,0-2.4-1.3,12.79,12.79,0,0,0-5.21-1.19,15.13,15.13,0,0,0-5.31.87,17.9,17.9,0,0,0-2.5,1.1A17.32,17.32,0,0,0,1330,584.21Z"/><path class="cls-16" d="M1316.36,582a18,18,0,0,0-2.38-1.42,16.74,16.74,0,0,0-2.5-1.09,15.14,15.14,0,0,0-5.31-.88,13,13,0,0,0-5.21,1.19,15.06,15.06,0,0,0-2.4,1.3c-.78.48-1.47,1.09-2.25,1.62.64-.67,1.29-1.35,2-2a15.1,15.1,0,0,1,2.37-1.55,11.56,11.56,0,0,1,5.47-1.44,13.19,13.19,0,0,1,5.56,1.11A14.91,14.91,0,0,1,1316.36,582Z"/><path class="cls-21" d="M1316.7,602.11a17.43,17.43,0,0,1-1.15,5c-.57,1.61-1.23,3.19-1.92,4.75-1.39,3.12-2.9,6.18-4.32,9.27-.71,1.55-1.39,3.11-2,4.69a11.15,11.15,0,0,0-.62,2.38,2,2,0,0,0,0,.55,1,1,0,0,0,.17.44,3.85,3.85,0,0,0,.76.86,15.69,15.69,0,0,0,4.39,2.35,49,49,0,0,0,4.84,1.6l0,.08a34.61,34.61,0,0,1-5-1.19,15.37,15.37,0,0,1-4.68-2.27,4.23,4.23,0,0,1-.94-1,1.66,1.66,0,0,1-.28-.73,3,3,0,0,1,0-.73,10.47,10.47,0,0,1,.68-2.56c.62-1.62,1.36-3.16,2.11-4.7,1.5-3.07,3.07-6.09,4.53-9.16.73-1.54,1.44-3.09,2-4.68a17.11,17.11,0,0,0,1.28-4.91Z"/><path class="cls-23" d="M1303.78,641.49a27,27,0,0,1,19.78,1.37s-17.14,2.5-18.7.78S1303.78,641.49,1303.78,641.49Z"/><path class="cls-16" d="M1293.38,561.28c2.72,5.84,51.78,5.44,78.57,4.9,0,0-8,24.71,3.58,44,0,0,7.69,10.17,6.55,18.35-1.07,7.68,11.58,25.56,12.33,19.37,2.34-19.23,29-73.95,21.79-100.21-6.11-22.23-20.07-21.2-20.07-21.2-11.12-17.69-38.78-8.15-94.36-20.39C1279.7,501.26,1288.42,550.66,1293.38,561.28Z"/><path class="cls-14" d="M1372.74,601.88c5.7-14,24.94-12.89,25-1.06.17,19.43-11.54,25.19-15.7,27.73S1369.3,610.35,1372.74,601.88Z"/><path class="cls-14" d="M1228.34,882c8.39,2.94,10.79,3.62,14.19,3.71a109.59,109.59,0,0,0,13.87-.41s124.15,43.53,135.94,42.85c8.74-.55,27.76-6.16,36-20.08,7.83-13.3,25.2-66.59,31.62-90.24,12.08-44.47-47.37-51.51-62.94-8.25-10.29,28.59-13.06,58.3-14.26,56.47-3.13-5-106.33-15.45-108.43-19.2-4.14-7.37-19-10.71-23.17-10.89a35.48,35.48,0,0,1-8.52-1.45c-5.71-1.25-10.64,4.29-5.12,6.76,4.24,1.9,11.92,5,11.92,5s-26.57-9.47-31.67-11.4-11,5.57-4,9.56,8.4,4.59,8.4,4.59-4.83-3.28-9.5-2.12c-3.14.78-1.31,9.59,2.16,10.62l1.82.53s-6.73,6.8,2.72,10.21l1.61.57s-5.55,4.74-1.19,7.63S1228.34,882,1228.34,882Z"/><path class="cls-14" d="M1314,696c-3.08,12.68-8.42,9.58-10.07,13.28-1.75,3.92-34.94,129.33-36.16,135.07-3.93,18.52-27.37,33.06-40.85,26.93-14.71-6.68-19.8-27.27-17.08-39,2.67-11.51,62.52-132.63,62.52-132.63s4.54-37.74,6.9-39.08c6.6-3.75,18.93-8.09,20.47-8.41,4.46-.9,25.45.14,25.31,0s-.3,4.85-3.71,7.05c-1.42.92-17.91,2.7-17.91,2.7s15.14.79,15.83,2.28,2.46,18.63,1.8,20.53C1318.81,691.17,1314.35,694.69,1314,696Z"/><line class="cls-15" x1="1289.75" y1="664.82" x2="1297" y2="663.1"/><path class="cls-15" d="M1291.18,671.34s21.35.28,22,.81,2.14,10,3.72,11.44,2.38,1.28,2.38,1.28"/><path class="cls-15" d="M1287.83,679.74s17.44,1.92,18.5,2.41,3,10.26,6.36,10.42,4.2-3.69,4.2-3.69"/><line class="cls-15" x1="1288.86" y1="688.32" x2="1303.07" y2="690.49"/><path class="cls-15" d="M1298.26,695c-3.37.32-1.77,6.25,0,6.58s7.7.64,9,0,3.66-4.07,3.7-6.73c0-1.23-1.93-6.51-1.93-6.51"/><path class="cls-15" d="M1306.31,706.64s-7.83,4.57-19.65,2.44"/><path class="cls-15" d="M1302.36,711.53s-3.47,2.24-11.18-.58"/><path class="cls-15" d="M1301.94,651.93s22.13.25,23.12.25-.9,6.35-3.71,7.05-17.91,2.7-17.91,2.7,15.53,1.05,15.83,2.28,1.19,7.94,1.19,7.94"/><path class="cls-24" d="M1473.16,714.13c22.82,24.88-27.29,160.72-27.29,160.72s-39-2.68-67.43-14.2c0,0,21.85-118.3,30.35-134.94C1419.58,704.62,1455.36,694.73,1473.16,714.13Z"/><path class="cls-15" d="M1268.45,841.62c-3.38,14.13-15.6,34.31-37,30.7-17.74-3-21.21-25.5-21.21-25.5"/><circle class="cls-26" cx="237.87" cy="292.81" r="158.38" transform="translate(-137.38 253.96) rotate(-45)"/><path class="cls-23" d="M184,292.81a20.2,20.2,0,1,1-20.2-20.2A20.2,20.2,0,0,1,184,292.81Z"/><path class="cls-23" d="M258.07,292.81a20.2,20.2,0,1,1-20.2-20.2A20.2,20.2,0,0,1,258.07,292.81Z"/><path class="cls-23" d="M332.15,292.81a20.2,20.2,0,1,1-20.2-20.2A20.2,20.2,0,0,1,332.15,292.81Z"/><path class="cls-26" d="M230.93,439.44s16.27,39.94,81,42.1c0,0-27.74-19.81-28-52.64Z"/><circle class="cls-26" cx="1564.18" cy="417.18" r="158.38" transform="translate(163.15 1228.23) rotate(-45)"/><path class="cls-23" d="M1618.06,417.18a20.2,20.2,0,1,0,20.2-20.2A20.2,20.2,0,0,0,1618.06,417.18Z"/><path class="cls-23" d="M1544,417.18a20.2,20.2,0,1,0,20.2-20.2A20.2,20.2,0,0,0,1544,417.18Z"/><path class="cls-23" d="M1469.9,417.18a20.2,20.2,0,1,0,20.2-20.2A20.2,20.2,0,0,0,1469.9,417.18Z"/><path class="cls-26" d="M1571.12,563.81s-16.27,39.94-81,42.09c0,0,27.74-19.8,28-52.63Z"/><path class="cls-4" d="M655,1721.42s2.42-60.55-54.7-105.72c0,0,79.8,8.85,86.29,105.72Z"/><path class="cls-6" d="M663.42,1721.42s-7.51-100.37,82-121.09c0,0-51.44,36.2-56.55,121.09Z"/><path class="cls-4" d="M663.42,1721.42s20.33-89.51,105.05-86.31c0,0-64.12,36-67.84,86.31Z"/><path class="cls-4" d="M1093.28,1721.42s-11.37-37.85,39.19-58.38c0,0-57.17-11-61.82,58.38Z"/><path class="cls-6" d="M1087.24,1721.42s-10.53-42.24,11.32-94.84c0,0-40.51,19.91-29.52,94.84Z"/><path class="cls-4" d="M1087.24,1721.42s-3.26-48.35-64-46.06c0,0,43.45,14.06,37.3,46.06Z"/></g></g></g></svg>