<svg xmlns="http://www.w3.org/2000/svg" viewBox="0 0 732.28 437.01"><defs><style>.cls-1{fill:#eef1f5;}.cls-2{opacity:0.5;}.cls-3{fill:#231f20;}</style></defs><title>Inactive-halopesa</title><g id="Layer_2" data-name="Layer 2"><g id="Layer_1-2" data-name="Layer 1"><rect id="Rectangle_78" data-name="Rectangle 78" class="cls-1" width="732.28" height="437.01" rx="50.62"/><g id="Group_156" data-name="Group 156" class="cls-2"><path id="Path_334" data-name="Path 334" class="cls-3" d="M399,210.91v-5.35H397.8a33.92,33.92,0,0,0-8.33,1.78l-3.58,1.78c-.59,0-.59.6-.59,1.2v86.26c0,.6,0,1.2-.6,1.2-3.57,3.57-7.14,7.13-11.3,10.71a.57.57,0,0,0-.6.56V206.75a12.73,12.73,0,0,1,10.11-12.49,3.53,3.53,0,0,0,2.38-.6H627.41a15.83,15.83,0,0,1,7.14,1.79,12.75,12.75,0,0,1,6.54,11.3v60.68a14.43,14.43,0,0,1-8.33,12.49,13,13,0,0,1-4.76.6H403.73c-1.19,0-2.38,0-3,1.19l-.6.6h0V265.65a1.87,1.87,0,0,0,1.19.6A27.05,27.05,0,0,0,419.2,271a31.27,31.27,0,0,0,22-10.7,36.12,36.12,0,0,0,8.33-17.25A37.29,37.29,0,0,0,446,220.44a30.38,30.38,0,0,0-44-11.3c-1.78,1.78-2.38,1.78-3,1.78C399.59,211.51,399.59,210.91,399,210.91Zm230.24,61.87V210.32c0-.59,0-1.19-.6-1.19-1.19-.6-1.78-1.19-3-1.78a21,21,0,0,0-8.33-1.78h-1.79v5.35H615a.58.58,0,0,1-.6-.56v0a28.67,28.67,0,0,0-19.63-4.75,28.27,28.27,0,0,0-14.87,5.35A33.89,33.89,0,0,0,566.17,246a33.23,33.23,0,0,0,11.3,19.64A30.21,30.21,0,0,0,614.36,268c.59,0,.59-.6,1.19-.6v5.95a103.92,103.92,0,0,1,13.66-.6Zm-123.15-6.55h0v-.59a21.61,21.61,0,0,0-9.52-8.33c-.6,0-1.19-.6-1.78,0a23.45,23.45,0,0,1-15.47,1.19A17.71,17.71,0,0,1,466.82,246v-.6H515.6v-1.19a19.5,19.5,0,0,0,0-8.33,29.13,29.13,0,0,0-4.76-14.28,31.74,31.74,0,0,0-29.75-15.47,22.53,22.53,0,0,0-12.49,4.16A34,34,0,0,0,452.54,246a30.66,30.66,0,0,0,5.95,14.28,29.13,29.13,0,0,0,25.58,13.09h3.57a39.58,39.58,0,0,0,18.44-7.14ZM515,259.1h0a2.15,2.15,0,0,0,.6,1.19A24.41,24.41,0,0,0,528.09,271a35.41,35.41,0,0,0,20.82,1.19A28.33,28.33,0,0,0,562,265.05a16.29,16.29,0,0,0,2.38-17.84,25.5,25.5,0,0,0-6.55-7.14,27.88,27.88,0,0,0-13.09-5.35,34.63,34.63,0,0,1-8.33-2.38c-1.19-.6-3-1.19-3.57-2.38a4.51,4.51,0,0,1-.6-6,8.65,8.65,0,0,1,5.36-3.57,18.35,18.35,0,0,1,11.3.59,7.27,7.27,0,0,1,5.36,4.76h0A32,32,0,0,0,566.75,221c0-.59-.6-1.19-.6-1.78a24.29,24.29,0,0,0-9.51-9.51,26.23,26.23,0,0,0-13.09-3,46.71,46.71,0,0,0-13.09,1.78,23,23,0,0,0-10.11,6.54,15.19,15.19,0,0,0-1.78,17.85,34.43,34.43,0,0,0,5.95,7.13,38.29,38.29,0,0,0,14.28,6,23.37,23.37,0,0,1,8.93,3.57,10.36,10.36,0,0,1,3,2.38,5,5,0,0,1,1.2,4.16,12.45,12.45,0,0,1-2.38,3.57,5.39,5.39,0,0,1-4.16,1.78,21.72,21.72,0,0,1-10.71-.6,9.23,9.23,0,0,1-4.76-3.57c0-.59-.6-.59-.6-1.19a13.14,13.14,0,0,0-14.29,3Z"/><path id="Path_335" data-name="Path 335" class="cls-3" d="M159.84,273.38H145V237.69a21.26,21.26,0,0,0-7.14-16.07,17.19,17.19,0,0,0-22.6,0,17.55,17.55,0,0,0-6.54,13.09v37.48a123,123,0,0,1-14.87,0V174c0-.6,0-1.19.6-1.19a10.59,10.59,0,0,1,6-2.38c2.38-.6,4.76-.6,6.54-1.2h1.78v38.07c.6,0,.6-.59,1.19-.59A29,29,0,0,1,122.37,202a31.17,31.17,0,0,1,22,4.76,34.32,34.32,0,0,1,11.89,12.49,28.41,28.41,0,0,1,4.16,11.89c0,2.38.6,4.16.6,6.55v32.72C159.84,272.19,159.84,272.79,159.84,273.38Z"/><path id="Path_336" data-name="Path 336" class="cls-3" d="M235.39,273.38H220.52v-6a1.78,1.78,0,0,1-1.19.6,31.47,31.47,0,0,1-19,4.76,31.94,31.94,0,0,1-22-11.31,31,31,0,0,1-8.33-17.84,33.64,33.64,0,0,1,8.93-30.34,30.15,30.15,0,0,1,17.85-10.11,32,32,0,0,1,23.2,4.76l.59.59h.6v-5.35h1.78a49.44,49.44,0,0,1,8.93,2.38,13.15,13.15,0,0,1,3,1.78c.6,0,.6.6.6,1.19v64.85Zm-51.75-35.69v1.78a23.47,23.47,0,0,0,7.13,14.28,16.55,16.55,0,0,0,22.61,0,20.93,20.93,0,0,0,7.13-17.25A18.09,18.09,0,0,0,214,222.22a16.86,16.86,0,0,0-23.79,0,19.46,19.46,0,0,0-6.54,15.47Z"/><path id="Path_337" data-name="Path 337" class="cls-3" d="M321.06,265.05a38,38,0,0,1-23.8-7.73,34.38,34.38,0,0,1-6.54-6.55,8.28,8.28,0,0,1-1.78-5.35,20.21,20.21,0,0,1,.6-5.95,52.85,52.85,0,0,1,3-8.93,34.43,34.43,0,0,1,10.71-13.68,42.92,42.92,0,0,1,11.31-6.55,15.79,15.79,0,0,1,13.68.6c.6.59,1.78,1.19,2.38,1.78a71,71,0,0,1,8.93,10.71,36.22,36.22,0,0,1,4.76,15.46,41,41,0,0,1-1.2,14.87,9.16,9.16,0,0,1-4.76,6.55,36.79,36.79,0,0,1-11.3,4.16A29.84,29.84,0,0,1,321.06,265.05Z"/><path id="Path_338" data-name="Path 338" class="cls-3" d="M261.57,273.38H246.7V175.82a3.05,3.05,0,0,1,1.19-2.38,28.76,28.76,0,0,1,4.16-1.78l7.14-1.78h2.38Z"/><path id="Path_339" data-name="Path 339" class="cls-3" d="M399,239.47a20.27,20.27,0,0,1,7.73-16.66,17,17,0,0,1,20.23,0,21.67,21.67,0,0,1,7.73,15.46,20.9,20.9,0,0,1-3,11.9,15.76,15.76,0,0,1-10.11,8.33,16.35,16.35,0,0,1-18.44-5.95A20.3,20.3,0,0,1,399,241.24C399.59,240.66,399,240.06,399,239.47Z"/><path id="Path_340" data-name="Path 340" class="cls-3" d="M331.76,271h0a47.45,47.45,0,0,1-16.06,7.14A36.63,36.63,0,0,1,288.33,274a44.84,44.84,0,0,1-22-29.75,33.93,33.93,0,0,1,5.35-25A62.69,62.69,0,0,1,283,205.57c2.37-1.79,4.75-4.16,7.13-5.95l.6-.6-.6.6a56,56,0,0,0-10.71,14.87,36.57,36.57,0,0,0-4.16,19.63,32.39,32.39,0,0,0,3,13.09,43.2,43.2,0,0,0,14.28,18.44,33.55,33.55,0,0,0,17.84,7.14,46.11,46.11,0,0,0,20.23-1.2,1.82,1.82,0,0,1,1.19-.59Z"/><path id="Path_341" data-name="Path 341" class="cls-3" d="M295.47,281.11a39.54,39.54,0,0,1,4.16,1.19,46.6,46.6,0,0,0,15.47,1.2,37.41,37.41,0,0,0,30.93-19,46.05,46.05,0,0,0,6-14.87A41.88,41.88,0,0,0,349.61,227a47.68,47.68,0,0,0-10.71-16.06l-.59-.6h.6A57.45,57.45,0,0,1,355,223.4a33.58,33.58,0,0,1,7.14,17.85A46.12,46.12,0,0,1,357.35,268a35.31,35.31,0,0,1-20.82,18.44,32.19,32.19,0,0,1-14.87,1.79,71,71,0,0,1-24.4-6.55c-1.19,0-1.19,0-1.78-.6Z"/><path id="Path_342" data-name="Path 342" class="cls-3" d="M281.79,235.31v-3a45.47,45.47,0,0,1,1.78-12.49A38.1,38.1,0,0,1,305,195.45a66.13,66.13,0,0,1,17.84-4.76A29.59,29.59,0,0,1,333,191.88a32.31,32.31,0,0,1,17.25,8.93,47.55,47.55,0,0,1,8.92,12.49,81.86,81.86,0,0,1,4.76,16.06c.6,2.38.6,4.76,1.19,6.55v1.19c0-.59,0-.59-.59-1.19a64,64,0,0,0-7.74-17.25,41.3,41.3,0,0,0-21.41-16.06,34.61,34.61,0,0,0-13.69-1.19,46.71,46.71,0,0,0-13.09,2.37A42.9,42.9,0,0,0,283,233.53c-.6,1.19-.6,1.78-1.2,1.78Z"/><path id="Path_343" data-name="Path 343" class="cls-3" d="M615.53,238.88a21.07,21.07,0,0,1-5.95,15.46,16.37,16.37,0,0,1-23.15.09c-.22-.22-.44-.45-.65-.68a23.76,23.76,0,0,1-5.95-13.69,20.74,20.74,0,0,1,4.76-14.28,18.3,18.3,0,0,1,8.92-5.95,16.62,16.62,0,0,1,16.07,4.76A19.37,19.37,0,0,1,615.53,238.88Z"/><path id="Path_344" data-name="Path 344" class="cls-3" d="M466.21,233.52a17.92,17.92,0,0,1,16.66-14.28,17.17,17.17,0,0,1,11.89,4.16,20,20,0,0,1,6,9.52A336.75,336.75,0,0,1,466.21,233.52Z"/></g></g></g></svg>