<svg xmlns="http://www.w3.org/2000/svg" viewBox="0 0 732.28 437.01"><defs><style>.cls-1{fill:#eef1f5;}.cls-2{opacity:0.51;}.cls-3{fill:#231f20;}</style></defs><title>Inactive-m-pesa</title><g id="Layer_2" data-name="Layer 2"><g id="Layer_1-2" data-name="Layer 1"><rect id="Rectangle_75" data-name="Rectangle 75" class="cls-1" width="732.28" height="437.01" rx="50.62"/><g class="cls-2"><path class="cls-3" d="M320.76,159.77c0-19.37.19-38.74,0-58.11-.08-9.82,6.61-17.07,16.62-16.81,16.92.44,33.88.47,50.8,0,10.82-.3,17,7.94,16.73,16.72-.21,6.94,0,13.88,0,21.28l-9.05-4.12c-1.43-.65-1.21-1.92-1.21-3.12,0-4.88-.15-9.76.06-14.62.1-2.38-.74-2.77-2.89-2.76q-29.06.12-58.12,0c-2,0-2.71.39-2.7,2.56.12,16.2.11,32.4.14,48.6l.18,26.46c-.09,10.23-.13,20.46-.3,30.68,0,2.74,1.77,2.07,3.21,2.08q24.87,0,49.73,0c2.56,0,5.13-.15,7.68.05,2.39.18,3.11-.62,3.06-3-.14-8.53,0-17.07-.11-25.6,0-1.89.46-2.72,2.31-3.21,2.53-.68,5-1.73,7.54-2.66.76,1.1.45,2.2.45,3.21q0,25.23,0,50.46c0,9.63-6.21,16.07-15.81,16.13q-26.33.15-52.65,0c-9.37-.06-15.55-6.5-15.59-15.93q-.12-26.86-.16-53.74Zm35.78,64.42c0,6.58,0,6.58,6.4,6.58,6.89,0,6.94,0,6.88-6.88-.06-7.25,1.15-6.45-6.66-6.49C356.54,217.37,356.54,217.39,356.54,224.19Zm25.74,3.49c2.46.16,4.59.58,4.42-3.2-.13-3-.67-4.33-4-4.13-2.63.16-4.27.25-4.13,3.66C378.68,226.92,379.23,228.45,382.28,227.68Zm-38.48,0c2.64.45,4.29.13,4.13-3.37-.13-2.89-.73-3.94-3.85-4s-4.09.81-4.09,4S341.1,228.21,343.8,227.66Z"/><path class="cls-3" d="M331.32,175.86l-.18-26.46c2.12-1.31,3.08-3.7,5.16-5.42a57.45,57.45,0,0,0,7.81,9.21,37.16,37.16,0,0,0,3.32,2.84c3.06,2.13,5.62,2.34,8.93-.48a108.31,108.31,0,0,0,26.55-34.32c1.12-2.22,1.9-2.72,4.24-1.57q23,11.27,46.05,22.23c2.42,1.15,3.08,1.77,1.22,4.26-10.91,14.59-25.82,22.82-43.06,27.23C371.55,178.45,351.46,178.18,331.32,175.86Z"/><path class="cls-3" d="M208.15,308.37c0-6.94,0-13.89,0-20.83a3.38,3.38,0,0,1,2.16-3.6c10.48-5.26,21.14-5.38,32-1.52a8.94,8.94,0,0,0,6.2-.09c11.09-3.46,21.7-3.13,30.84,5.21,4.16,3.79,5.32,8.93,5.45,14.2.23,9.38,0,18.76.13,28.14,0,1.92-.53,2.58-2.46,2.49-3.88-.18-8.83,1.27-11.35-.61s-.65-7-.73-10.76c-.12-6.09,0-12.18,0-18.27A11.1,11.1,0,0,0,253.9,293c-1.14.61-1.19,1.5-1.18,2.71.11,11.08,0,22.17.22,33.25.06,3-1,3.7-3.66,3.47a43.52,43.52,0,0,0-7.31,0c-2.31.19-2.85-.67-2.83-2.88.05-9.25.07-18.51-.21-27.76-.22-7.32-7.76-11.88-14.67-9.3-1.89.7-1.77,2-1.77,3.45,0,11-.1,21.93.07,32.9,0,2.85-.68,3.88-3.6,3.6a57.44,57.44,0,0,0-8.4,0c-1.93.11-2.48-.5-2.45-2.44C208.22,322.75,208.15,315.56,208.15,308.37Z"/><path class="cls-3" d="M322.4,316.85c0-10.6.05-21.21,0-31.81,0-2.14.41-3.26,2.78-3.6,10-1.4,20-2.83,30-.3a23.59,23.59,0,0,1,17.66,22.24c.29,7.47-.64,14.51-5.57,20.46-6.08,7.36-14.06,10.11-23.32,8.74-7.35-1.08-7.32-1.32-7.32,6.18,0,3.54-.08,7.07,0,10.6.06,1.92-.28,2.93-2.55,2.79a75.17,75.17,0,0,0-9.13,0c-2.21.13-2.59-.81-2.58-2.77C322.44,338.54,322.4,327.69,322.4,316.85Zm14.18-11.55q0,5.64,0,11.3c0,1.08-.06,2.09,1.05,2.89,4.55,3.26,13.35,2.22,17-2.1,4.11-4.85,4.71-14.43,1.23-19.75-3.28-5-10.76-7.4-17.55-5.77-1.64.39-1.79,1.15-1.76,2.49C336.62,298,336.58,301.65,336.58,305.3Z"/><path class="cls-3" d="M510.81,327.83c-12.28,8.06-26,6-33.19-5.26-9-14.12-3.87-38.2,18.47-42.19,8.82-1.58,17.3.13,25.74,2.55,2,.57,2.34,1.54,2.33,3.36q-.09,21.36,0,42.72c0,2.05-.54,2.81-2.62,2.62a33.5,33.5,0,0,0-5.84,0C512.89,331.89,510.68,331.5,510.81,327.83Zm-.69-23c0-3.17-.11-6.34,0-9.5.09-1.76-.48-2.76-2.2-3-8.62-1.35-16.54.06-19.39,11.37-2,7.77,2.56,15.93,9.59,17.46,6.45,1.41,12-2.9,12-9.37Z"/><path class="cls-3" d="M392.11,311.12c1,7.37,5,10.63,13,10.92,6.38.24,12.52-1.17,18.66-2.56a2.31,2.31,0,0,1,.22.71c.34,9.23.31,9.13-9,11.47a38,38,0,0,1-20.07-.31c-8.77-2.56-14.62-8.3-16.32-17.65-1.66-9.13-1.31-17.95,5-25.43,6.8-8.1,15.83-10.23,25.68-7.62,9.61,2.56,14.63,9.59,16.32,19.3a73.64,73.64,0,0,1,.65,7.95c.16,2.52-.77,3.31-3.34,3.28C412.58,311,402.36,311.12,392.11,311.12Zm10.33-10.26c2.91,0,5.83-.1,8.73,0,1.87.08,2-.87,1.66-2.23-.89-3.94-5.46-7.18-10.2-7.25s-9,2.77-10,6.75c-.5,1.9-.1,2.92,2.22,2.74C397.34,300.71,399.9,300.86,402.44,300.86Z"/><path class="cls-3" d="M432,319.54c5.65,1.23,11,2.94,16.66,2.5a37.74,37.74,0,0,0,5.39-.83,4.15,4.15,0,0,0,3.37-3.39c.36-1.92-.78-3.28-2.21-4.31-2.73-1.95-6.08-2.18-9.17-3.12-1.27-.39-2.58-.66-3.84-1.09-7.72-2.63-11.39-7.42-11-14.24a15.87,15.87,0,0,1,12.89-14.66c7.2-1.53,14.21-.39,21.22,1.39,1.37.34,1.85.9,1.75,2.19,0,.24,0,.48,0,.73,0,2.55.9,5.88-.36,7.45-1.51,1.89-4.53-.49-6.92-.81a73.44,73.44,0,0,0-10.89-.73c-2.65.05-4.56,1.22-5.12,3.72s1.07,4.21,3.28,5c3.29,1.14,6.67,2,10,2.95,9.87,2.67,13.51,7.25,12.89,16.32-.46,6.68-6.82,12.51-14.79,13.75a40.81,40.81,0,0,1-20-2c-2.38-.82-3.68-1.72-3.29-4.46A46.59,46.59,0,0,0,432,319.54Z"/><path class="cls-3" d="M303.61,298.58c3.77,0,7.55.08,11.32,0,1.75-.06,2.34.5,2.26,2.25-.18,3.51,1.1,8-.6,10.28s-6.35.59-9.71.68c-4.74.13-9.49,0-14.24.07-1.87,0-2.63-.49-2.52-2.46a75.93,75.93,0,0,0,0-8.4c-.11-2,.71-2.47,2.53-2.42C296.3,298.66,300,298.58,303.61,298.58Z"/><path class="cls-3" d="M320.76,159.77l-.06,14.52a171.69,171.69,0,0,1-25.85-5.57C304.83,168.8,313,164.75,320.76,159.77Z"/></g></g></g></svg>