<svg xmlns="http://www.w3.org/2000/svg" viewBox="0 0 732.28 437.01"><defs><style>.cls-1{fill:#eef1f5;}.cls-2{opacity:0.5;}.cls-3{fill:#231f20;}.cls-4{isolation:isolate;}</style></defs><title>Inactive-Airtelmoney</title><g id="Layer_2" data-name="Layer 2"><g id="Layer_1-2" data-name="Layer 1"><rect id="Rectangle_77" data-name="Rectangle 77" class="cls-1" width="732.28" height="437.01" rx="50.62"/><g id="Group_160" data-name="Group 160" class="cls-2"><g id="Group_158" data-name="Group 158"><path id="Path_361" data-name="Path 361" class="cls-3" d="M171.18,133.16a65.7,65.7,0,0,1,10.6,1.77,33.55,33.55,0,0,1,26.5,24.73,39.29,39.29,0,0,1-4.12,28.26A72,72,0,0,1,181.79,215a123.19,123.19,0,0,1-43.58,24.73,37.91,37.91,0,0,1-11.77,1.76,12.16,12.16,0,0,1-13-14.14,31.79,31.79,0,0,1,22.38-26.5,13.55,13.55,0,0,1,8.24,1.18,6.53,6.53,0,0,1,2.36,11.19,102.14,102.14,0,0,1-8.84,7.66,67.07,67.07,0,0,0-6.47,6.48,5.19,5.19,0,0,0-.6,4.12,4.85,4.85,0,0,0,4.12.59,51.79,51.79,0,0,0,8.84-2.94A97.55,97.55,0,0,0,183.56,195a46.09,46.09,0,0,0,5.3-12.37c2.35-10.6-4.71-17.07-15.31-15.31a88.93,88.93,0,0,0-21.79,8.84L127,190.29a33,33,0,0,1-21.2,4.11A12.78,12.78,0,0,1,93.9,180.8a12.47,12.47,0,0,1,.72-3.47,39.77,39.77,0,0,1,15.31-21.2A116.39,116.39,0,0,1,157,133.75c3.54-.59,7.07-1.18,10-1.76A5,5,0,0,0,171.18,133.16Z"/><path id="Path_362" data-name="Path 362" class="cls-3" d="M271.28,191.46h0c1.18-10.6-3.53-14.72-13.55-13a52.11,52.11,0,0,0-13.54,4.12,10.47,10.47,0,0,0-2.95,1.18,63.89,63.89,0,0,1-4.71-11.19,63,63,0,0,1,20-7.06,31.87,31.87,0,0,1,18.26,1.18,22.07,22.07,0,0,1,15.9,20.61v41.81a4.46,4.46,0,0,1-1.18,2.94,44.35,44.35,0,0,1-23.56,10,32.88,32.88,0,0,1-20-2.94,25.24,25.24,0,0,1-11.36-33.84,24.47,24.47,0,0,1,1.94-3.27A24.9,24.9,0,0,1,256,192.63a145.4,145.4,0,0,1,15.9,0A1.8,1.8,0,0,1,271.28,191.46Zm.59,12.36a85.44,85.44,0,0,0-12.95,1.77,11.27,11.27,0,0,0-7.66,11.77,10.15,10.15,0,0,0,7.07,11.19,18.07,18.07,0,0,0,12.36-1.18c.59,0,1.18-1.18,1.18-1.76Z"/><path id="Path_363" data-name="Path 363" class="cls-3" d="M488,205.6H447.37a27.79,27.79,0,0,0,3.54,18.25,13.11,13.11,0,0,0,10,5.3,33.7,33.7,0,0,0,21.79-6.48l5.3,10.6A45.94,45.94,0,0,1,448,239.75,24.77,24.77,0,0,1,432.06,225a49.62,49.62,0,0,1,2.35-47.12,29.47,29.47,0,0,1,40.77-8.65,24.88,24.88,0,0,1,2.22,1.59A22.81,22.81,0,0,1,484.47,182,63.54,63.54,0,0,1,488,205.6Zm-20-11.78a17.22,17.22,0,0,0-4.12-12.95,8,8,0,0,0-9.42-.59c-5.3,2.94-5.89,8.24-6.47,13.54Z"/><path id="Path_364" data-name="Path 364" class="cls-3" d="M408.5,165.55h10c1.77,0,2.36.59,2.36,2.35v11.78H408.5v38.86c0,7.07,2.95,10,10,10,2.36,0,2.95.6,2.36,2.95v7.07c0,.59-.59,1.76-1.18,1.76a27.42,27.42,0,0,1-24.15-5.3,20.47,20.47,0,0,1-6.48-15.9V147.88c6.48-1.18,12.37-1.76,18.85-2.94C408.5,152,408.5,158.48,408.5,165.55Z"/><path id="Path_365" data-name="Path 365" class="cls-3" d="M499.78,148.47c6.48-1.18,12.37-2.35,18.85-2.94v71.26c0,8.24.59,12.36,11.78,13v11.2a21.69,21.69,0,0,1-30-20c-.59-13.54,0-26.5,0-40V152A7.53,7.53,0,0,1,499.78,148.47Z"/><path id="Path_366" data-name="Path 366" class="cls-3" d="M357.86,240.93H339V182a6.36,6.36,0,0,1,1.77-4.12,42.56,42.56,0,0,1,39.46-11.77c.59,0,1.76.59,2.35.59s.59.59,1.77.59c-1.77,3.53-2.95,7.06-4.71,10.6,0,.59-1.77.59-2.95.59a28.09,28.09,0,0,0-15.31,2.35c-2.36,1.18-2.95,2.36-2.95,5.3v51.24A7.56,7.56,0,0,0,357.86,240.93Z"/><path id="Path_367" data-name="Path 367" class="cls-3" d="M304.86,169.08c5.89-1.18,12.36-1.76,18.25-2.94v74.79H304.86Z"/><path id="Path_368" data-name="Path 368" class="cls-3" d="M326.06,147.88a11.47,11.47,0,0,1-11.12,11.78h-.66a11.81,11.81,0,0,1-11.77-11.78,11.6,11.6,0,0,1,11.4-11.8q.48,0,1,0a11,11,0,0,1,11.21,10.76C326.09,147.21,326.08,147.54,326.06,147.88Z"/></g><g id="Group_159" data-name="Group 159"><g id="money" class="cls-4"><g class="cls-4"><path class="cls-3" d="M436.31,264.66q8.1,0,9.69,8.43h.22a19.23,19.23,0,0,1,5.94-6.25,13.28,13.28,0,0,1,7.3-2.18c3.35,0,5.91,1,7.67,3.14s2.65,5,2.65,8.76a32,32,0,0,1-.85,6.66L464,306.77H452.88l5.1-24.14a19.3,19.3,0,0,0,.59-4.4c0-3-1.21-4.55-3.62-4.55s-4.32,1.38-6.16,4.14-3.29,6.68-4.38,11.76l-3.55,17.19H429.73l5.07-24.14a19.88,19.88,0,0,0,.59-4.4c0-3-1.21-4.55-3.62-4.55s-4.33,1.4-6.18,4.21-3.3,6.73-4.36,11.76l-3.62,17.12H406.48l8.76-41.34h8.5l-.77,7.66h.22Q428.59,264.66,436.31,264.66Z"/><path class="cls-3" d="M514.59,281A34.45,34.45,0,0,1,512,294.86a21,21,0,0,1-7.52,9.34,20.43,20.43,0,0,1-11.69,3.31q-7.2,0-11.51-4.35T477,291.61a35.28,35.28,0,0,1,2.64-14,21.28,21.28,0,0,1,7.64-9.54,20.26,20.26,0,0,1,11.68-3.38q7.24,0,11.46,4.36T514.59,281Zm-11.21,0q0-7.29-5.28-7.29a6.79,6.79,0,0,0-5,2.26,16.54,16.54,0,0,0-3.58,6.62,29.25,29.25,0,0,0-1.39,9q0,6.84,5.55,6.84a6.83,6.83,0,0,0,5-2.27,15.39,15.39,0,0,0,3.46-6.33A30.21,30.21,0,0,0,503.38,281Z"/><path class="cls-3" d="M554,306.77H542.91L548,282.63a19.3,19.3,0,0,0,.59-4.4c0-3-1.33-4.55-4-4.55-2.27,0-4.32,1.4-6.17,4.21A34.54,34.54,0,0,0,534,289.65l-3.62,17.12H519.28L528,265.43h8.51l-.78,7.66H536q5.4-8.43,13.13-8.43,5.1,0,7.89,3.08c1.86,2.06,2.8,5,2.8,8.82a32.59,32.59,0,0,1-.86,6.66Z"/><path class="cls-3" d="M583.32,307.51q-7.77,0-12.05-4.18T567,291.54a31.51,31.51,0,0,1,3-14,22.77,22.77,0,0,1,8.26-9.61,21.53,21.53,0,0,1,11.8-3.31q6.54,0,10.2,3a10.12,10.12,0,0,1,3.66,8.26,11.84,11.84,0,0,1-6.17,10.67q-6.18,3.75-17.64,3.75h-1.89l-.07.78v.74a6.68,6.68,0,0,0,7.36,7.25,22.52,22.52,0,0,0,5.84-.71,39,39,0,0,0,6.36-2.47v8.39A31.82,31.82,0,0,1,583.32,307.51Zm6.06-34.83a8.52,8.52,0,0,0-6.13,3,14.26,14.26,0,0,0-3.78,7.21h1.67q5.73,0,8.93-1.8t3.2-4.86Q593.27,272.68,589.38,272.68Z"/><path class="cls-3" d="M609.61,265.43h10.9l2.07,19.15a95.75,95.75,0,0,1,.52,10.84h.22q.75-1.89,1.63-4.42a55.56,55.56,0,0,1,2.4-5.68L637,265.43h12.09l-25.14,47.25Q617.37,325,606.06,325a17.84,17.84,0,0,1-5.44-.7v-8.88a23.52,23.52,0,0,0,4.29.48,8.84,8.84,0,0,0,5.46-1.77,16.58,16.58,0,0,0,4.34-5.51l1-1.81Z"/></g></g></g></g></g></g></svg>