<svg xmlns="http://www.w3.org/2000/svg" viewBox="0 0 732.28 437.01"><defs><style>.cls-1{fill:#eef1f5;}.cls-2{fill:#756f71;}.cls-3{fill:#cfd1d6;}.cls-4{fill:#fffdfa;}.cls-5{fill:#fbab1a;}</style></defs><title>Inactive-Mastercard</title><g id="Layer_2" data-name="Layer 2"><g id="Layer_1-2" data-name="Layer 1"><rect id="Rectangle_79" data-name="Rectangle 79" class="cls-1" width="732.28" height="437.01" rx="50.62"/><path class="cls-2" d="M578.61,191.41C564.86,128.54,506.53,85.25,442.55,90.27a129.81,129.81,0,0,0-52.62,15.45,114.21,114.21,0,0,0-23.57,16.66c2.9,3.24,6.44,5.88,9.36,9.7-5.82,0-11.27.12-16.71-.06a5,5,0,0,0-4.52,2.12c-1.44,1.86-3,3.66-4.74,5.84h11c6.48,0,13,.07,19.46,0a4,4,0,0,1,4,2.1c.61,1.06,1.46,2,2.12,3,.32.49,1.06.92.75,1.57s-1.1.35-1.67.36c-2.78,0-5.57,0-8.35,0-10,0-20.08,0-30.12,0a3.51,3.51,0,0,0-3.54,1.92c-1,1.87-2.23,3.65-3.67,6h3.1c15.83,0,31.66,0,47.5,0,1.69,0,2.72.42,3.39,2a37.5,37.5,0,0,0,2.28,4.29c.86,1.51.68,2.16-1.26,2.13-4.56-.1-9.11,0-13.67,0-14.45,0-28.89,0-43.33,0-1.83,0-2.89.49-3.47,2.24a29.22,29.22,0,0,1-1.66,3.82c-.66,1.35-.46,1.95,1.19,1.9,2.71-.07,5.41,0,8.11,0,18.46,0,36.92,0,55.38-.07,2.39,0,3.56.62,4.34,2.94,1.5,4.52,1.65,4.47-3.13,4.47-22.16,0-44.33,0-66.49,0-2.16,0-3.1.57-3.68,2.7-1.43,5.25-1.56,5.21,3.88,5.21,23.48,0,47,0,70.44,0,2,0,2.95.39,3.42,2.56,1.13,5.33,1.28,5.3-4.19,5.3H329.6c-4.33,0-4.33,0-5.23,4.13,1.66-.1,2.14.61,1.57,2.17a6.49,6.49,0,0,0-.17,1.54q28.73,0,57.44.06c7.49,0,15,.1,22.47-.05,2.27,0,3.34.48,3.05,2.87a4.1,4.1,0,0,0,.32,1.33c4.07-5.11,9-9.05,15.29-11.08,8-2.59,15.82-1.44,23.63.89,1.19.36,1.12,1.09,1,2-.62,3.47-1.27,6.94-1.93,10.57a29.4,29.4,0,0,0-10.74-3.16c-9.83-.65-17.6,6.28-18.81,16.76a29.07,29.07,0,0,0-.3,4.84c.53,9.38,7.65,14.25,17.49,12,2.24-.52,4.42-1.3,6.89-2-.09,3-1,5.86-1.49,8.76-.56,3.6-.66,3.54-4.34,4.21a42.09,42.09,0,0,1-13.11.56c-7.92-1.08-13.81-4.94-17.36-12.19H388.82a54.91,54.91,0,0,0-1.45,7.84c5.72,0,11.43,0,17.15,0,1.61,0,2,.42,1.57,2-1.41,5.82-1.36,5.83-7.33,5.83H330.41c-2.65,0-2.65,0-1.88,2.49,1.66,5.38,1.66,5.38,7.25,5.38h63.48c2.78,0,2.78,0,1.76,2.67-1.88,4.86-1.88,4.86-7.09,4.86H336c-2.71,0-2.71,0-1.61,2.44,2.43,5.42,2.43,5.42,8.34,5.42h50.05c2.49,0,2.23-.09,1.34,2.29-1.55,4.11-4.15,5.29-8.56,5.18-13.82-.34-27.65-.13-41.48-.11a4.67,4.67,0,0,0-2.59.29,54.69,54.69,0,0,0,4.41,7c.64,1,1.69.59,2.58.6,11.51,0,23,0,34.52,0,.74,0,1.78-.38,2.18.26.53.87-.59,1.43-.95,2.14-2.14,4.22-5.46,5.51-10.18,5.17-6.3-.46-12.66-.12-19-.12h-2.66a39.27,39.27,0,0,0,6.52,7.51c.53.54,1.32.32,2,.32,3.4,0,6.79,0,10.19,0,.44,0,1-.17,1.23.36s-.3.82-.61,1.14c-1.79,1.8-3.6,3.59-5.4,5.39a12.82,12.82,0,0,0,1,1c22.81,19.46,49.22,30,79.15,31.37a128.29,128.29,0,0,0,64.22-13.77C562.81,307.16,591.05,248.26,578.61,191.41ZM482.05,249.8a69.36,69.36,0,0,0-7.63,0c-2,.13-2.73-.45-2.28-2.42a10.28,10.28,0,0,0,0-1.84,20.53,20.53,0,0,1-11.15,5c-11.16,1.61-18.53-7.4-14.59-18,2.4-6.43,7.84-9,14-10.5a44.86,44.86,0,0,1,12.19-.94c.95,0,2.52,1.3,2.95-.88.39-2,.33-3.73-1.71-4.77a9.41,9.41,0,0,0-4-.89,53.08,53.08,0,0,0-17.5,2c.63-3.28,1.22-6.25,1.78-9.23.14-.76.71-.91,1.32-1.08,7.52-2,15.1-3,22.85-1.38S490,212.09,488.78,220c-1.47,9.35-3.11,18.68-4.63,28C483.93,249.34,483.44,249.86,482.05,249.8ZM506,223.1c-1.94,4.65-2.68,9.62-3.65,14.52-.69,3.47-1.35,7-1.91,10.45-.21,1.3-.69,1.82-2.08,1.78-3.23-.1-6.48-.16-9.72,0-2,.12-2.45-.49-2.07-2.41,1.65-8.3,3.17-16.63,4.75-24.94,1-5.22,2.06-10.43,3-15.66.23-1.42.82-1.72,2.11-1.69,2.93.08,5.86.11,8.79,0,1.63-.07,2.05.54,1.66,2a6.92,6.92,0,0,0-.29,3.48c3.34-3.7,6.78-6.82,12.47-5.91a44,44,0,0,0-4.69,12.36c-.16.73-.62.81-1.2.74C509,217.3,507.27,220,506,223.1Zm46.6,26.73c-2.54-.16-5.09,0-7.64,0-3.29,0-3.29,0-3.22-3.2l-.16-.16c-3.39,2-6.81,3.81-10.91,3.95-8.55.31-14.68-4-17.06-12.27-3.12-10.77,2-24.45,11.37-30.57,7.21-4.7,15.28-4.24,21.86,1.22.46.39.93.75,1.67,1.35.86-4.55,1.73-8.81,2.44-13.1.27-1.66.87-2.32,2.66-2.24,3.23.15,6.48.07,9.72,0,1.19,0,1.63.24,1.37,1.59q-4.9,25.75-9.69,51.52C554.7,249.35,554.12,249.92,552.56,249.83Z"/><path class="cls-3" d="M387.37,246.08c5.72,0,11.43,0,17.15,0,1.61,0,2,.42,1.57,2-1.41,5.82-1.36,5.83-7.33,5.83H330.41c-2.66,0-2.66,0-1.89,2.5,1.67,5.37,1.67,5.37,7.26,5.37h63.48c2.78,0,2.78,0,1.76,2.67-1.88,4.86-1.88,4.86-7.09,4.86H336c-2.71,0-2.71,0-1.61,2.44,2.43,5.42,2.43,5.42,8.34,5.42h50.05c2.49,0,2.23-.09,1.34,2.29-1.55,4.11-4.15,5.29-8.57,5.18-13.81-.34-27.64-.13-41.47-.11a4.67,4.67,0,0,0-2.59.29,55.81,55.81,0,0,0,4.41,7c.64,1,1.69.59,2.58.6q17.25,0,34.52,0c.74,0,1.78-.38,2.18.26.53.86-.59,1.43-.95,2.14-2.14,4.22-5.46,5.51-10.18,5.17-6.3-.46-12.66-.12-19-.11h-2.66a39.82,39.82,0,0,0,6.51,7.5c.55.54,1.33.32,2,.32,3.4,0,6.79,0,10.19,0,.44,0,1-.17,1.23.36s-.3.83-.61,1.14c-1.79,1.8-3.6,3.59-5.4,5.39-5,3.83-9.85,7.91-15.18,11.36a129.86,129.86,0,0,1-191-59.36c-22-53.63-4.62-115.88,42.28-150.94A125.54,125.54,0,0,1,265.6,90.8c37.38-3.9,70.47,6.38,99.26,30.53.46.39,1,.7,1.5,1,2.9,3.24,6.44,5.88,9.36,9.7-5.82,0-11.27.12-16.71-.06a5,5,0,0,0-4.52,2.12c-1.44,1.86-3,3.66-4.74,5.84h11c6.49,0,13,.07,19.46,0a4,4,0,0,1,4,2.1c.61,1.06,1.46,2,2.13,3,.31.49,1,.92.74,1.57s-1.1.35-1.67.36c-2.78,0-5.57,0-8.35,0-10,0-20.08,0-30.12,0a3.51,3.51,0,0,0-3.54,1.92c-1,1.87-2.24,3.65-3.67,6h3.1c15.83,0,31.66,0,47.5,0,1.69,0,2.72.42,3.39,2a39.14,39.14,0,0,0,2.28,4.29c.86,1.51.68,2.16-1.26,2.12-4.56-.09-9.11,0-13.67,0-14.44,0-28.89,0-43.33,0-1.83,0-2.89.49-3.47,2.24a28.52,28.52,0,0,1-1.66,3.81c-.67,1.36-.46,2,1.19,1.91,2.71-.07,5.41,0,8.11,0,18.46,0,36.92.05,55.38-.06,2.39,0,3.56.62,4.34,2.94,1.5,4.52,1.65,4.47-3.13,4.47-22.16,0-44.33,0-66.49,0-2.15,0-3.1.57-3.68,2.7-1.43,5.25-1.56,5.21,3.88,5.21,23.48,0,47,0,70.44,0,2,0,3,.39,3.42,2.56,1.13,5.33,1.28,5.3-4.19,5.3H329.6c-4.33,0-4.33,0-5.23,4.13-3.31,0-6.63.11-9.94.05-1.23,0-1.78.36-2,1.56-2.72,13.19-5.57,26.35-7.47,39.68-.93,6.5,3,10.89,9.57,11.16a49.37,49.37,0,0,0,7.59-.6c2.54-.3,4.32-1.22,4.36-4.08h10.07a26,26,0,0,0,8.57,3.78c6.65,1.46,13.27.95,19.91-.14,2.23-.37,3.06-1.63,3.38-3.59,1.61.17,3.26-.26,4.84.31a10.25,10.25,0,0,1-.21,1.13c-.59,1.88,0,2.52,2,2.37,2.43-.18,4.89,0,7.33,0C386.34,249.84,386.34,249.84,387.37,246.08ZM213.05,211.47l.66.07c-2.35,12.7-4.7,25.4-7.07,38.25,4.3,0,8.23-.07,12.16,0,1.42,0,1.84-.5,2.08-1.75,3.26-17.1,6.52-34.2,9.91-51.27.4-2-.25-2.12-1.86-2.1-5.63.07-11.27.11-16.91,0a2.83,2.83,0,0,0-3.17,2.17c-3.71,9.63-7.53,19.22-11.34,28.81a3,3,0,0,1-1.7,2.22c0-10.57,0-20.76,0-30.94,0-1.68-.38-2.3-2.18-2.26-5.24.12-10.5.09-15.75,0-1.37,0-2.06.32-2.34,1.77q-5,25.86-10.14,51.69c-.28,1.42.14,1.69,1.46,1.66,3.08-.09,6.18-.14,9.26,0,1.64.08,2.24-.44,2.54-2q2.76-14.64,5.73-29.24c.56-2.74.8-5.57,2-8.63.35,11.14.66,21.77,1,32.4.08,2.44-1,5.8.6,7.06s4.71.26,7.17.43c1.44.1,2-.53,2.48-1.75,1.65-4.15,3.41-8.26,5.14-12.38Q208,223.58,213.05,211.47ZM252.9,245.8c0,1.09,0,1.85,0,2.59-.08.9,0,1.42,1.16,1.4,3.17-.07,6.33,0,9.5,0,1,0,1.25-.51,1.39-1.39,1.54-9.42,3.18-18.82,4.66-28.25,1.27-8.17-2.44-13.53-10.6-15.35-7.73-1.73-15.32-.65-22.84,1.4-.62.17-1.16.32-1.3,1.09-.55,3-1.13,6-1.75,9.17a55.88,55.88,0,0,1,17.51-1.9,9.18,9.18,0,0,1,4.23,1c1.87,1.08,1.9,2.83,1.49,4.67s-1.88.88-2.83.86a46.61,46.61,0,0,0-12.42.94c-5.64,1.38-10.68,3.72-13.36,9.32-4,8.26-.34,17.1,7.77,18.84C241.82,251.54,247.54,250,252.9,245.8Zm28.26,4.53c3.86.08,7.72.1,11.46-1.05,4.75-1.46,8.45-4.07,9.89-9.12,2.11-7.43-.64-13.27-7.73-16.41-2-.87-4-1.67-5.9-2.6a3,3,0,0,1-1.82-3.19c.15-1.55,1.19-2.25,2.47-2.73a10.1,10.1,0,0,1,1.35-.28c3.7-.82,7.38.09,11.07.14,1.37,0,1.89-.28,2-1.71a53.17,53.17,0,0,1,1.11-6.6c.29-1.33.16-1.9-1.41-2.07a84.53,84.53,0,0,0-12-.65c-4.1.14-8.15.7-11.84,2.71-4.77,2.6-7,6.66-7.1,12.09-.1,5.26,2.47,8.74,6.9,11.09,1.69.91,3.5,1.61,5.23,2.45a21,21,0,0,1,3.23,1.77c2.28,1.67,2,4.26-.55,5.5a10,10,0,0,1-4,.88,42.85,42.85,0,0,1-12.61-1.29c-.74-.19-1.65-.7-1.86.78-.37,2.59-.84,5.17-1.37,7.73-.24,1.19.31,1.4,1.3,1.61A60,60,0,0,0,281.16,250.33Z"/><path class="cls-4" d="M541.54,246.43c-3.39,2-6.81,3.81-10.91,3.95-8.55.31-14.68-4-17.06-12.27-3.12-10.76,2-24.46,11.37-30.57,7.21-4.7,15.28-4.24,21.86,1.22l1.67,1.35c.86-4.55,1.73-8.81,2.44-13.09.27-1.67.87-2.33,2.66-2.25,3.23.15,6.48.07,9.72,0,1.19,0,1.62.23,1.37,1.58q-4.9,25.75-9.69,51.52c-.27,1.47-.85,2-2.41,1.94-2.54-.16-5.09-.05-7.64-.05-3.29,0-3.29,0-3.22-3.19l.15-.3Zm3.5-22c0-.64,0-1.64-.18-2.64-.49-3.67-2.59-6-5.71-6.31a9.21,9.21,0,0,0-9,4c-2.82,3.92-3.34,8.39-2.87,13,.53,5.31,4.74,7.93,9.82,6.21a9.8,9.8,0,0,0,5-3.92A17.39,17.39,0,0,0,545,224.45Z"/><path class="cls-4" d="M472.16,245.55a20.53,20.53,0,0,1-11.14,5c-11.17,1.61-18.54-7.4-14.6-18,2.4-6.43,7.83-9,14-10.5a44.82,44.82,0,0,1,12.18-.94c1,0,2.53,1.3,3-.88.39-2,.33-3.73-1.71-4.77a9.41,9.41,0,0,0-4-.89,53.08,53.08,0,0,0-17.5,2c.63-3.28,1.22-6.25,1.78-9.23.14-.76.71-.91,1.32-1.08,7.52-2,15.11-3,22.85-1.38S490,212.09,488.78,220c-1.47,9.35-3.11,18.68-4.64,28-.21,1.3-.71,1.82-2.09,1.76a69.54,69.54,0,0,0-7.64,0c-2,.13-2.72-.45-2.27-2.42A10.28,10.28,0,0,0,472.16,245.55Zm-2-16c-3.13.28-6.34.26-9.09,2.17a5.67,5.67,0,0,0-2.3,6.09c.57,1.92,2.53,3.12,5.13,3.14,4.36,0,7.86-2.95,9.13-7.75C473.93,229.87,473.66,229.51,470.18,229.57Z"/><path class="cls-4" d="M409.06,206.18a31.93,31.93,0,0,1,15.28-11.09c8-2.58,15.82-1.43,23.63.91,1.19.35,1.12,1.08,1,1.95-.62,3.47-1.27,6.94-1.93,10.56a29.58,29.58,0,0,0-10.74-3.15c-9.83-.65-17.6,6.28-18.81,16.75a29.26,29.26,0,0,0-.3,4.85c.53,9.38,7.65,14.25,17.49,12,2.24-.52,4.42-1.3,6.89-2-.09,3-1,5.86-1.49,8.76-.56,3.6-.66,3.54-4.34,4.2a41.44,41.44,0,0,1-13.1.57c-7.93-1.08-13.82-4.94-17.37-12.19a40.42,40.42,0,0,1-1.9-7.5l0-7.78A38.08,38.08,0,0,1,409.06,206.18Z"/><path class="cls-4" d="M326.46,246c0,2.86-1.82,3.78-4.36,4.08a49.37,49.37,0,0,1-7.59.6c-6.55-.27-10.5-4.66-9.57-11.16,1.9-13.33,4.75-26.49,7.47-39.68.24-1.2.79-1.59,2-1.56,3.31.06,6.63,0,9.94-.05,1.66-.1,2.14.62,1.58,2.17a6,6,0,0,0-.18,1.54c0,1.17-2.17,3.07,1.08,3.14,4.93.11,4.93.13,4.06,5.13-.32,1.81-.05,4.16-1.09,5.28-1.21,1.28-3.64.32-5.53.41-.84,0-1.45.08-1.64,1.1-1.15,6.35-2.36,12.69-3.53,19-.35,1.89.67,2.89,2.36,3.36a6.92,6.92,0,0,0,3,.13c3.05,0,3,0,2.46,3.07C326.7,243.75,326.61,244.89,326.46,246Z"/><path class="cls-3" d="M324.46,239.55a7,7,0,0,1-3-.13c-1.69-.47-2.71-1.47-2.36-3.36,1.17-6.34,2.38-12.68,3.53-19,.19-1,.8-1.05,1.64-1.1,1.89-.09,4.32.87,5.53-.41,1-1.12.77-3.47,1.09-5.28.87-5,.87-5-4.06-5.13-3.25-.07-1.07-2-1.08-3.14q28.71,0,57.44.06c7.49,0,15,.1,22.47-.05,2.27,0,3.34.48,3.05,2.87a3.88,3.88,0,0,0,.33,1.33A38.08,38.08,0,0,0,403.31,223l-10.62-.07c1.22-3.21,3.08-5.56,7-5,1.06.15,1.06-.55,1.23-1.22a40.33,40.33,0,0,1,4-10.75c.61-1,.28-1.35-.78-1.4a10.7,10.7,0,0,0-6.75,1.95,27.45,27.45,0,0,0-4.52,4.33,9.19,9.19,0,0,1,.45-3.65c.31-1.41.09-2.11-1.62-2-2.93.14-5.86.09-8.79,0-1.35,0-2,.24-2.24,1.79-.93,5.38-2.08,10.71-3.15,16.06l-4.57,0c0-1.23.07-2.47,0-3.69-.54-6.36-3.46-11.29-9.49-13.61-8.68-3.33-16.93-2.44-24.23,3.78-4.25,3.62-6.61,8.41-8.36,13.58l-6.43-.08c-.82,0-1.61,0-1.51,1.15.19,2.13-.12,4.54.81,6.27.67,1.24,3.13.29,4.78.44a10.62,10.62,0,0,0,1.38,0l1.24,7.48c-1.74,0-3.48,0-5.22,0C324.94,238.19,324.19,238.3,324.46,239.55Z"/><path class="cls-4" d="M506.51,210.63c3.33-3.7,6.78-6.82,12.47-5.91a44,44,0,0,0-4.69,12.36c-.16.73-.62.81-1.19.74-4.07-.52-5.83,2.14-7.14,5.28-1.94,4.65-2.68,9.62-3.65,14.52-.69,3.47-1.35,6.95-1.91,10.45-.21,1.3-.69,1.82-2.08,1.78-3.24-.1-6.49-.16-9.72,0-2,.11-2.45-.5-2.07-2.42,1.65-8.3,3.17-16.63,4.75-24.94,1-5.22,2.06-10.43,3-15.66.24-1.42.82-1.72,2.11-1.69,2.93.08,5.86.11,8.79,0,1.63-.07,2.05.54,1.66,2A6.92,6.92,0,0,0,506.51,210.63Z"/><path class="cls-4" d="M377.53,223c1.07-5.35,2.22-10.68,3.15-16.06.26-1.55.89-1.83,2.24-1.79,2.93.07,5.86.12,8.79,0,1.71-.08,1.93.62,1.62,2a9.19,9.19,0,0,0-.45,3.65,27.45,27.45,0,0,1,4.52-4.33,10.7,10.7,0,0,1,6.75-1.95c1.06,0,1.39.37.78,1.4a40.33,40.33,0,0,0-4,10.75c-.17.67-.17,1.37-1.23,1.22-3.89-.54-5.75,1.81-7,5a24.63,24.63,0,0,0-2.42,7.84l-1.45,7.52a54.91,54.91,0,0,0-1.45,7.84c-1,3.76-1,3.76-5,3.76-2.44,0-4.9-.14-7.33,0-2,.15-2.61-.49-2-2.37a10.52,10.52,0,0,0,.21-1.12l1.47-8.15q.71-3.74,1.42-7.47A44.13,44.13,0,0,0,377.53,223Z"/><path class="cls-3" d="M388.82,238.24c.48-2.51,1-5,1.45-7.52h13.07a40.42,40.42,0,0,0,1.9,7.5Z"/><path class="cls-4" d="M213.05,211.47Q208,223.59,202.87,235.7c-1.73,4.12-3.49,8.23-5.14,12.38-.49,1.22-1,1.85-2.48,1.75-2.46-.17-5.67.8-7.17-.43s-.52-4.62-.6-7.06c-.38-10.63-.69-21.26-1-32.4-1.22,3.06-1.46,5.89-2,8.63q-3,14.6-5.73,29.24c-.3,1.59-.9,2.11-2.54,2-3.08-.16-6.18-.11-9.26,0-1.32,0-1.74-.24-1.46-1.66q5.13-25.83,10.14-51.69c.28-1.45,1-1.79,2.34-1.77,5.25.08,10.51.11,15.75,0,1.8,0,2.2.58,2.18,2.26-.06,10.18,0,20.37,0,30.94a3,3,0,0,0,1.7-2.22c3.81-9.59,7.63-19.18,11.34-28.81a2.83,2.83,0,0,1,3.17-2.17c5.64.13,11.28.09,16.91,0,1.61,0,2.26.07,1.86,2.1-3.39,17.07-6.65,34.17-9.91,51.27-.24,1.25-.66,1.79-2.08,1.75-3.93-.11-7.86,0-12.16,0,2.37-12.85,4.72-25.55,7.07-38.25Z"/><path class="cls-4" d="M252.9,245.8c-5.36,4.24-11.08,5.74-17.41,4.38-8.11-1.74-11.74-10.58-7.77-18.84,2.68-5.6,7.72-7.94,13.36-9.32a46.61,46.61,0,0,1,12.42-.94c.95,0,2.4,1,2.83-.86s.38-3.59-1.49-4.67a9.18,9.18,0,0,0-4.23-1,55.88,55.88,0,0,0-17.51,1.9c.62-3.2,1.2-6.18,1.75-9.17.14-.77.68-.92,1.3-1.09,7.52-2.05,15.11-3.13,22.84-1.4,8.16,1.82,11.87,7.18,10.6,15.35-1.48,9.43-3.12,18.83-4.66,28.25-.14.88-.35,1.41-1.39,1.39-3.17,0-6.33-.06-9.5,0-1.13,0-1.24-.5-1.16-1.4C253,247.65,252.9,246.89,252.9,245.8Zm-2.66-16.09c-3.66.13-6.29.74-8,1.86a5.76,5.76,0,0,0-2.59,6.18c.66,2.08,2.64,3.26,5.35,3.2,3.93-.08,7-2.43,8.47-6.7C255.19,229.06,254.57,229.76,250.24,229.71Z"/><path class="cls-4" d="M330.84,223c1.75-5.17,4.11-10,8.36-13.58,7.3-6.22,15.55-7.11,24.23-3.78,6,2.32,8.95,7.25,9.49,13.61.11,1.22,0,2.46,0,3.69l-1.44,7.79c-.65.8-1.55.52-2.37.52-7.46,0-14.92,0-22.38,0-3.3,0-3.93,1-2.69,4.09a5.09,5.09,0,0,0,2.7,3,5.48,5.48,0,0,0,3.06,1.48c6,1.41,11.88.59,17.62-1.49.89.22,1.73-1,2.65-.1a40.77,40.77,0,0,0-1.72,7.85c-.32,2-1.15,3.22-3.38,3.59-6.64,1.09-13.26,1.6-19.91.14a26,26,0,0,1-8.57-3.78,21.69,21.69,0,0,1-5.42-7.8c-.41-2.49-.83-5-1.24-7.48C330.19,228.15,330.52,225.56,330.84,223Zm21.57-.95c2.07,0,4.15,0,6.23,0,.56,0,1.17.18,1.39-.75a6,6,0,0,0-3.65-6.71,8.73,8.73,0,0,0-11.08,6c-.32,1.12-.11,1.53,1.11,1.49C348.4,222,350.41,222,352.41,222Z"/><path class="cls-4" d="M281.16,250.34a60.77,60.77,0,0,1-12.19-1c-1-.21-1.54-.42-1.3-1.61.53-2.56,1-5.14,1.37-7.73.21-1.48,1.12-1,1.86-.78a42.85,42.85,0,0,0,12.61,1.29,10,10,0,0,0,4-.88c2.54-1.24,2.83-3.83.55-5.5a21,21,0,0,0-3.23-1.77c-1.73-.84-3.54-1.54-5.23-2.45-4.43-2.35-7-5.83-6.9-11.09.11-5.43,2.33-9.49,7.1-12.09,3.69-2,7.74-2.57,11.84-2.71a84.53,84.53,0,0,1,12,.65c1.57.17,1.7.74,1.41,2.07a53.17,53.17,0,0,0-1.11,6.6c-.13,1.43-.65,1.73-2,1.71-3.69-.05-7.37-1-11.07-.14a10.1,10.1,0,0,0-1.35.28c-1.28.48-2.32,1.18-2.47,2.73a3,3,0,0,0,1.82,3.19c1.93.93,3.93,1.73,5.9,2.6,7.09,3.14,9.84,9,7.73,16.41-1.44,5.05-5.14,7.66-9.89,9.12C288.88,250.43,285,250.41,281.16,250.34Z"/><path class="cls-2" d="M331.11,238.22a21.69,21.69,0,0,0,5.42,7.8H326.46c.15-1.14.24-2.28.45-3.41.57-3,.59-3-2.46-3.07-.26-1.25.49-1.36,1.44-1.35C327.63,238.23,329.37,238.22,331.11,238.22Z"/><path class="cls-2" d="M368.39,246.07a40.77,40.77,0,0,1,1.72-7.85l4.59,0-1.47,8.15C371.65,245.81,370,246.24,368.39,246.07Z"/><path class="cls-2" d="M545,224.45a17.39,17.39,0,0,1-2.95,10.41,9.8,9.8,0,0,1-5,3.92c-5.08,1.72-9.29-.9-9.82-6.21-.47-4.64,0-9.11,2.87-13a9.21,9.21,0,0,1,9-4c3.12.34,5.22,2.64,5.71,6.31C545,222.81,545,223.81,545,224.45Z"/><path class="cls-5" d="M541.54,246.43l.31-.14-.15.3Z"/><path class="cls-2" d="M470.19,229.58c3.47-.07,3.74.29,2.86,3.64-1.27,4.8-4.77,7.76-9.13,7.75-2.6,0-4.56-1.22-5.13-3.14a5.67,5.67,0,0,1,2.3-6.09C463.84,229.83,467.05,229.85,470.19,229.58Z"/><path class="cls-2" d="M403.34,230.73H390.27a24.63,24.63,0,0,1,2.42-7.84l10.62.07Z"/><path class="cls-2" d="M330.84,223c-.32,2.58-.65,5.17-1,7.76a10.62,10.62,0,0,1-1.38,0c-1.65-.15-4.11.8-4.78-.44-.93-1.73-.62-4.14-.81-6.27-.1-1.14.69-1.16,1.51-1.15Z"/><path class="cls-2" d="M371.52,230.71l1.44-7.79,4.57,0a44.13,44.13,0,0,1-1.41,7.81Z"/><path class="cls-3" d="M371.52,230.71l4.6.06q-.72,3.73-1.42,7.47l-4.59,0c-.92-.91-1.76.32-2.65.1H346.78a5.09,5.09,0,0,1-2.7-3c-1.24-3.12-.61-4.09,2.69-4.09,7.46,0,14.92,0,22.38,0C370,231.23,370.87,231.51,371.52,230.71Z"/><path class="cls-3" d="M250.24,229.71c4.33,0,4.95-.65,3.21,4.54-1.43,4.27-4.54,6.62-8.47,6.7-2.71.06-4.69-1.12-5.35-3.2a5.76,5.76,0,0,1,2.59-6.18C244,230.45,246.58,229.84,250.24,229.71Z"/><path class="cls-3" d="M352.41,222c-2,0-4-.05-6,0-1.22,0-1.43-.37-1.11-1.49a8.73,8.73,0,0,1,11.08-6,6,6,0,0,1,3.65,6.71c-.22.93-.83.74-1.39.75C356.56,222,354.48,222,352.41,222Z"/><path class="cls-2" d="M346.78,238.33h20.68c-5.74,2.08-11.59,2.9-17.62,1.49A5.48,5.48,0,0,1,346.78,238.33Z"/></g></g></svg>