<svg xmlns="http://www.w3.org/2000/svg" viewBox="0 0 732.28 437.01"><defs><style>.cls-1{fill:#eef1f5;}.cls-2{opacity:0.5;}.cls-3{fill:#231f20;}</style></defs><title>Inactive-Azampesa</title><g id="Layer_2" data-name="Layer 2"><g id="Layer_1-2" data-name="Layer 1"><rect id="Rectangle_79" data-name="Rectangle 79" class="cls-1" width="732.28" height="437.01" rx="50.62"/><g class="cls-2"><path class="cls-3" d="M328.42,273.59c10.68-2.37,21.37-4.39,31.73-7.71,16.88-5.42,33.13-12.09,47.47-22.91,19.24-14.52,15-36.12,3.05-48.45-8.7-9-19.5-14.39-31.07-18.51A186,186,0,0,0,342,167.13c-.36,0-.71-.2-1.06-.88h287.9c9.71,0,13.56,3.81,13.56,13.41V259.8c0,9.75-4,13.79-13.64,13.79H328.42Zm111-55.22V236.5c0,7.35,0,7.26,7.32,7.19,2.11,0,2.45-.79,2.38-2.6-.12-3.29.1-6.58-.08-9.86-.11-2,.66-2.45,2.54-2.44a91.3,91.3,0,0,0,12.7-.28c15.18-2,18.05-15.36,14.41-25.27-2.62-7.16-8.81-9.7-15.94-9.93-6.78-.23-13.57,0-20.35-.14-2.31-.06-3.1.47-3,2.93C439.53,203.52,439.42,211,439.42,218.37Zm148.43,21.09c-.83,4,1,4.47,3.55,4.19a22,22,0,0,1,3.81,0c1.53.11,2-.51,2-2-.15-8.15-.09-16.32-.38-24.47-.22-6.28-3.5-10.22-9.67-11.76a28.53,28.53,0,0,0-19.21,2c-4,1.82-3.78,1.72-2,5.79,1.17,2.59,2.29,2.45,4.47,1.32a16.53,16.53,0,0,1,12.61-1.5,6,6,0,0,1,4.38,4.55c.55,2.05.14,2.9-2.17,2.86-4-.07-8.07,0-12.07.27-7,.58-11.37,5-11.41,11.29s4.22,10.89,11,11.84A18.36,18.36,0,0,0,587.85,239.46Zm-80-11.79c4.14,0,8.27,0,12.4,0,.94,0,2,.18,2-1.31.29-6.74-1.1-15.13-8-19.2-7.69-4.52-19.2-2.92-25.2,3.51s-6.74,17.74-1.78,25.11c5.69,8.47,19.5,10.87,28.78,5,4.51-2.84,4.49-3.11.87-7-1.23-1.34-2-1.67-3.57-.38a13.06,13.06,0,0,1-10.14,2.78,10.34,10.34,0,0,1-8.66-6.13c-.78-1.58-.59-2.47,1.57-2.4C500.05,227.77,504,227.67,507.89,227.67Zm35-23.1c-1.17.05-2.34.06-3.5.17-6,.54-10.74,4.43-11.38,9.32-.83,6.35,1.51,10,8.2,12.45,2.67,1,5.44,1.74,8.09,2.76,1.92.74,3.83,1.78,3.41,4.32s-2.57,2.9-4.61,3a18.76,18.76,0,0,1-11.73-3.23c-2-1.34-2.9-1-3.52,1.16a5.33,5.33,0,0,1-.89,1.68c-1.37,1.84-.62,2.93,1.11,4a25.45,25.45,0,0,0,19.57,3c4.41-1,8.07-3.38,9.09-8.26,1.34-6.45-1.42-11-8.14-13.43-3-1.09-6.07-1.87-9-3-1.56-.61-3.16-1.61-2.76-3.74s2.13-2.51,3.85-2.72a14.78,14.78,0,0,1,8.91,1.75c2.94,1.62,4.57,1.24,5.46-2a2.54,2.54,0,0,1,.47-.83c1.47-1.9.64-2.92-1.27-3.76A26.39,26.39,0,0,0,542.88,204.57Z"/><path class="cls-3" d="M244.61,273.08a10.15,10.15,0,0,1,5.36-1.37c10.68-.73,21.38-1.19,32-2.06,22.8-1.86,45.22-5.4,65.95-15.87,6.07-3.07,11.93-6.49,16.28-11.91,5-6.26,5-12.6-.16-18.75-4.59-5.49-10.68-9-17.07-11.84-15.86-7.16-32.69-10.8-49.78-13.46-33-5.15-66.28-5.45-99.57-3.84-22.76,1.09-45.41,3.23-67.44,9.58-12,3.45-23.45,7.92-33.64,15.27a32.85,32.85,0,0,0-7.22,6.64c-1.59,2.11-2.13,1.11-3-.46a18.22,18.22,0,0,1,.13-17.93c4-7.51,10.77-12.12,17.86-16.25,17.86-10.4,37.34-16.4,57.46-20.39,39.34-7.81,79.08-8.85,119-6.63,16.94.94,33.83,2.35,50.62,4.7,20.19,2.83,40.08,6.85,58.52,16a59.48,59.48,0,0,1,17.84,13c11.17,12.23,12.13,29.71-3.62,41.74-12.42,9.48-26.55,15.33-41.18,20.06-25,8.1-50.94,11.49-77.07,13.55a340.37,340.37,0,0,1-35.56,1.21A13.32,13.32,0,0,1,244.61,273.08Z"/><path class="cls-3" d="M269.93,218c1.71-2.15,3-4.07,4.57-5.7,4.62-4.79,8.88-3.83,11.28,2.44.3.77.58,1.55,1,2.79,1.46-1.86,2.62-3.53,4-5,1.83-2,4-3.8,6.89-3.05s4.33,3.26,5,6a29.89,29.89,0,0,1,.79,7.56c0,8.26-.07,16.53,0,24.8,0,2.6-.17,5.4,2.46,7.15.66.44.57,1.1.47,1.7-.14.85-.88.78-1.5.78H292.23c-.61,0-1.37.12-1.49-.76-.1-.72-.17-1.44.64-2,1.73-1.1,2-2.92,2-4.75,0-8.69,0-17.37,0-26.06a9.19,9.19,0,0,0-.2-1.89c-.21-1-.58-1.92-1.61-2.19a2.29,2.29,0,0,0-2.56,1.46,15.17,15.17,0,0,0-2.08,7.26c-.09,7.1-.08,14.2-.07,21.3,0,1.85.34,3.63,1.93,4.83a1.8,1.8,0,0,1,.65,2c-.2,1.07-1.12.77-1.8.77q-5.88,0-11.76,0c-.69,0-1.57.33-2-.6a1.63,1.63,0,0,1,.74-2.15c1.7-1.25,2-3.19,2-5.11q.06-12.7,0-25.43a7.71,7.71,0,0,0-.54-2.77c-.83-2.11-2.17-2.17-3.57-.55a10.08,10.08,0,0,0-2.25,6.17,230,230,0,0,0-.11,23.19,5.42,5.42,0,0,0,1.93,4.5,1.79,1.79,0,0,1,.7,1.94c-.19,1.08-1.1.81-1.78.81-4,0-8.05,0-12.08,0-.6,0-1.34.17-1.61-.64a1.58,1.58,0,0,1,.52-2c2-1.54,2.13-3.84,2.15-6q.09-14.62,0-29.25c0-2.12-.34-4.14-2-5.8-1.53-1.49-1.15-2.6,1.14-2.78,1.26-.1,2.51-.37,3.78-.51,6-.71,6-.71,6.67,5.38C269.71,216.47,269.8,217.05,269.93,218Z"/><path class="cls-3" d="M162.87,227.75c.26-5.24.52-10.49.8-16.05,1.84,1,3.49.46,5.2-.3a30.34,30.34,0,0,1,5.12-1.67c7.07-1.76,11.87,1.31,13.21,8.42.75,4,.4,8,.43,12,.05,6,0,12.08,0,18.11,0,2.45,0,4.91,2.31,6.6a1.59,1.59,0,0,1,.41,2c-.3.78-1,.58-1.64.59-1.38,0-2.75,0-4.13,0-5.44,0-5.44,0-6.89-5.37-1.44,1.94-2.71,3.87-4.76,5.09-4.88,2.9-9.45,1.33-11.46-4-4-10.67,1.16-21.34,12.49-25.83,4.21-1.67,4.38-2,3.54-6.43-.73-3.89-3.9-5.36-7.36-3.41-3,1.69-4.21,4.64-5.38,7.61-.37.94-.71,1.88-1.07,2.82Zm14.69,9.69c.08-.89.14-1.42.17-1.94.06-1.12.74-2.68-.36-3.2-1.32-.62-2.56.6-3.46,1.6a13.92,13.92,0,0,0-3.34,12c.22,1.4.82,2.87,2.31,3.09s2.36-1.12,3-2.41A24.22,24.22,0,0,0,177.56,237.44Z"/><path class="cls-3" d="M226.51,227.81c.3-5.29.6-10.59.93-16.26,1.54,1.06,2.94.78,4.43.16,2.93-1.21,5.86-2.46,9.13-2.44,5.11,0,8.36,2.59,9.61,7.51.84,3.33.73,6.72.75,10.1,0,6.78-.08,13.55,0,20.33,0,2.8-.17,5.66,2.36,7.9,1.08,1,.85,2.4-1.18,2.4h-4.13c-5.28,0-5.28,0-7-5.07-1.66,1.35-2.55,3.33-4.32,4.48-5.14,3.33-9.72,1.92-11.93-3.79-4-10.42,1.26-21.67,12.58-25.65,3.51-1.23,4-3,3.53-6-.74-4.65-4.71-6.25-8.39-3.29a15.19,15.19,0,0,0-4.5,7.15c-.31.88-.62,1.75-.94,2.62Zm14.91,8.13c-.41-1,1-3.11-.49-3.67s-3,1.13-4.05,2.47a13.78,13.78,0,0,0-2.71,11c.25,1.45.76,3.1,2.49,3.27,1.57.16,2.34-1.24,2.89-2.52C241,243.27,241,239.76,241.42,235.94Z"/><path class="cls-3" d="M220.72,241.19c-.91,5.77-1.81,11.53-2.69,17.13-8.12-1.8-16.35-.17-24.8-1,2.33-6.83,4.62-13.51,6.89-20.19,2-6,4-12,6.14-18,.76-2.06.1-2.39-1.69-2.34-3.11.07-4.67,2.21-6,4.56a44,44,0,0,0-1.88,4.47l-.84-.2c.62-5.35,1.24-10.69,1.93-16.62,1.48,1.75,3.05,1.59,4.58,1.59,5,0,10,.11,14.94-.05,2.56-.08,3,.47,2.16,3-4.09,11.68-7.93,23.44-12,35.13-.73,2.09-.48,2.72,1.81,2.72,4.34,0,7.21-2,9-6.66l1.41-3.77Z"/><path class="cls-3" d="M449.32,210.85c0-2.95-1.16-6.91.3-8.58,1.72-2,5.76-.49,8.8-.61a22.39,22.39,0,0,1,5,.34c4.87.94,7.38,4,7.36,8.85s-2.55,8-7.36,8.88c-4.3.81-8.67.24-13,.37-1.47,0-1.36-1-1.37-1.94v-7.31Z"/><path class="cls-3" d="M577.78,236.75a8.85,8.85,0,0,1-4.58-1.11,4.68,4.68,0,0,1-2.38-4.82,4,4,0,0,1,3.77-3.71c3.9-.27,7.83-.21,11.75-.29,1.13,0,1.33.63,1.42,1.62.26,3.11-1.58,5.8-5,7.28A13.82,13.82,0,0,1,577.78,236.75Z"/><path class="cls-3" d="M503.55,221.27c-2.65,0-5.3-.07-7.95,0-1.84.06-2.11-.47-1.51-2.21a9.88,9.88,0,0,1,9.85-7c4.55,0,7.95,2.4,9.2,6.37.58,1.84.6,3.07-2,2.88S506.09,221.27,503.55,221.27Z"/></g></g></g></svg>