<svg xmlns="http://www.w3.org/2000/svg" viewBox="0 0 732.28 437.01"><defs><style>.cls-1{fill:#eef1f5;}.cls-2{opacity:0.51;}.cls-3{fill:#231f20;}</style></defs><title>Inactive-tigopesa</title><g id="Layer_2" data-name="Layer 2"><g id="Layer_1-2" data-name="Layer 1"><rect id="Rectangle_76" data-name="Rectangle 76" class="cls-1" width="732.28" height="437.01" rx="50.62"/><g id="Group_157" data-name="Group 157" class="cls-2"><path id="Path_345" data-name="Path 345" class="cls-3" d="M650.2,188c-.62,1.23-.62,1.84-1.23,3.07a193.86,193.86,0,0,1-79.22,81.05,8.44,8.44,0,0,1-11-1.23c-9.21-8-19-16-28.25-23.94-4.3-3.69-4.3-4.3.62-7.37a219.1,219.1,0,0,0,66.32-63.86c3.07-4.91,6.75-9.21,9.21-14.12,1.84-3.07,3.07-3.69,6.14-1.23,11.67,8,23.33,16.58,35,24.56a13.1,13.1,0,0,1,3.07,1.84A1.89,1.89,0,0,1,650.2,188Z"/><path id="Path_346" data-name="Path 346" class="cls-3" d="M305.72,240.79a107.35,107.35,0,0,1-3.07,13.51c-1.84,8.6-1.84,9.21-12.28,7.37a11.84,11.84,0,0,1,.62-4.91c4.29-22.73,8.6-45.44,12.27-68.78a4.07,4.07,0,0,1,4.3-3.69,20.79,20.79,0,0,1,6.14.62,11.88,11.88,0,0,0,.62,4.91,116.25,116.25,0,0,1,12.89-5.53,16.25,16.25,0,0,1,20.5,10.34c.14.44.27.88.38,1.33,5.52,17.2-6.75,43.6-28.25,45.44A56.58,56.58,0,0,1,305.72,240.79Zm11-8.6c1.84-.61,4.3-.61,5.53-1.23A28.87,28.87,0,0,0,337,200.87a9.17,9.17,0,0,0-10.19-8,9.07,9.07,0,0,0-4.55,1.87,20.45,20.45,0,0,0-8.6,10.44,144.71,144.71,0,0,0-5.52,22.11c0,1.23,1.23,3.07,2.45,3.07A7.41,7.41,0,0,0,316.77,232.19Z"/><path id="Path_347" data-name="Path 347" class="cls-3" d="M275.63,213.16c0,20.87-16.58,33.77-35,28.25a25.63,25.63,0,0,1-18.42-23.95A29.83,29.83,0,0,1,237,187.37C256,177.54,275.63,191.05,275.63,213.16Zm-14.74.61a20.86,20.86,0,0,0-.62-6.14,11.37,11.37,0,0,0-11.66-10.44c-6.15,0-9.83,3.08-11.06,10.44a37.14,37.14,0,0,0,.62,14.13,10.06,10.06,0,0,0,10.44,8c7.38,0,12.29-5.53,12.29-16Z"/><path id="Path_348" data-name="Path 348" class="cls-3" d="M491.16,240.18v-6.75A77.32,77.32,0,0,1,477,240.79a16,16,0,0,1-20.88-14.12,39.49,39.49,0,0,1,50.35-42.37c3.69,1.23,3.07,3.07,2.46,5.53-1.84,11.67-4.3,23.33-6.15,35.61a53,53,0,0,0-.61,9.83c0,4.29-1.23,5.52-5.53,4.91Zm4.91-46.06a2.26,2.26,0,0,0-1.84-.61,21.31,21.31,0,0,0-20.87,9.82,25.44,25.44,0,0,0-4.91,24.56,6.32,6.32,0,0,0,8,3.92l.57-.23a12.8,12.8,0,0,0,6.14-3.69C493.62,218.72,494.23,205.78,496.07,194.12Z"/><path id="Path_349" data-name="Path 349" class="cls-3" d="M202,214.38h8c4.3.62,6.15,2.46,6.15,6.76v5.53c0,11.05-3.69,14.74-14.13,17.19a30,30,0,1,1-6.72-59,52.11,52.11,0,0,1,9.82.62,11.74,11.74,0,0,1,10.56,12.83,11.61,11.61,0,0,1-.74,3.13,118.78,118.78,0,0,0-14.13-3.69,17.36,17.36,0,0,0-20.87,22.11,15.25,15.25,0,0,0,18,11.92c.35-.07.71-.15,1.06-.25a12.41,12.41,0,0,0,3.68-4.3C202.57,223,202,218.69,202,214.38Z"/><path id="Path_350" data-name="Path 350" class="cls-3" d="M395.37,229.12c3.07,6.75,2.46,9.22-4.91,11.06a43.63,43.63,0,0,1-15.35,1.23,18.1,18.1,0,0,1-17.8-17.2,38,38,0,0,1,19-38.68,20.63,20.63,0,0,1,16-1.84A14.31,14.31,0,0,1,404,196.58a13.34,13.34,0,0,1-8.6,15.35,142.89,142.89,0,0,1-22.11,4.91c-4.91.61-6.14,1.23-4.91,6.14A11.35,11.35,0,0,0,380,232.19,111.36,111.36,0,0,0,395.37,229.12Zm-23.95-20.87a150.91,150.91,0,0,0,17.81-4.3c3.07-.61,4.29-3.68,3.68-7.36a5.91,5.91,0,0,0-6.14-4.3C379.41,192.28,373.88,197.81,371.42,208.25Z"/><path id="Path_351" data-name="Path 351" class="cls-3" d="M126.43,185.53c1.23,9.21-1.23,12.89-9.22,12.89H108v23.33c0,4.91,3.07,7.36,8,7.36a59.15,59.15,0,0,0,10.44-1.23c1.23,9.22-1.84,13.51-11,14.13a19.37,19.37,0,0,1-22.11-19.65v-35a12.73,12.73,0,0,1,11.85-13.55,11.47,11.47,0,0,1,2.27.05v12.27C114.14,185.53,120.28,185.53,126.43,185.53Z"/><path id="Path_352" data-name="Path 352" class="cls-3" d="M179.85,251.85c27,25.78,48.5,25.78,74.3,0a26.1,26.1,0,0,1-4.91,20.26A43.32,43.32,0,0,1,188.09,276c-.94-.83-1.84-1.7-2.71-2.61A24.25,24.25,0,0,1,179.85,251.85Z"/><path id="Path_353" data-name="Path 353" class="cls-3" d="M412.57,229.73c4.29.62,8,1.84,12.27,2.46a7.59,7.59,0,0,0,8.6-5.53,8.19,8.19,0,0,0-3.69-9.21l-5.52-3.69a15.88,15.88,0,0,1,1.23-27.63,24.81,24.81,0,0,1,20.87-1.24c3.69,1.24,3.08,3.69,1.84,6.15-.61,1.84-1.23,4.91-4.91,3.68a16.19,16.19,0,0,0-9.21-1.23,8.9,8.9,0,0,0-5.53,4.91c-.61,1.84,1.23,4.91,2.46,6.76s3.69,2.46,5.52,3.69a17.36,17.36,0,0,1,8.6,17.8,17.57,17.57,0,0,1-14.74,14.74,49.3,49.3,0,0,1-13.51,0C408.88,239.56,407.66,236.49,412.57,229.73Z"/><path id="Path_354" data-name="Path 354" class="cls-3" d="M547.65,219.91c4.91-9.21,9.22-17.8,12.9-26.4,4.29-10.44,8-20.88,11.67-31.32,1.23-3.07,2.45-4.29,5.52-2.45a141.9,141.9,0,0,0,17.2,6.14A231.91,231.91,0,0,1,547.65,219.91Z"/><path id="Path_355" data-name="Path 355" class="cls-3" d="M160.8,230.35c1.23,9.21-1.84,12.27-10.43,11.05a14.29,14.29,0,0,1-14.13-14.12c-.62-13.51,0-27,0-39.92,8.6-2.45,14.13,1.24,14.13,9.83v20.87C150.37,229.12,150.37,229.12,160.8,230.35Z"/><path id="Path_356" data-name="Path 356" class="cls-3" d="M273.8,178.16a32.82,32.82,0,0,0-46.32-2.81,32.28,32.28,0,0,0-2.8,2.81,14.55,14.55,0,0,1,6.14-16,31.93,31.93,0,0,1,33.77-2.45A15.79,15.79,0,0,1,273.8,178.16Z"/><path id="Path_357" data-name="Path 357" class="cls-3" d="M534.76,226.05c1.84-6.14,4.3-12.89,6.14-19,3.07-13.51,6.15-27,8-39.91.61-3.69,1.83-4.92,5.52-3.69,3.07.61,5.53,1.23,9.22,1.84A190.89,190.89,0,0,1,534.76,226.05Z"/><path id="Path_358" data-name="Path 358" class="cls-3" d="M151.6,173.25a8.3,8.3,0,1,1-8.6-8h0A8.67,8.67,0,0,1,151.6,173.25Z"/><path id="Path_359" data-name="Path 359" class="cls-3" d="M524.32,250a253.34,253.34,0,0,0,21.49,16.58.59.59,0,0,1-.58.61h0c-7.37-3.68-15.35-6.75-22.72-11.05C517.56,253.68,522.48,252.45,524.32,250Z"/><path id="Path_360" data-name="Path 360" class="cls-3" d="M544.59,273.94c-9.21-2.45-18.42-5.52-27.63-8a7.33,7.33,0,0,1-3.07-3.07c1.23,0,3.07-.62,4.29,0,8.6,3.69,17.8,7.37,26.4,11.05Z"/></g></g></g></svg>