<svg xmlns="http://www.w3.org/2000/svg" viewBox="0 0 750.88 438.72"><defs><style>.cls-1{fill:#eef1f5;}.cls-2{opacity:0.5;}.cls-3{isolation:isolate;}.cls-4{fill:#231f20;}</style></defs><title>Inactive-Bank</title><g id="Layer_2" data-name="Layer 2"><g id="Layer_1-2" data-name="Layer 1"><rect id="Rectangle_85" data-name="Rectangle 85" class="cls-1" width="750.88" height="438.72" rx="50.62"/><g id="Pay_to_Bank" data-name="Pay to Bank" class="cls-2"><g class="cls-3"><path class="cls-4" d="M233.86,273.92V169.13H256.5q15.09,0,23,4.6a27,27,0,0,1,9.6,9.68A27.65,27.65,0,0,1,293,197.46c0,8.06-3.61,15-10.9,20.95a26.75,26.75,0,0,1,9.06,6.45,29.33,29.33,0,0,1,7,19.42,27,27,0,0,1-7.52,19.27,30.27,30.27,0,0,1-11.9,7.91,51.36,51.36,0,0,1-17,2.46Zm13.89-59.65h10.52c6.22,0,10.67-.77,13.51-2.38,5.3-3,7.91-7.68,7.91-14,0-5.76-2.77-10.9-7.06-13.36-3.08-1.76-7.84-2.61-14.36-2.61H247.75Zm0,46.75h13c6.75,0,11.82-.92,15.12-2.84a15.56,15.56,0,0,0,8.44-14.43,16.63,16.63,0,0,0-7.9-14.36c-3.61-2.07-9.29-3.07-17.05-3.07H247.75Z"/><path class="cls-4" d="M380.87,273.92H367.44v-7.6a54.16,54.16,0,0,1-11.6,7.44,27.5,27.5,0,0,1-11,2.15,34.21,34.21,0,0,1-17.35-4.68A36.15,36.15,0,0,1,314.16,258a37.64,37.64,0,0,1-5-19c0-11.21,4.07-20.42,12.13-27.64a34.41,34.41,0,0,1,23.49-9.13,28.91,28.91,0,0,1,11,2.07,51.93,51.93,0,0,1,11.6,7.52v-7.6h13.43Zm-47.21-56.27c-7.29,4.37-10.9,11.43-10.9,21.34,0,8.21,2.53,14.58,7.67,19.11a21.58,21.58,0,0,0,14.9,5.61,20.93,20.93,0,0,0,16.27-7c4.07-4.45,6.07-10.44,6.07-18,0-8.06-2.54-14.28-7.6-18.81a22.67,22.67,0,0,0-26.41-2.22Z"/><path class="cls-4" d="M399.61,204.21H413v6.45a25.19,25.19,0,0,1,19.34-8.44,28.13,28.13,0,0,1,19.2,7.06c6.68,5.83,9.36,13.59,9.36,27v37.62H447.51V237.53c0-7.14-.92-12.44-2.77-15.82-2.53-4.6-7.06-6.9-13.74-6.9-6.52,0-12.59,3-15.12,7.67-1.92,3.38-2.84,8.91-2.84,16.58v34.86H399.61Z"/><path class="cls-4" d="M512.46,232.85l32,41.07H527.89l-24.57-32.09L493.11,252v22H479.68V169.13h13.43v65.79L524,204.21H541.4Z"/></g></g></g></g></svg>