<svg xmlns="http://www.w3.org/2000/svg" viewBox="0 0 275.53 275.53"><defs><style>.cls-1{fill:#0e8241;}.cls-2{fill:#fff;}</style></defs><title>instagram</title><g id="Layer_2" data-name="Layer 2"><g id="Layer_1-2" data-name="Layer 1"><rect class="cls-1" width="275.53" height="275.53" rx="17.66"/><path class="cls-2" d="M179.41,91.71h.12a9.23,9.23,0,0,1,9.21,9.34,9.41,9.41,0,0,1-9.42,9.28,9.31,9.31,0,0,1,.09-18.62Z"/><path class="cls-2" d="M214.37,103.66c1.16,12.21,1.9,69.88-1.69,83.39-4.81,17.69-16.34,28.15-34.24,31-6.69,1.07-24.74,1.72-42.78,1.72-18.46,0-36.9-.68-43.09-2.28C75,213,64.48,201.5,61.68,183.69c-2.08-13.08-2.3-73.86,1.48-87.06C68.08,79.44,79.56,69.35,97,66.48c7.89-1.29,23.3-1.74,38.87-1.74,14.47,0,29.08.39,37.87.87,10.64.56,20.39,4,28.31,11.59C209.54,84.42,213.39,93.45,214.37,103.66Zm-14.91,77.48c2.22-13.64,2.23-63.4,1-76.17-1.4-13.64-9.73-22.61-23.23-24.72-6.68-1-22.77-1.47-38.78-1.47-15.44,0-30.81.42-37.57,1.16-13.53,1.55-22.62,9.9-24.78,23.35-2.23,14.26-2.2,67.57-.53,78.28,1.72,11.15,8,18.81,19.14,21.92,6,1.69,24,2.29,41.71,2.29,16.26,0,32.23-.51,38.24-1.17,13.65-1.49,22.68-9.9,24.84-23.47"/><path class="cls-2" d="M138.09,102.54a39.4,39.4,0,0,1,39.43,39.8,40.13,40.13,0,0,1-40.09,39.73A39.36,39.36,0,0,1,98,142.28,40.06,40.06,0,0,1,138.09,102.54ZM137.51,168a26,26,0,0,0,25.94-25.48,25.47,25.47,0,0,0-25.28-26h-.23A26,26,0,0,0,112,142a25.5,25.5,0,0,0,25.27,26h.23"/></g></g></svg>