<?xml version="1.0" encoding="utf-8"?>
<!-- Generator: Adobe Illustrator 24.0.2, SVG Export Plug-In . SVG Version: 6.00 Build 0)  -->
<svg version="1.1" id="Layer_1" xmlns="http://www.w3.org/2000/svg" xmlns:xlink="http://www.w3.org/1999/xlink" x="0px" y="0px"
	 viewBox="0 0 1000 216.9" style="enable-background:new 0 0 1000 216.9;" xml:space="preserve">
<style type="text/css">
	.st0{fill:#FFFFFF;}
	.st1{fill:#137D40;}
	.st2{fill:#A24B44;}
</style>
<g>
	<g>
		<path class="st0" d="M163.5,48.2h33.6v91.7h30.2v27.2h-63.8V48.2z"/>
		<path class="st0" d="M280.6,159.2c-0.7,0.8-1.7,1.8-3.1,2.8c-1.4,1.1-3,2.2-4.8,3.2c-1.8,1.1-4,2-6.5,2.8
			c-2.6,0.8-5.2,1.2-7.9,1.2c-18.3,0-27.4-9-27.4-27.1c0-3.5,0.6-6.7,1.9-9.7c1.3-2.9,2.9-5.4,5-7.5c2-2,4.5-3.8,7.3-5.4
			c2.8-1.6,5.7-2.8,8.6-3.8c2.9-0.9,5.9-1.7,9.1-2.3c3.2-0.6,6-1,8.5-1.2c2.5-0.2,4.9-0.3,7.2-0.3v-1.8c0-4.1-1.1-7-3.3-8.7
			c-2.2-1.7-5.7-2.5-10.6-2.5c-4.2,0-8.6,0.5-13.1,1.5c-4.5,1-8.1,2.1-10.7,3.5l-6.5-13.8c4.6-3,10.6-5.6,18-7.9
			c7.4-2.3,14.9-3.4,22.5-3.4c6.8,0,12.3,0.7,16.7,2c4.4,1.3,8,3.6,10.7,6.7s4.7,7.1,5.8,12c1.1,4.8,1.7,11,1.7,18.4v41.3l2.8,7.9
			h-27.8l-3.2-9L280.6,159.2z M276.1,150.8c0.8-0.4,1.6-0.9,2.4-1.7v-24.3c-4.1,0-7.4,1.1-9.8,3.4c-2.4,2.3-3.7,5.8-3.7,10.5
			c0,8.5,2.9,12.7,8.6,12.7C274.5,151.4,275.4,151.2,276.1,150.8z"/>
		<path class="st0" d="M322.7,167.1v-65.6l-6.1-3.8V86.8l21.8-6h17.2V94l1.2-1.5c0.8-1.1,2-2.4,3.6-3.9c1.6-1.5,3.4-3,5.3-4.4
			c2-1.5,4.3-2.7,7.1-3.8c2.7-1,5.4-1.6,8.1-1.6c9.3,0,15.8,2.5,19.6,7.6c3.8,5.1,5.7,13.6,5.7,25.5c0,0.4,0,1,0,1.8
			c-0.1,0.8-0.1,1.5-0.1,1.9v51.4h-33.5v-54.4c0.2-6.4-2.5-9.5-8.1-9.5c-0.4,0-0.8,0-1.2,0.1c-0.4,0.1-0.7,0.1-1,0.2
			c-0.3,0.1-0.6,0.2-1,0.4c-0.4,0.2-0.7,0.3-1,0.4c-0.3,0.1-0.6,0.3-0.9,0.5c-0.3,0.2-0.6,0.4-0.8,0.6c-0.2,0.1-0.5,0.4-0.9,0.7
			c-0.4,0.3-0.6,0.5-0.8,0.7c-0.2,0.1-0.4,0.4-0.8,0.7c-0.4,0.3-0.6,0.5-0.8,0.7v59.1H322.7z"/>
		<path class="st0" d="M471.8,154c-0.5,0.9-1.2,1.9-1.9,2.8c-0.7,0.9-1.8,2.1-3.4,3.6c-1.6,1.5-3.2,2.7-5,3.8c-1.8,1.1-4,2-6.6,2.8
			s-5.4,1.2-8.3,1.2c-11.2,0-19.3-3.8-24.6-11.5c-5.2-7.6-7.8-18.3-7.8-31.9c0-8.5,1.2-16.1,3.7-22.8c2.4-6.7,6.3-12,11.5-16.1
			c5.2-4.1,11.5-6.1,18.9-6.1c4.4,0,8.3,0.5,11.8,1.4c3.4,0.9,6.4,2.1,8.9,3.4V54.2l-11.2-3.8V39.3l35.9-5.1h7.9v132.9h-25.9
			L471.8,154z M465.2,147.8c1.3-0.4,2.5-1.1,3.8-1.9v-51c-2.1-0.5-4-0.7-5.8-0.7c-9,0.1-13.5,7-13.6,20.8v14.2
			c0,6.4,1.1,11.2,3.3,14.4c2.2,3.2,5.1,4.9,8.5,4.9C462.6,148.4,463.9,148.2,465.2,147.8z"/>
	</g>
</g>
<g>
	<g>
		<path class="st0" d="M574,148.1h-28.8l-3.9,19h-29.8l30.9-110.7l-2.4-8.2h41.9l33.9,118.9h-37.2L574,148.1z M549.4,127.4H569
			l-10.8-44.3L549.4,127.4z"/>
		<path class="st0" d="M628.3,166c-6.5-2.1-10.7-4.2-12.5-6.2l2.6-16.3c2.3,2.2,6.1,4.2,11.5,5.8s10.9,2.4,16.5,2.4
			c4.1,0,6.8-0.5,8.4-1.5s2.3-2.4,2.3-4.3c0-1.8-1.4-3.3-4.1-4.7c-2.7-1.4-7.1-3-13.2-4.8c-15.8-4.7-23.6-14.5-23.6-29.4
			c0-6.1,1.8-11.3,5.3-15.7c3.5-4.4,8-7.5,13.5-9.5c5.5-2,11.6-2.9,18.4-2.9c11.6,0,20.1,2.1,25.6,6.4l1.8,1.7l-4.5,14.5
			c-4.5-4.4-10.6-6.6-18.5-6.6c-6.4,0-9.6,1.9-9.6,5.7c0,1.1,0.2,2,0.7,2.7c0.5,0.7,1.3,1.3,2.4,1.8s2.2,0.9,3.3,1.2
			c1.1,0.3,2.6,0.7,4.6,1.2c2,0.5,3.7,1,5.1,1.4c7.9,2.6,13.7,6.4,17.2,11.2c3.6,4.8,5.4,10.8,5.4,18c0,20.8-13.1,31.2-39.3,31.2
			C641.2,169.2,634.8,168.2,628.3,166z"/>
		<path class="st0" d="M702.8,166c-6.5-2.1-10.7-4.2-12.5-6.2l2.6-16.3c2.3,2.2,6.1,4.2,11.5,5.8s10.9,2.4,16.5,2.4
			c4.1,0,6.8-0.5,8.4-1.5s2.3-2.4,2.3-4.3c0-1.8-1.4-3.3-4.1-4.7c-2.7-1.4-7.1-3-13.2-4.8c-15.8-4.7-23.6-14.5-23.6-29.4
			c0-6.1,1.8-11.3,5.3-15.7c3.5-4.4,8-7.5,13.5-9.5c5.5-2,11.6-2.9,18.4-2.9c11.6,0,20.1,2.1,25.6,6.4l1.8,1.7l-4.5,14.5
			c-4.5-4.4-10.6-6.6-18.5-6.6c-6.4,0-9.6,1.9-9.6,5.7c0,1.1,0.2,2,0.7,2.7c0.5,0.7,1.3,1.3,2.4,1.8s2.2,0.9,3.3,1.2
			c1.1,0.3,2.6,0.7,4.6,1.2c2,0.5,3.7,1,5.1,1.4c7.9,2.6,13.7,6.4,17.2,11.2c3.6,4.8,5.4,10.8,5.4,18c0,20.8-13.1,31.2-39.3,31.2
			C715.8,169.2,709.3,168.2,702.8,166z"/>
		<path class="st0" d="M787.7,165.8c-5.6-2.3-10-5.5-13.2-9.6c-3.2-4.1-5.6-8.8-7.1-13.9c-1.5-5.2-2.2-10.9-2.2-17.3
			c0-15.1,3.9-26.6,11.6-34.4c7.7-7.8,18.5-11.7,32.4-11.7c13.3,0,22.9,3.1,28.6,9.4c5.7,6.3,8.6,16.3,8.6,30.2v11.3H800v1.9
			c0,4,0.4,7.3,1.3,9.8c0.8,2.6,2.1,4.5,3.7,5.7c1.6,1.2,3.3,2,5,2.4c1.7,0.4,3.8,0.6,6.2,0.6c2.4,0,4.9-0.3,7.7-0.9
			c2.7-0.6,5.5-1.6,8.3-2.8c2.8-1.3,5.2-2.8,7.1-4.6l6,10.2c-2.5,4.1-6.2,7.5-11,10.2c-4.8,2.7-9.5,4.6-13.9,5.5
			c-4.5,0.9-8.7,1.4-12.8,1.4C799.9,169.2,793.3,168.1,787.7,165.8z M814.2,96.4c-0.9-3.6-2.5-5.4-4.9-5.4c-2,0-3.7,0.4-5,1.1
			c-1.3,0.7-2.2,1.8-2.8,3.3c-0.6,1.5-1,3.1-1.2,4.7c-0.2,1.6-0.3,3.6-0.3,6v8.5h15.4C815.6,106.1,815.1,100,814.2,96.4z"/>
		<path class="st0" d="M862,161c-3.6-5.5-5.4-14.7-5.4-27.8V98.7h-7V84.6l12-3.8l10.3-23.6h17.9v23.6h16.6v17.9h-16.9v37.7
			c0,5.4,0.8,9,2.3,10.8c1.6,1.8,4,2.6,7.2,2.6c1.4,0,2.7-0.2,3.9-0.5c1.1-0.3,2.1-0.8,2.8-1.4v13.8c-1,1-2.3,2-4,3
			c-1.6,1-4.3,2-8.1,3s-7.9,1.5-12.5,1.5C872,169.2,865.6,166.5,862,161z"/>
		<path class="st0" d="M922.6,166c-6.5-2.1-10.7-4.2-12.5-6.2l2.6-16.3c2.3,2.2,6.1,4.2,11.5,5.8s10.9,2.4,16.5,2.4
			c4.1,0,6.8-0.5,8.4-1.5s2.3-2.4,2.3-4.3c0-1.8-1.4-3.3-4.1-4.7c-2.7-1.4-7.1-3-13.2-4.8c-15.8-4.7-23.6-14.5-23.6-29.4
			c0-6.1,1.8-11.3,5.3-15.7c3.5-4.4,8-7.5,13.5-9.5c5.5-2,11.6-2.9,18.4-2.9c11.6,0,20.1,2.1,25.6,6.4l1.8,1.7l-4.5,14.5
			c-4.5-4.4-10.6-6.6-18.5-6.6c-6.4,0-9.6,1.9-9.6,5.7c0,1.1,0.2,2,0.7,2.7c0.5,0.7,1.3,1.3,2.4,1.8s2.2,0.9,3.3,1.2
			c1.1,0.3,2.6,0.7,4.6,1.2c2,0.5,3.7,1,5.1,1.4c7.9,2.6,13.7,6.4,17.2,11.2c3.6,4.8,5.4,10.8,5.4,18c0,20.8-13.1,31.2-39.3,31.2
			C935.5,169.2,929.1,168.2,922.6,166z"/>
	</g>
</g>
<path class="st1" d="M76,189.1C50.8,161.9,28,135,20.9,98.5c-5.7-29.2,7.2-55.2,32.6-66.4c24.8-10.9,52.8-3.2,69,19.3
	c11.1,15.5,12.2,33,8,50.8C122.2,136.7,100.6,162.9,76,189.1z M54.7,75.7c0,11.8,9.1,21.2,20.9,21.5c12.6,0.3,21.9-9.1,21.7-21.8
	c-0.2-11.9-9.6-21.1-21.4-21C64.2,54.5,54.8,64,54.7,75.7z"/>
<path class="st2" d="M449.5-70.4c-1.3-0.3-2.7-0.7-4-1C446-67.9,447.7-69,449.5-70.4z"/>
</svg>
