<svg xmlns="http://www.w3.org/2000/svg" viewBox="0 0 314.48 314.48"><defs><style>.cls-1{fill:#38b778;}.cls-2{fill:#fff;}</style></defs><title>Left-Arrow</title><g id="Layer_2" data-name="Layer 2"><g id="Layer_1-2" data-name="Layer 1"><circle class="cls-1" cx="157.24" cy="157.24" r="157.24"/><path class="cls-2" d="M125.06,109c6,4.52,6.26,8.08.84,13.51Q113.66,134.78,101.42,147c-.89.89-1.7,1.86-3.1,3.41H231.5c5.57,0,8.57,2.61,8.39,7.22A6.36,6.36,0,0,1,234,164c-1.44.14-2.91.07-4.37.07H98.27c1.35,1.53,2.12,2.5,3,3.37q12.51,12.54,25,25.05c4.11,4.11,4.51,7.81,1.26,11-3,3-7,2.56-10.79-1.19q-19.58-19.55-39.1-39.14c-4.08-4.1-4.12-7.62-.07-11.69q19.66-19.76,39.41-39.4a36.39,36.39,0,0,1,4.06-3.08Z"/></g></g></svg>