<svg xmlns="http://www.w3.org/2000/svg" viewBox="0 0 275.53 275.53"><defs><style>.cls-1{fill:#0e8241;}.cls-2{fill:#fff;}</style></defs><title>linkedin</title><g id="Layer_2" data-name="Layer 2"><g id="Layer_1-2" data-name="Layer 1"><rect class="cls-1" width="275.53" height="275.53" rx="17.66"/><path class="cls-2" d="M82.18,64.21A17.54,17.54,0,0,1,99.76,81.92,17.86,17.86,0,0,1,81.91,99.63,17.57,17.57,0,0,1,64.34,81.92,17.89,17.89,0,0,1,82.18,64.21Z"/><polygon class="cls-2" points="97.13 113.01 96.38 211.31 65.81 211.31 66.56 113.01 97.13 113.01"/><path class="cls-2" d="M174.89,110.62c31,0,36.49,20.29,36.29,46.79l-.41,53.9h-30.5l.36-47.76c.09-11.44-.06-26.11-15.7-26.11-15.9,0-18.38,12.41-18.48,25.27l-.37,48.6H115.51l.75-98.3h29.27l-.1,13.44h.45C150,118.76,160,110.62,174.89,110.62Z"/></g></g></svg>