<svg xmlns="http://www.w3.org/2000/svg" viewBox="0 0 551.54 388.03"><defs><style>.cls-1{fill:#3db54a;}</style></defs><title>Mail-support</title><g id="Layer_2" data-name="Layer 2"><g id="Layer_1-2" data-name="Layer 1"><path class="cls-1" d="M276.34,0q110.73,0,221.45,0c26,0,43.63,11.33,50.75,33.07a64.1,64.1,0,0,1,2.86,19.44q.26,141.36.09,282.71c0,32.18-19.74,52.56-51.83,52.6q-224,.28-448.06,0C19.61,387.83.06,367.3,0,335Q0,194.08,0,53.15c0-33,19.87-53,53.13-53.07Q164.76-.15,276.34,0ZM56,32.42c1.91,2.23,2.88,3.54,4,4.68q89.75,89.31,179.56,178.54c22.44,22.21,50.48,21.78,73.19-.77Q402,126.27,491.08,37.47c1.31-1.31,2.41-2.83,4.28-5ZM491.64,355.66,355.36,216.32c-6.75,7.38-12.85,14.62-19.54,21.26-36,35.72-84,35.81-119.94.12-6.84-6.8-12.76-14.53-19.52-22.31L58.56,355.66ZM33.39,56.4V331.76l135.8-137.83ZM383.55,193,518.17,330.22V56.6Z"/></g></g></svg>