<svg xmlns="http://www.w3.org/2000/svg" viewBox="0 0 485.03 485.03"><defs><style>.cls-1{fill:#3db54a;}.cls-2{fill:#fff;}</style></defs><title>mission</title><g id="Layer_2" data-name="Layer 2"><g id="Layer_1-2" data-name="Layer 1"><circle class="cls-1" cx="242.52" cy="242.52" r="242.52"/><path class="cls-2" d="M354.76,241.24c-67,84.65-153.29,86.47-224.91.93,27.89-32,59.25-59,104.07-62.35C286.16,175.92,322.35,205.26,354.76,241.24Zm-73.2,1.08c-.3-22.68-17.1-39.28-39.58-39.11-21.08.16-40.35,19.45-39.76,39.78.62,21,19.72,39.67,40.58,39.66C264.2,282.65,281.86,264.27,281.56,242.32Zm-133.24.12,48.18,36.44,3.5-3.41c-13.12-22.31-11.78-44.74-3.36-69.67Zm136.05,32.85,4.3,3.79,47.85-36.72-47.91-36C296.93,231.35,299.3,253.46,284.37,275.29Z"/><path class="cls-2" d="M304.62,121.25c35.72,1.31,61.51,28.55,59.92,59.11-.19,3.69-4.79,7.15-7.35,10.71-2.84-3.28-7.42-6.16-8.26-9.89-7-30.77-16.33-40.66-40.58-44.14-5.27-.76-9.87-6.15-14.78-9.4Z"/><path class="cls-2" d="M351.59,288.61c6.26,7.7,12.57,11.85,12.82,16.33,1.7,30.71-26.12,59.5-56.64,58.84-4.78-.11-9.45-5-14.17-7.7,4.1-2.68,7.94-7.12,12.33-7.75C335.53,344.09,343.17,335.35,351.59,288.61Z"/><path class="cls-2" d="M135.38,188.88c-12.59,4.82-15.44-.44-15-11.39,1.28-35.9,30.34-59.06,73.27-53.76-4.16,5.52-7,12.76-10.06,12.84C149,137.45,136.33,157.91,135.38,188.88Z"/><path class="cls-2" d="M135.24,296.06c3.83,37.2,11.64,45.58,46.55,52.52,4.21.84,7.39,6.91,13.63,13.13C151,367.44,119.28,341.64,120.88,306c.22-4.8,5.58-9.38,8.55-14.06Z"/><path class="cls-2" d="M268,243.77c-11.9,7.81-19.15,16.32-25.75,15.85s-12.65-9.89-18.94-15.39c7.5-6.36,14.23-14.62,22.88-18.09C249.46,224.84,257.18,234.68,268,243.77Z"/></g></g></svg>