<svg xmlns="http://www.w3.org/2000/svg" viewBox="0 0 743.84 618.08"><defs><style>.cls-1{fill:#0a1f36;}.cls-2{fill:#3db54a;}</style></defs><title>Plots-sales</title><g id="Layer_2" data-name="Layer 2"><g id="Layer_1-2" data-name="Layer 1"><path class="cls-1" d="M322.75,417.79,274.2,504.4H129.68l98.8-86.61Z" transform="translate(-0.07)"/><path class="cls-1" d="M208.92,618.08H.07l98.56-86.41H257.72Z" transform="translate(-0.07)"/><polygon class="cls-1" points="443.39 434.28 457.22 504.48 313.11 504.48 345.38 434.28 395.15 485.16 443.39 434.28"/><path class="cls-1" d="M265.42,617.75,300.53,532H462.67l15.14,85.75Z" transform="translate(-0.07)"/><path class="cls-1" d="M640.28,504.5H496.14l-28.68-86.8h93.92Z" transform="translate(-0.07)"/><path class="cls-1" d="M531.51,617.75,503.66,532H665.81l78.09,85.75Z" transform="translate(-0.07)"/><path class="cls-2" d="M485.61,28.18C431.67-8.71,360.9-9.43,305.41,26.31c-57.15,36.89-83.75,102.47-70.87,174.17A349.86,349.86,0,0,0,266,294.83c.41.94.93,1.88,1.35,2.81,1,2.08,2.08,4.05,3.22,6a431.17,431.17,0,0,0,24.11,40.42c8.31,12.58,17.35,24.84,26.81,37,22.13,28.57,46.87,55.9,72.53,83.44,22.76-24.52,44.69-49,64.74-74.3,7.07-8.83,13.83-17.77,20.37-26.81,7.17-10,14-20.06,20.48-30.45,3.32-5.3,6.54-10.7,9.66-16.1s6.13-10.92,8.93-16.53A382.47,382.47,0,0,0,552.74,207C568.84,135.84,542.66,67.15,485.61,28.18ZM395.3,77.75c33.26,1,60.79,30.45,59.75,63.81-1.14,32.52-28.47,59.13-60.89,59.13-33.46,0-62.35-28.89-61.94-61.84C332.64,106.54,363.29,76.82,395.3,77.75Z" transform="translate(-0.07)"/></g></g></svg>