<svg xmlns="http://www.w3.org/2000/svg" viewBox="0 0 314.48 314.48"><defs><style>.cls-1{fill:#38b778;}.cls-2{fill:#fff;}</style></defs><title>Right-Arrow</title><g id="Layer_2" data-name="Layer 2"><g id="Layer_1-2" data-name="Layer 1"><circle class="cls-1" cx="157.24" cy="157.24" r="157.24"/><path class="cls-2" d="M189.42,205.47c-6-4.5-6.28-8.14-.87-13.54,9-9,18-18,28-27.88H82.84c-5.17,0-8.08-2.35-8.25-6.55a6.41,6.41,0,0,1,6-7,37.76,37.76,0,0,1,4-.07h131.6c-1.32-1.48-2.07-2.41-2.91-3.26Q200.64,134.47,188,121.81c-3.93-3.94-4.29-7.62-1.15-10.72s7-2.75,10.79,1q19.62,19.53,39.16,39.13c4.23,4.24,4.19,7.65-.13,12q-19.55,19.6-39.16,39.14a37.72,37.72,0,0,1-4.06,3.09Z"/></g></g></svg>