<svg xmlns="http://www.w3.org/2000/svg" viewBox="0 0 500.2 575.13"><defs><style>.cls-1{fill:#3db54a;}</style></defs><title>Share</title><g id="Layer_2" data-name="Layer 2"><g id="Layer_1-2" data-name="Layer 1"><path class="cls-1" d="M420.13,0c8.71,3.08,17.88,5.25,26.06,9.38C481.27,27.11,500,55.82,499.62,95.3c-.39,38.4-18.84,67-53.28,83.36-35.42,16.78-69.9,12.35-100.18-12.83-8.21-6.83-13.11-6.94-21.58-1.58q-65.24,41.31-131.21,81.42c-8.19,5-10.61,9.18-9.08,19.74,2.32,16-.36,32.67-.3,49,0,3.76,1.37,9.3,4,11,48.91,30.83,98.1,61.21,147.93,92.1,17.6-16.67,37.4-27.72,61.84-30,48.55-4.6,93.94,30.49,101.36,79.23C506.5,515,474.61,562,427.34,572.51c-3.28.73-6.51,1.74-9.76,2.62h-23c-12.27-4.54-25.41-7.54-36.65-13.9-35.47-20.07-52.6-61.94-43.1-101.79,1-4.08,1.93-8.16,3.09-13L164.24,351.26c-52.48,49-112.44,30.68-140.44-.94-32.79-37-31.57-93.4,2.88-128.55,32.63-33.29,91.54-42,137.16,2.3l151.44-93.7C314.64,111.7,311,94,314.07,77.49c7.34-40,32.4-65.26,72.3-75.13A39.38,39.38,0,0,0,392,0Zm45.95,481.33c.22-33-26.78-60.1-60-60.12-32.76,0-59.59,26.33-59.92,58.82-.34,33.13,26.31,60.6,59.25,61.08C438.07,541.58,465.86,514.18,466.08,481.33Zm0-387.44C465.9,61,438.22,33.63,405.55,34c-32.93.39-59.65,27.84-59.36,61,.28,32.49,27.09,58.91,59.81,58.94C439.18,154,466.25,126.89,466.08,93.89ZM34.06,287c-.16,33.53,26.22,60.39,59.44,60.51,32.83.12,60.5-27.34,60.45-60,0-32.21-27.12-59.52-59.31-59.85A59.6,59.6,0,0,0,34.06,287Z"/></g></g></svg>