<svg xmlns="http://www.w3.org/2000/svg" viewBox="0 0 559.1 548.18"><defs><style>.cls-1{fill:#3db54a;}</style></defs><title>Title-deed</title><g id="Layer_2" data-name="Layer 2"><g id="Layer_1-2" data-name="Layer 1"><path d="M543.74,465.53c-1.09-17.39-3.68-20.92-21.55-21-21.94-.09-43.87,0-67.2,0,0-40.73-.45-79.54.33-118.26l-28.51,30v88.11H409.58q-104.07,0-208.19,0c-22.39,0-24.41,2-24.65,23.78-.06,7,.15,14.09-.15,21.12-.76,18.56-13,31.39-29.73,31.45-17.71.06-30.75-12.83-30.87-31.9-.33-47.77-.15-95.57-.15-143.33,0-92,.15-184-.15-276.09-.06-12.85-2.47-25.67-4.07-41.37H238.33q73.18,0,146.35,0c34.25.06,43.21,9.12,43.15,42.7-.06,44.75.42,89.51-.42,134.26a19.9,19.9,0,0,1-.18,2.62l27.88-28.18c0-39.08-.06-74.36,0-109.63.09-47.41-21.18-69-69-69.14Q223.29.2,60.44,0C27.64,0,1.75,24.71.42,57.39-.13,70.94,0,84.55.12,98.1c.18,16.39,4.28,20.49,20.54,20.61,22,.12,44,0,67.9,0v19.1q0,173.46,0,346.85c0,39.59,22.75,62.79,62.68,62.89,104,.24,208.12-1.27,312.14.57C520.2,549.14,547.63,527.66,543.74,465.53ZM88.59,77.31c0,3.92-.33,7.85-.6,14-18.47,0-35.4.3-52.27-.27C33,91,28.09,87.09,28,84.82c-.36-11.43-.85-23.17,1.3-34.31C32.13,35.67,44.84,28.18,61,29.36c15.06,1.09,25.65,11.29,27.25,27C89,63.25,88.62,70.31,88.59,77.31ZM477.65,520.05q-131.17.19-262.35.09h-16c2.2-16.56,4.19-31.29,6.33-47.28H514.1C520.32,505,508.76,520,477.65,520.05Z"/><path class="cls-1" d="M551.7,182.66c-9.5-9-18.58-18.38-27.85-27.59-14.54-14.42-18.19-14.42-33.25.31-2.78,2.71-5.56,5.43-8.36,8.2l-95.66,96-4.32,4.32C364.58,281.66,346.75,299.26,329,317c-8.52,8.51-17.48,53.17-11.05,62.4,3.05,4.38,10.41,7.82,16,8,27.61,1,50.88-6,70.25-29.18,6.28-7.51,20.19-21.55,20.61-21.21L497,264.46l.51-.51v0c17.74-17.89,35.7-35.58,53.68-53.2C561.24,200.91,562,192.4,551.7,182.66Zm-67.41,55C447.63,274.09,411.42,311,374.33,347c-6.46,6.25-16.18,9.18-24.38,13.64-1.9-1.5-3.81-3-5.71-4.49,2.42-7.79,2.54-17.81,7.61-23,49.79-50.93,100.39-101.09,150.82-151.42,1-1,2.5-1.51,5.28-3.11,5.4,5.37,10.95,10.87,18.71,18.56C511.66,211.47,497.75,224.33,484.29,237.67Z"/><path class="cls-1" d="M276.52,118.48c30.09,0,60.17.08,90.25,0,10.26,0,20.58,1,20.19,14.08-.34,11.54-9.72,13.46-19.68,13.43q-92.5-.24-185-.09c-10.29,0-18.78-2.57-18.62-14.29.15-11,8.57-13.11,18.11-13,31.58.18,63.17.07,94.75.07Z"/><path class="cls-1" d="M275.57,227.35c-30.65,0-61.31-.07-92,0-10.51,0-20.36-2-19.89-14.76.45-12.11,10.35-12.65,20-12.64q91.23.16,182.44-.07c10.1,0,20.92.47,20.73,13.58-.17,12.6-10.56,13.85-20.88,13.79-30.16-.16-60.31,0-90.47,0Z"/><path class="cls-1" d="M231.07,308.82c-16.53,0-33.06-.07-49.6,0-9.67,0-17.51-3.2-17.63-13.94-.12-11.18,8.08-13.45,17.67-13.41q49.59.24,99.2,0c9.52,0,17.85,2.18,17.63,13.42-.21,10.63-7.89,14-17.66,13.93C264.14,308.74,247.61,308.83,231.07,308.82Z"/><path class="cls-1" d="M217.52,390.24c-12.52,0-25.05.06-37.58,0-9.27-.06-16.11-4.09-16.1-13.89,0-10,7.11-13.39,16.36-13.36q37.58.12,75.17,0c9.27,0,16.31,3.57,16.07,13.61-.23,9.67-6.94,13.73-16.33,13.68-12.53-.07-25.06,0-37.59,0Z"/></g></g></svg>