<svg xmlns="http://www.w3.org/2000/svg" viewBox="0 0 275.53 275.53"><defs><style>.cls-1{fill:#0e8241;}.cls-2{fill:#fff;}</style></defs><title>twitter</title><g id="Layer_2" data-name="Layer 2"><g id="Layer_1-2" data-name="Layer 1"><rect class="cls-1" width="275.53" height="275.53" rx="17.66"/><path class="cls-2" d="M219.47,97.77a52.25,52.25,0,0,1-3.79,5.13,63.64,63.64,0,0,1-12.23,11.57l-.57,1.06a89.89,89.89,0,0,1-.74,14.83,99.15,99.15,0,0,1-27.07,56.11,90.17,90.17,0,0,1-46.17,25.65,104,104,0,0,1-18.66,2.19c-1,0-2,0-3,0a93.73,93.73,0,0,1-50.36-14.43l-.81-.5a74.77,74.77,0,0,0,7.86.42,67.94,67.94,0,0,0,25.65-5,66.7,66.7,0,0,0,16-9.32C88.19,185,77.4,172.46,74.6,162.32a32,32,0,0,0,6.21.6,35.07,35.07,0,0,0,8.12-1l.5-.25c-9.43-2.19-16.64-7.2-21.59-15.33A32.54,32.54,0,0,1,63,128.61a33,33,0,0,0,14.86,4,33.5,33.5,0,0,1-9.8-44.48c17.92,21.33,40.72,33,68.67,35-.18-1.38-.36-2.5-.54-3.69a32.5,32.5,0,0,1,5.11-21.83c5.38-8.38,13-13.58,22.76-15.14a36.66,36.66,0,0,1,6.09-.52c8.74,0,16.48,3.36,23.12,9.84a1.76,1.76,0,0,0,1.22.57,2,2,0,0,0,.52-.07,66.07,66.07,0,0,0,19.51-7.44l.44-.25a32.92,32.92,0,0,1-14.21,18.2A64.84,64.84,0,0,0,219.47,97.77Z"/></g></g></svg>