<svg xmlns="http://www.w3.org/2000/svg" viewBox="0 0 485.03 485.03"><defs><style>.cls-1{fill:#3db54a;}.cls-2{fill:#fff;}</style></defs><title>vision</title><g id="Layer_2" data-name="Layer 2"><g id="Layer_1-2" data-name="Layer 1"><circle class="cls-1" cx="242.52" cy="242.52" r="242.52"/><path class="cls-2" d="M354.43,216.57c1.7,5.16,3.47,10.55,5.74,17.46,9,0,18.09-.84,26.88.37,4,.55,7.44,5.15,11.13,7.91-3.55,2.89-6.83,7.72-10.72,8.27-8.84,1.25-18,.4-27.84.4-10.48,61.46-46.11,96.61-108.71,106.8,0,10.2.66,20.51-.38,30.65-.34,3.28-5.14,6.1-7.89,9.13-2.74-3-7.47-5.81-7.83-9.09-1.06-9.57-.38-19.32-.38-30.6-59.33-10.64-95.65-44.39-106.07-106.81-10,0-20.22.78-30.18-.39-4-.47-7.56-5.2-11.33-8,3.65-2.85,7.06-7.65,11-8.15,9.52-1.2,19.29-.39,30-.39,10.69-59.73,44.47-96,106.41-106.78,0-9.57-.78-19.19.36-28.58.49-4,5-7.55,7.63-11.3,2.95,3.42,8.95,7.5,8.37,10.17-5.83,27.26,11.32,31.42,31.94,38.22,18.59,6.13,34.53,20.3,52.21,31.27-14.17,16.24-21.41,7.28-29.63.7-56.46-45.15-139.38-17.41-155.75,52.34-9,38.33,2.54,71.21,32.21,96.09,31,26,67.11,31.09,103.74,13.3,36.25-17.61,55.41-47.72,55.29-88.85C340.59,230.27,336.28,217.74,354.43,216.57Z"/><path class="cls-2" d="M318.86,236.31c2.52,39.13-21,71.91-57.9,80.63a77.6,77.6,0,0,1-88.54-43.31c-15.09-33.33-3.35-74,27.28-94.58,30.79-20.68,69.68-17,95.88,9.35-8.15,11.49-16.28,6.5-26.06,1.57-30-15.12-64.54-3.46-79.61,25.87-14.2,27.64-4,61.89,23,77.6,28.57,16.58,63.9,7.5,81-21.38,3.53-6,4.27-13.52,7.4-19.8,3.45-6.93,8.17-13.22,12.34-19.78Z"/></g></g></svg>