<svg xmlns="http://www.w3.org/2000/svg" viewBox="0 0 275.53 275.53"><defs><style>.cls-1{fill:#0e8241;}.cls-2{fill:#fff;}</style></defs><title>whatsapp</title><g id="Layer_2" data-name="Layer 2"><g id="Layer_1-2" data-name="Layer 1"><rect class="cls-1" width="275.53" height="275.53" rx="17.66"/><path class="cls-2" d="M116.22,102.9a25,25,0,0,1,4.29.5c.85.11,1.63,1.35,2.07,2.26,2.06,4.79,4.11,9.59,5.88,14.5,1,2.6-.83,5.08-4.65,9.37a3.29,3.29,0,0,0-.54,4.23A50.22,50.22,0,0,0,149,155.94a4,4,0,0,0,1.41.29,3.2,3.2,0,0,0,2.49-1.36c4.79-5.78,6.15-8.31,8.09-8.31a3.79,3.79,0,0,1,1.63.46c15,7.17,16.14,7.45,16.18,9.15.39,12-10.08,16.74-17.17,16.74-.37,0-.73,0-1.07,0-14.5-.51-37.56-12-53.21-39.5-5.51-9.77-4.63-20.89,3.67-28.56A7.28,7.28,0,0,1,116.22,102.9Z"/><path class="cls-2" d="M214.61,123.43c7.14,41.09-20,80-60.83,87.2a77.2,77.2,0,0,1-13,1.12,75.12,75.12,0,0,1-33.31-7.89,7,7,0,0,0-3.09-.68,5.83,5.83,0,0,0-1.48.17C83.14,208.31,70,212,66,212.77c.87-3.21,1.62-6,2.38-8.86,2.55-9,5.16-18,7.54-27a6.75,6.75,0,0,0-.36-4.35A74.8,74.8,0,0,1,125.1,64.91a76.48,76.48,0,0,1,17.47-2C178.79,62.86,208.68,89.44,214.61,123.43Zm-63.9,75.23c33.8-5.41,57.12-37,52.24-70.6a61.51,61.51,0,0,0-60.86-52.95,62.55,62.55,0,0,0-11.32,1C89,83.81,66.41,130.38,86.9,167.28c2.28,4.07,2.88,7.45,1.26,11.8-1.84,5.25-3,10.67-4.7,16.59,7.41-1.92,14.25-3.61,21-5.53a6.81,6.81,0,0,1,1.78-.25,6.57,6.57,0,0,1,3.3,1,60.94,60.94,0,0,0,31,8.62,62.68,62.68,0,0,0,10.12-.83"/></g></g></svg>