<svg xmlns="http://www.w3.org/2000/svg" viewBox="0 0 551.54 553.67"><defs><style>.cls-1{fill:#3db54a;}</style></defs><title>Whatsapp-support</title><g id="Layer_2" data-name="Layer 2"><g id="Layer_1-2" data-name="Layer 1"><path class="cls-1" d="M0,553.67c12.47-45.93,24.72-90.62,36.58-135.41a17.87,17.87,0,0,0-1.32-11.83C8.39,356.16-3.42,302.49,3.63,246.1,16.24,145.21,68.17,69.93,160.33,26.7,314.09-45.43,491.45,34.32,539.89,197c44.56,149.6-43.31,299.39-185.33,341.23-70.45,20.76-138.48,13.58-204.12-19A17.44,17.44,0,0,0,139.3,518C95.62,529.31,52,540.93,8.41,552.41,6.09,553,3.64,553.14,0,553.67Zm66-65.41a43.46,43.46,0,0,0,5.71-.51c23.47-6.11,47-11.9,70.33-18.64,7.2-2.08,12.58-1.18,18.89,2.47q83.08,48,176,23.53C457,463.52,530.41,335,497,215.21c-36.3-129.95-171.53-200-298.57-154.74C114.81,90.27,54.55,170.58,49,259.17c-3.12,50.11,8.7,96.26,35.13,138.91a20.34,20.34,0,0,1,2.16,14.16C80.11,437.26,73.11,462.08,66,488.26Z"/><path class="cls-1" d="M137.35,212.7c-.65-21.79,8.15-40.77,24.24-56.62,7.73-7.62,29.06-11.67,38-6.44,3.63,2.12,6.61,6.46,8.37,10.46,7.4,16.86,14.71,33.79,20.95,51.1,1.59,4.42.52,11-1.78,15.34-3.85,7.23-9.39,13.65-14.75,20-4.7,5.53-4.95,10.49-1.2,16.68,22.25,36.75,53,63.38,92.93,79.45,6,2.42,10.74,1.54,14.75-3.43,6.57-8.13,13.42-16.06,19.56-24.5,4.36-6,9.6-7.76,16-4.79q28.38,13.24,56.4,27.21a9.92,9.92,0,0,1,4.53,7.14c.82,18.63-3.35,35.11-19.67,47-21.74,15.82-45.33,19.21-70.83,12.47-78.64-20.77-132.3-72.61-173.07-140C142.62,248.57,137.11,231.86,137.35,212.7Z"/></g></g></svg>