<svg xmlns="http://www.w3.org/2000/svg" viewBox="0 0 275.53 275.53"><defs><style>.cls-1{fill:#0e8241;}.cls-2{fill:#fff;}</style></defs><title>youtube</title><g id="Layer_2" data-name="Layer 2"><g id="Layer_1-2" data-name="Layer 1"><rect class="cls-1" width="275.53" height="275.53" rx="17.66"/><path class="cls-2" d="M215.2,100c5.84,15.41,5.61,71.52-1.42,86.35a19.61,19.61,0,0,1-8.88,8.94c-5.5,2.84-37.42,4.18-68.69,4.18-28.78,0-57-1.13-63.63-3.29A18.94,18.94,0,0,1,60.12,184c-5.27-14.9-6.44-77.29,4.11-89.59a20.38,20.38,0,0,1,13.69-7.22c12.54-1.36,36.74-2,60.61-2,29.72,0,58.92,1,64.46,3A19.22,19.22,0,0,1,215.2,100Zm-97.7,67c16.93-8.81,33.8-17.5,50.86-26.31-16.93-8.87-33.66-17.62-50.46-26.44-.13,17.63-.26,35.06-.4,52.75"/></g></g></svg>